<?xml version="1.0" standalone="no"?>
<!DOCTYPE svg PUBLIC "-//W3C//DTD SVG 1.1//EN" "http://www.w3.org/Graphics/SVG/1.1/DTD/svg11.dtd" >
<svg xmlns="http://www.w3.org/2000/svg">
<metadata>
Created by FontPrep 20130207 at Fri Sep 18 15:34:46 2015
 By walid belkziz
Copyright (c) 2012 by Brittney Murphy. All rights reserved.
</metadata>
<defs>
<font id="91c88f84c26304d232e18a4908eef6ed" horiz-adv-x='1024' >
  <font-face 
    font-family="whateverittakes-Bold"
    font-weight="700"
    font-stretch="normal"
    units-per-em="2048"
    panose-1="0 0 0 0 0 0 0 0 0 0"
    ascent="1638"
    descent="-410"
    x-height="735"
    cap-height="1284"
    bbox="-262 -530 1698 1866"
    underline-thickness="102"
    underline-position="-102"
    unicode-range="U+0020-FB02"
  />
<missing-glyph horiz-adv-x="446" 
 />
    <glyph glyph-name=".notdef" horiz-adv-x="446" 
 />
    <glyph glyph-name=".null" horiz-adv-x="0" 
 />
    <glyph glyph-name="nonmarkingreturn" horiz-adv-x="681" 
 />
    <glyph glyph-name="space" unicode=" " horiz-adv-x="446" 
 />
    <glyph glyph-name="exclam" unicode="!" horiz-adv-x="233" 
d="M209 126q0 -54 -39 -54q-8 0 -26 -12t-38 -11q-20 0 -31.5 11.5t-11.5 32.5t39 93l35 23q23 0 47.5 -26.5t24.5 -56.5zM37 1231q0 39 50 39q28 0 64.5 -26.5t36.5 -67.5v-289q0 -9 -8 -25q10 -58 10 -70v-188l-2 -110v-33q16 -23 16 -31t-5 -20q6 -12 6 -23v-16q0 2 4 2
q17 -28 13 -45q-10 -35 -38 -35q-84 0 -115.5 48t-31.5 76t16 60v4q-16 11 -16 33v717z" />
    <glyph glyph-name="quotedbl" unicode="&#x22;" horiz-adv-x="444" 
d="M215 1233q0 39 57 39t103 -68q-4 -18 -4 -24v-62q0 -90 10 -129q16 -63 -17.5 -79.5t-71.5 -16.5t-49.5 11t-11.5 31.5t19 49.5q-4 2 -12 10q-23 64 -23 238zM10 1186q0 45 16.5 62.5t52.5 17.5t50 -9.5t29 -27.5q9 -43 3.5 -55.5t-11.5 -22.5t-5 -29q0 -19 5 -22
q4 -10 8 -19.5t4 -21.5v-15l-2 -38q0 -16 11 -37t11 -52q0 -53 -39 -53q-44 0 -69 10q-26 21 -38.5 76.5t-12.5 59.5v37l1 44q1 44 -14 78v17z" />
    <glyph glyph-name="numbersign" unicode="#" horiz-adv-x="892" 
d="M559 576q0 8 -1 13t-1 11q-10 -2 -17.5 -6t-23.5 -11t-36.5 -16.5t-39.5 -9.5l-16 2q-40 -8 -43 -8v-78l31 10q14 6 32.5 10.5t28.5 8.5l37 -2q6 6 14 19t45 28q-10 21 -10 29zM186 690l-20 147q0 17 11 28.5t28 11.5h59q16 0 26.5 -11.5t10.5 -27.5l2 -31q2 -12 2 -15
v-30q0 4 8.5 -16.5t8.5 -28.5l4 -23v6l6 -18q27 16 65.5 28.5t65.5 22.5l22 8q8 3 29 -8l10 8l2 2q4 2 8.5 5.5t10.5 7.5q4 14 6 24.5t6 28.5q-2 0 -8 7t-6 26l14 104q-29 24 -29 59t10 58t11 44q0 42 39 42q10 0 48 -24.5t48 -37.5q-4 -29 -4 -38v-137q0 -128 4 -136
q40 15 113 15q39 0 39 -39q0 -20 -16 -50t-42 -39.5t-46 -12.5t-28 -10t-8 -50v-31q11 0 33 19q25 0 41 -12t37 -13q39 0 39 -39v-22q0 -10 -8.5 -21.5t-16.5 -15.5q-84 -31 -97 -43.5t-14 -25.5t-1 -38v-30q0 -29 -4 -35q40 -64 40 -185q0 -39 -48 -39q-26 0 -47 8t-21 11
q-39 0 -39 39v16l2 45q0 55 -18 86t-17 101v14q-14 -4 -30.5 -10.5t-45.5 -16.5q-12 -10 -26.5 -14t-34.5 -12q8 0 -4.5 -3.5t-18.5 -7.5v-110q0 -16 -11.5 -27.5t-25.5 -11.5q-26 0 -71 33t-45 55v4h-4q-4 0 -15.5 -6t-21.5 -11t-19.5 -10.5t-24.5 -5.5t-26.5 11.5
t-11.5 22.5q0 18 17.5 64t29.5 61t21.5 16.5t17.5 5.5t14 4t8 -4v108h-28q-55 7 -92 31h-21q-42 0 -80 19q-18 9 -18 38q0 55 37 78t100 33q18 2 30.5 -9.5t12.5 -27.5t-2 -25q14 2 16 10.5t2 28.5z" />
    <glyph glyph-name="dollar" unicode="$" horiz-adv-x="700" 
d="M201 541h55q7 0 33 -13v19q1 29 -9 50t-10 46v8q-17 -17 -39 -43t-41 -26q-5 -24 -20 -39q10 -2 31 -2zM557 328q0 22 -35 37.5t-69 21.5q2 -43 2 -83t6 -93q2 10 11 7t15 1q70 41 70 109zM31 434q-39 0 -39 52q0 124 55 165q8 6 19 8q28 76 67 76h21q-6 6 28 39l15 14
q45 22 46 32t-8 42q-10 31 -10 50q0 23 -8.5 64.5t-11.5 41.5q-23 0 -34 17.5t-1 39.5l31 60q16 26 46 17t55.5 -53t47.5 -93q0 -24 17.5 -80t21.5 -64q0 2 7 2h63q4 0 8 -2q12 8 20 8h2l13 -6l22 21q53 0 75 -36.5t22 -64.5q0 -52 -39 -51h-60q-12 0 -18 2q-8 -4 -16.5 -4
t-10.5 2q-6 -4 -25 -4t-40 19h10l-14 6v-9q0 -20 8 -32q6 -18 6 -45v-21q0 -53 18 -90q0 -31 9.5 -38t25.5 -11l47 -16q2 -4 25 -14q75 -34 105 -67.5t30 -101.5q0 -67 -28.5 -113t-59.5 -69q-12 -19 -58 -38q-46 -18 -67 -40v-10l-2 -33q0 -45 18 -135q0 -30 -49.5 -48.5
t-71.5 0t-42 42.5l-5 78v69q-223 0 -262 64t-39 114t39 50h15q19 0 34 -23q16 -23 43 -45t43 -22h74l41 4q-4 36 -4 69l1 17v90q1 73 -21 73q-2 -2 -14.5 -3t-27.5 -4t-36 -7t-17 0l-80 14l-14 -2q-29 0 -49 33h-12z" />
    <glyph glyph-name="percent" unicode="%" horiz-adv-x="1263" 
d="M163 792q9 -38 30 -38l16 8l10 6q6 30 21 49l26 17l8 24q-12 14 -12 41t25 39v4l2 31v6l-15 59q-4 12 -4 19q-8 -14 -25.5 -17.5t-29.5 4.5l-14 -8h-15q16 -2 14 -18t-6 -17.5t-12 -5.5q6 -19 -11 -71q-17 -51 -17 -73q0 -21 9 -59zM108 610q-45 0 -45 37v21
q-33 27 -45 71q-22 10 -22 41t10 51q-6 19 -6 49t27 99q0 10 4 14v27q44 135 74 158.5t51 33.5q19 24 63 48q29 12 43 -9q8 -6 22.5 -19t16.5 -13h21q24 0 38 -19h7q16 0 27.5 -11t11.5 -23t10 -20q10 -9 10 -34l-2 -18l25 -64l8 -24v-14q0 -13 -4 -19q14 -31 -13 -51
q-7 -22 -12 -29q-2 0 -4 2v-33l-16 -43q0 -70 -19 -80q-10 -12 -24 -18v-12q0 -32 -29 -56q-16 -10 -41 -6q-19 -45 -109 -45q-14 4 -28 16q-28 -8 -50 -8zM958 131q-29 -29 -62 -29t-62 17q-57 7 -62 78q-18 -2 -29.5 10t-11.5 31v8q-16 12 -16 55t16 55v68q18 40 43 71
t39 60q46 46 70 52.5t60 9.5t50.5 -15t14.5 -59q0 -70 -45 -90q-16 -8 -37 6q-35 -40 -52 -99q-2 -4 -2 -8t-2 -4v-43q0 -18 -6 -33h58q8 0 20 -8l49 49q14 27 28.5 80t14.5 61q0 16 -12 70t22 62q37 20 61 20q25 0 55 -14t36 -40t-6 -40q12 -24 12 -34t-6 -19q4 -8 4 -19.5
t-22 -68t-39 -86.5v-21q0 -41 -70 -82h-6q8 -8 -27 -35.5t-47 -27.5zM547 59q-27 -75 -81 -75h-38q-39 0 -46 21.5t0 34.5t16.5 30.5t9.5 19.5v43q6 15 13 29t12 25.5t9 19.5l4 35q4 27 8.5 59.5t14.5 60.5q5 29 17 42.5t12 11.5v51q8 31 16 57.5t31 55.5l28 170
q2 10 10.5 19t16.5 11h4v15l14 90q22 66 36.5 169t37.5 141t23 61q0 24 16 36q18 9 67.5 -37.5t49.5 -54.5t-6 -20t-8 -11q16 -16 11 -37.5t-26 -25.5l-2 -19l-2 -2q-4 -14 -12 -22v-4q-11 -65 -17 -80v-27q0 -27 -14 -41q-2 -10 -9 -33.5t-7 -52.5q-31 -62 -31 -65v-33
q0 -33 -16 -47q-8 -52 -30 -119q-23 -68 -33.5 -100.5t-10.5 -54.5t-9.5 -45t-17.5 -45t-13 -32t-5 -12v-36q-2 -12 -6 -22t-7.5 -18t-7.5 -12q-24 -60 -24 -82l2 -22v-21z" />
    <glyph glyph-name="ampersand" unicode="&#x26;" horiz-adv-x="796" 
d="M86 31l2 -2q0 2 -2 2zM332 1043.5q-27 -25.5 -27 -40.5t17 -34t24 -49q18 -18 23 -58l8 6v21q25 51 29 85t4 91q-20 4 -36 4q-15 0 -42 -25.5zM178 166q6 0 19 13t24 18q12 6 23.5 10t28 10t33 14.5t42.5 20.5l51 37q64 45 70 59q-2 0 -4 3t-5 6t-9 13t-16.5 23t-12.5 35
l-45 43q4 -2 7 8t-15 58l-37 -62q-26 -69 -53 -96l6 2l-21 -35q-12 -23 -51 -89.5t-43 -93.5q2 3 8 3zM14 129v6q13 79 54 135l26 56q23 31 25.5 42t17.5 44v12q1 22 15 36t14 22t12 20l49 51v22q0 27 10.5 31t21.5 19q11 16 13 24.5t2 48.5t-19 72t-37 60t-28 105t-10 85
v14q0 13 4 29l115 115q16 16 41 16t66 10q99 -11 119 -46t20 -136v-23q0 -45 -10 -78t-16 -38q-5 -4 -10 -19.5t-10 -34t-9.5 -35t-4.5 -42.5t-32 -52q0 -23 4 -53.5t30 -56.5q23 -18 9 -43l55 -94q20 0 31.5 -14.5t7.5 -30.5h6q6 0 36 14t50 27q23 10 41 -0.5t18 -34.5v-4
l2 -11v-8q0 -50 -30 -78q-16 -20 -39 -30l-4 -4q9 -18 28 -31q35 -37 40 -83.5t5 -82.5t-13 -46q-25 -18 -65.5 5t-46.5 78q-20 35 -35.5 50t-45.5 38q-40 -36 -78 -55q-78 -24 -100.5 -44t-37.5 -36t-36 -11l-19 -18q-16 -16 -33 -14q-23 -23 -49 -9q-4 -4 -37 -4t-51 9
q-18 -16 -40.5 -7t-22.5 35v8l2 17h2q-23 18 -23 51z" />
    <glyph glyph-name="quotesingle" unicode="'" horiz-adv-x="223" 
d="M27 1190q0 80 67 80q35 0 47.5 -8.5t34.5 -30.5q5 -56 -12 -82q-2 -2 -2 -22t8 -33t8 -31v-10l-2 -43q0 -15 12 -43t11 -52q0 -24 -11.5 -35.5t-43.5 -11.5t-54 11q-32 32 -40.5 83.5t-8.5 57.5v86q0 40 -14 70v14z" />
    <glyph glyph-name="parenleft" unicode="(" horiz-adv-x="380" 
d="M324 1462q54 0 53.5 -38t-20.5 -97.5t-42 -83.5q8 8 2 -4q-11 -63 -34 -96l-33 -131l-10 -23l-12 -16l-5 -6v-58q0 -15 -18 -51h2q-11 -26 -23 -18q15 -15 9 -27l-15 -76l-7 -31q-7 -32 -7 -36v-60q0 -59 -14 -75v-306q30 -54 30 -79v-54l60 -94q25 -11 47 -55
q20 -20 11 -43t-38 -23h-100q-16 0 -26.5 10.5t-12.5 24.5q-27 11 -46.5 72t-19.5 67l2 31v14q0 -4 -5 8q-11 25 -11 58t-25 61l-4 21l-2 71v144q0 144 17 229q0 11 14 39v43q0 31 22 66v-2q4 6 7.5 11t3.5 1v14l-2 49q0 66 34 123q2 4 6.5 6t4.5 11v43q0 29 20 47
q16 72 34.5 119t55.5 88l11 22q16 35 36 62.5t50 27.5z" />
    <glyph glyph-name="parenright" unicode=")" horiz-adv-x="462" 
d="M195 1151q-33 20 -33 41q-45 45 -45 65v13q0 -3 -82 41q-14 6 -20.5 20.5t-0.5 28.5q-4 8 -4 22v9q0 20 16.5 43.5t41.5 23.5l30 -26q20 8 38 8q17 0 28.5 -11.5t11.5 -21.5t4 -14h-4q10 -4 18.5 -6.5t18.5 -13.5t24.5 -39.5t18.5 -45.5q0 2 4 -2v2q10 -16 22.5 -35.5
t16.5 -42.5l6 -12q0 -8 -12 -8q23 -4 32 -22.5t-1 -34.5q16 -23 39.5 -52t25.5 -41t8 -36l2 -23q0 -6 2 -8l5 -15q14 -23 14 -53v-47q14 -63 14 -110v-64q0 -10 8 -33t9 -78q0 -55 -17 -94v-35q0 -16 -11 -44t-14 -38t-6 -14v-45q0 -32 -34 -57q-4 -8 -4 -16.5t-3 -12.5l3 2
q-10 -44 -31 -59q-59 -116 -97 -153q-39 -37 -43 -51q-10 -32 -38 -32h-76q-10 0 -21.5 8.5t-15.5 18.5l-12 31l37 51q9 0 61 49q6 10 23 36q18 26 28 54t16.5 40.5t12.5 27.5h-2q39 79 76 180v4l-2 43q0 31 18 78l-1 13q-1 12 11 32q-12 24 -12 47l2 29q-25 229 -40 266
t-41 94t-25 90l2 29v6z" />
    <glyph glyph-name="asterisk" unicode="*" horiz-adv-x="780" 
d="M174 6q-23 0 -33 16.5t3 47.5t42 55q20 43 62 98v-2q10 16 25.5 40t31.5 58q-10 -4 -20 0h-9q-2 1 -5 3q-3 3 -40 -15h-176q-23 0 -39 24.5t-16 43.5q0 69 24 69h146q6 15 22 15t17.5 -1t5.5 -1q-55 35 -98 75.5t-43 69.5q8 35 27.5 44t56.5 9t48 -13t21 -46q0 -2 -2 1
t-2 1q8 -8 14.5 -1t28.5 1l33 -8l33 -23q0 -2 2 -2v6q0 102 -31 205q0 31 56.5 38t76.5 7q0 -8 4 -38t-2 -56l4 -4q27 -49 27 -76v-18l49 84q6 9 18.5 34t23.5 43.5t25.5 32t41 13.5t41 -32.5t14.5 -56.5q0 -47 -37 -47l-10 -41q-8 -35 -19.5 -67.5t-46.5 -71.5l-10 -18l6 2
q4 0 8.5 -1t10.5 -1q-8 0 6 14l100 8q16 0 27.5 -11t11.5 -31t-16.5 -56.5t-36.5 -44.5l-51 -19q12 -20 29 -37t9 -41t-36 -24l-21 -2h-16q-35 0 -68 12q12 -115 13 -227q0 -16 -11.5 -27.5t-38.5 -11.5q-46 0 -82 29q-10 20 -10 26v69q0 69 2 89q-30 -53 -30 -67t-13 -27
q-16 -12 -16 -39q-15 -61 -47.5 -70.5t-67.5 -9.5l-24 2h-23z" />
    <glyph glyph-name="plus" unicode="+" horiz-adv-x="673" 
d="M577 641q52 0 52 -39q0 -28 -6 -55l-27 -45q-111 -37 -197 -37l-34 -12q-2 -4 -3 -7l13 -262q2 -16 -9.5 -27.5t-27.5 -11.5h-57q-16 0 -27.5 10.5t-11.5 26.5v267q-38 0 -70 4l-59 6q2 -2 -7.5 -4t-15.5 -4t-13 -5.5t-17.5 -3.5t-22.5 9q-23 -18 -46.5 -5t-17.5 41
l21 93l14 18q11 16 33 16h10l19 2l12 -2h10q23 0 47.5 -15t46.5 -19l27 12l25 -2l2 -2q0 -2 2 -4v188l-11 19q-14 20 -2.5 38.5t35.5 18.5h96q10 0 32 -19.5t22 -36.5q0 -16 -14 -26t-17 -10q10 0 14 4l2 -35v-10q0 -20 -10 -34q-10 -15 -10 -26v-16q-4 -18 -12 -18
q2 -2 10 -3h82q-4 0 13 12t36 3q40 8 69 8z" />
    <glyph glyph-name="comma" unicode="," horiz-adv-x="206" 
d="M57 -254q-39 0 -39 54t7 73q0 19 9 69t14 64t3 31l-2 2q-24 10 -24 37v74q0 16 35.5 35.5t36.5 19.5l32 -6q40 -32 52 -53.5t12 -65.5l-3 -41v-14l-8 -41q-19 -116 -43.5 -177t-81.5 -61z" />
    <glyph glyph-name="hyphen" unicode="-" horiz-adv-x="604" 
d="M100 745q43 0 84 -12l-2 2q4 0 6 -2q10 15 31 15h100q8 8 19 8h10l43 -2h6q20 20 76 20l25 -2h22q16 0 26.5 -11t10.5 -38.5t-33 -67t-65 -39.5l-117 -12h-8q-12 0 -19 2q-21 -20 -59 -20q-39 0 -92 10q-54 10 -61 10l-54 -2h-12l-39 39q0 47 29.5 74.5t72.5 27.5z" />
    <glyph glyph-name="period" unicode="." horiz-adv-x="256" 
d="M159.5 164.5q41.5 -32.5 41.5 -45.5q0 -41 -12.5 -52.5t-26.5 -19.5h2q-8 -4 -12 -11t-23 -11h4q-47 -24 -73.5 18.5t-26.5 76.5t12 46q31 31 52 31t62.5 -32.5zM133 25l8 4q-4 -4 -8 -4z" />
    <glyph glyph-name="slash" unicode="/" horiz-adv-x="604" 
d="M539 1401q39 0 39 -56q0 -33 -10 -49t-9 -20v-4q-6 -24 -6 -54q0 -53 -39 -53h-8q18 -6 -1 -79q-18 -73 -26 -91l-151 -454q-2 -26 -6 -36t-3 -19q0 -9 -16 -41t-43 -134q-27 -101 -65 -168q0 -51 -43 -139q-4 -4 -5 -8l5 6l2 -12v-17q0 -24 -28.5 -77t-33.5 -19
q0 -61 -4.5 -52t-4.5 22l-11 -29q-8 -16 -26 -20.5t-40 12.5t-22 59q0 41 7 62t7 63l33 123q19 58 32 67t17 -2q-4 20 3 27.5t7 11.5v29l10 26q-2 10 15 39h-2q2 0 3 9.5t3 5.5q3 43 35 73l10 17l16 100q12 30 15 39l2 33l45 96q0 4 2 14.5t9 50.5t16 49t11.5 13t4.5 2v47
l32 74q12 29 24.5 56.5t12.5 42.5t6 28v27q0 26 25 51q2 2 6 0v49q2 6 5 21.5t10 29.5q10 76 36 117t97 41z" />
    <glyph glyph-name="zero" unicode="0" horiz-adv-x="688" 
d="M375 1071q2 0 6 2q-20 4 -25 17l-22 -18q-21 -17 -21 -28q0 -35 -32 -38q6 -2 -1 -18t-26 -32q-2 -23 -6 -27.5t-15 -21.5h-2q-30 -45 -67 -137q-2 -29 -14 -64q-26 -78 -25.5 -169.5t18.5 -100.5q26 -67 33.5 -110t12.5 -58q5 -16 29 -49q24 -32 28 -43q0 4 10 0l12 -8
l24 3q6 1 17 6t35 5l14 17l48 34l28 66l-2 -12q16 32 34.5 47.5t18.5 77.5v10q1 26 13 45q12 20 14 22v3q-16 32 -16 40l18 170q2 16 17.5 49t25.5 56q-20 -12 -51.5 30.5t-44.5 100.5h6q-28 7 -39.5 27t-21.5 43v18q-23 18 -33 45h2zM-18 490v42q0 38 7 64t7 33v92l31 145
q4 4 12 14.5t17.5 19.5t15.5 15.5t8 6.5l8 43q0 9 12 21t19 52q32 24 50.5 54t18.5 36q25 42 25 31q0 20 17 32t34 31q18 19 31 34.5t31 15.5t24 -6q20 6 58 6q88 0 104 -51q2 -33 -8 -43q0 -5 6 -17q-2 -4 2 -8t0 -6q25 -25 47 -76q10 -8 16 -20l13 -27l24 -41v-20
q6 -30 16 -62t11 -55v-35q14 -74 14 -266q0 -44 -14 -72q0 -14 10 -25t3 -34t-34 -25l-6 -47q-2 -8 -4 0q-4 -20 -9 -48q-9 -54 -28.5 -84t-121.5 -151q-6 -12 -29 -12h-8q-25 -29 -57 -29h-68q-36 0 -62 13h-12l8 10q-10 -4 -21.5 -4t-33.5 16t-14 21q-18 -4 -30.5 7
t-12.5 31t-25 38q-37 37 -37 65l2 33v6q-2 -2 -4 2l-22 43q-3 13 -7 25t-5 24t-3 20t-4 16.5t-4 16.5l-4 21q-5 32 -9.5 48.5t-4.5 19.5z" />
    <glyph glyph-name="one" unicode="1" horiz-adv-x="311" 
d="M100 76q0 20 9 30l-9 21q-2 8 -3 18.5t-13 26.5v27l2 247q0 220 -1 236t-2 33.5t-5 40.5q-10 8 -10 24v107q0 18 14 28l-6 39q-8 58 -8 130t41 118.5t71 11.5l23 -18q10 -41 10 -113v-41l-2 -30v-45l1 -21q1 -20 6 -56t6 -52.5t2 -19.5l5 -38v-84l2 -231l-2 -232v-73
q31 -73 31 -117q0 -43 -11 -54.5t-28 -11.5q-123 31 -123 99z" />
    <glyph glyph-name="two" unicode="2" horiz-adv-x="661" 
d="M572 180q62 0 63 -103q0 -57 -39 -57l-23 -2q-8 -2 -11 -2h-14q-13 0 -29 -10t-59 -10q-42 0 -59 20q-155 5 -225 37q-34 12 -60.5 66.5t-31.5 101.5q-33 -20 -28 10t67 123q23 25 39 19q0 18 -6 33q68 93 120 229v-4q12 47 31 87t35 75l23 53q30 102 30 119v63
q0 17 13 27h2q-5 12 -48 12h-12q-80 0 -112 -18.5t-50 -29.5t-27 -23t-21 -30t-26 -34.5t-34 -16.5l-14 3l-29 -13q-25 -10 -42 7.5t-11 34.5t9 32.5t13 63.5t35 59l125 90h285q30 0 75 -74t34 -94t-19 -31v-41q-8 -108 -103 -288q-39 -123 -71 -183l-23 33q11 -57 -8 -100
q-12 -57 -28.5 -68.5t-26.5 -11.5q6 -6 -4.5 -32t-17.5 -45t-15 -37t-8 -22.5t-3 -9.5v-4q12 12 23 15q31 0 96 -37q9 18 31 18h121q20 0 33 -20v-2l2 2q9 20 33 20z" />
    <glyph glyph-name="three" unicode="3" horiz-adv-x="696" 
d="M264 0q-29 0 -41 18.5t-23 35.5t-15.5 26.5t-12.5 12.5t-13 15.5t0.5 34t35.5 21.5h14l12 2q31 0 57 -18t33 -19q36 0 80 12l68 107q6 6 12 18l25 23l10 10q10 27 10 90t-8 79.5t-30 16.5q-58 0 -99 -43q-12 -12 -29 -12l-86 -16q-16 0 -27.5 10t-11.5 27v86q-1 22 25 35
t74 61q94 137 102 209.5t8 113.5l-2 52v30q-16 16 -30 44t-44 42q-12 21 -110 13h-10q-30 -18 -73.5 -56.5t-53.5 -46.5q-8 -29 -20.5 -55.5t-41.5 -32.5q-49 0 -57 26.5t-8 74.5v12q0 95 90 151t184 56l59 -2h17q14 0 91.5 -37.5t94.5 -73.5q33 -77 45 -168q4 -16 6 -36.5
t7 -58.5t-13 -76q-19 -37 -24 -71q-7 -14 -9 -26l-12 -41q-8 -14 -18 -24t-10 -1l-11 -22v-2q0 -2 -1 -3t-1 -3q20 8 33 8q66 -23 100.5 -64.5t46.5 -144.5q3 -104 -34 -172q-4 -6 -8.5 -15.5t-16.5 -24.5t-31 -58q-23 -14 -57.5 -63t-50.5 -54l-49 -15q-72 -20 -105 -20
l-35 2h-8z" />
    <glyph glyph-name="four" unicode="4" horiz-adv-x="696" 
d="M150 428q-4 0 -5 2q0 -2 -2 -4zM10 1214q0 58 133 58h9q16 0 27 -11.5t11 -27.5v-242q4 -4 9 -18q10 -14 10 -27l-4 -20l-25 -21q-2 -4 -2 -8v-2l2 -25v-22l-18 -68v-67q0 -19 -7 -32t-7.5 -15t-2.5 -2v-27q13 -63 13 -64h6q21 8 29 13l-15 -25q39 47 47 47h13l36 -2
q0 2 2 2l30 12q30 11 50 11t33 -4l88 6q8 2 21 -2q-13 43 -13 78v14q0 10 17 33v125q-19 19 -19 63l2 35v2q-22 66 -22 76v112q0 27 38.5 52.5t70.5 25.5q52 0 53 -39v-60q0 -61 2 -101l2 -144l-2 -174v-67q27 -23 50 -55.5t23 -56.5q0 -39 -57 -58v-463q0 -18 -13.5 -30.5
t-31.5 -8.5h-4l-7 2q-21 0 -53 58.5t-32 78.5v348l-152 4q-29 -12 -51 -16l-115 -29l9 6q-38 -24 -52 -24h-2q-10 -18 -33 -19h-16q-21 0 -35 21l-22 43q0 8 -13 37q-38 38 -38 69q0 7 10 27l18 16l-18 27l22 55q-3 8 7 97.5t12 119.5v31q-6 4 -6 25l4 24q-4 8 -4 43v31
q0 19 24 43q-8 12 -8 34t2 29q-35 5 -35 43z" />
    <glyph glyph-name="five" unicode="5" horiz-adv-x="675" 
d="M123 623q-1 1 0 2h-4zM555.5 317q-15.5 -51 -61.5 -120q-42 -41 -60 -69t-36.5 -49.5t-49.5 -31.5q-13 -23 -67 -43l-21 -6q-12 -12 -50 -12q-94 0 -127.5 40.5t-33.5 149.5l37 39q43 0 55.5 -19.5t18.5 -45.5h-2q2 -6 5 -20.5t7 -14.5l45 -4q4 0 28.5 15t47.5 38
q39 28 50 44t19 34l11 18q12 23 18 23q18 8 32.5 85t18.5 89q0 63 -35 96.5t-50 35t-30 3.5t-34 4t-29 12l-14 -16q-82 -3 -131 31h-2q-33 0 -52 45h-2l-34 12l-11 27q-27 49 -30.5 85t-3.5 58v9l1 31l3 60q0 20 16 31v25q24 65 76 92l10 2q2 14 12.5 23.5t22.5 9.5
q12 23 43 16q10 16 28.5 17t28.5 -13q35 25 61 25t47 9t50 9h63q4 0 10 2t11.5 3t19.5 6q15 5 63 5t79.5 -10t31.5 -53q0 -94 -75 -94q-7 0 -37 12l-27 -12q-6 0 -13 2t-15.5 3t-16.5 6t-18 5l-21 -16h-37q-6 -1 -26 -17t-49 -16l-37 2q-91 -23 -115.5 -59t-24.5 -134v-55
q86 -32 117 -57q16 32 41 39.5t25 -21.5l6 -6q56 -10 90 -30q33 -21 36 -21t3 -2v-2h-4q2 -4 11.5 -9t25.5 -19t35.5 -32t19.5 -36q18 -36 18 -124t-15.5 -139z" />
    <glyph glyph-name="six" unicode="6" horiz-adv-x="794" 
d="M580 618v48q0 8 -25 22l-6 -6q-10 -4 -21.5 -13.5t-21.5 -13.5l2 2q-37 -23 -56.5 -35t-33 -25.5t-25.5 -53.5q-47 -82 -60.5 -151.5t-13.5 -143.5v-41q38 19 57 31t30.5 19t16.5 12t17 10q-4 2 0 4t9 6l18 22q11 15 35 29v20q0 58 63 89q2 4 3 10t5 12v-2q7 14 7 8v6
l-2 29q0 31 12 43q-10 45 -10 63zM180 352l19 6q-15 -2 -19 -6zM164 283v36q0 25 16 31v64q0 72 43 102v16q0 58 33 86q2 4 2 31q6 6 50.5 55.5t82.5 75.5q33 16 72 29.5t74 26.5l32 10q41 0 72 -26.5t31 -31.5v-16q2 10 12.5 10t30.5 -20q2 -12 5 -20q6 -16 8 -28t12 -24
t10 -37q0 -24 -4 -64t-13 -63q-8 -22 -16 -45l-6 -22q-6 -20 -11.5 -40t-13.5 -36q12 -15 12 -33t-13 -35.5t-38 -17.5h-12q-8 -20 -17.5 -35.5t-13.5 -25.5q-27 -41 -41.5 -50.5t-34.5 -16.5t-49 -24l-16 -18q-16 -16 -31.5 -30.5t-46.5 -18.5q-17 -20 -41 -24t-33.5 -6.5
t-9.5 -15.5t-11 -24.5t-28 -11.5h-26q-15 0 -31 16l-86 86q-38 15 -45 29q-32 41 -78 135v35q0 35 2 35q-18 12 -18 33v237q0 15 8 23t16 53t19 94l18 92q6 19 20 46t25 83q14 23 13 24t6 28t32 61q6 50 21 72l20 24v-2q0 -2 1 -4t1 -4q0 8 5 16t8.5 16.5t15.5 20.5t28.5 11
t26.5 -14q21 -27 30 -62.5t9 -42.5q0 -48 -29 -72q-6 -10 -18 -12q-4 -10 -9 -20.5t-9.5 -21t-8.5 -19.5t-4 -13l2 -35v-10l-55 -35q29 -14 33 -18q-2 -10 -4 -25.5t-11 -32.5l-28 -22q6 2 6 -14.5t-4 -32.5v-27q0 -18 -8 -32q-8 -13 -9 -15v-78q0 -18 -14 -47
q-14 -30 -16 -40t14 -59t16 -67t-10 -33l10 -18l-2 -19q19 -19 19 -36z" />
    <glyph glyph-name="seven" unicode="7" horiz-adv-x="692" 
d="M-25 1139q0 33 121.5 57.5t241.5 24.5q8 0 18 -7q14 23 35 23q86 0 141.5 -33t96.5 -110q24 -82 24 -131t-7 -64.5t-15 -32t-10 -26.5q-3 -10 -7 -34t-6 -43.5t-8 -31.5l-43 -20q20 -8 23 -9l-2 -22q-3 -23 -13 -33l-18 -26q-21 -21 -31 -95q-2 -10 -1 -15t-5 -30
q-5 -51 -55 -133q-11 -22 -13 -58t-26 -48q-23 -99 -51 -158l16 14l-6 -41q-23 -98 -63 -98q-36 0 -60.5 33.5t-24.5 55.5t11 73q-10 24 0 47t24 51t14 52t23 53l14 57q11 102 45 156q8 12 29 16q-12 3 -9 23t4 39.5t17 35.5l15 33q0 61 43 61q-12 18 -13 48q37 75 72 196
q0 20 6 35q-5 30 -31.5 50t-105.5 32q-11 0 -25 -7t-20 -9.5t-8 4.5q-29 -16 -62.5 -13.5t-56.5 -3.5l2 2l-14 -4l-47 -20q-179 0 -179 84z" />
    <glyph glyph-name="eight" unicode="8" horiz-adv-x="763" 
d="M266 510q-2 0 -7 -4t-17 -10t-11 -3l-14 -36q-33 -76 -33 -92v-148q0 4 11 0q12 -12 28.5 -33t9.5 -6l15 -14q33 -33 47 -35q33 -5 111.5 38.5t123.5 104.5q12 12 19.5 90t7.5 107t-20 38t-43 32q-13 18 -31 23t-31.5 8.5t-25.5 15.5t-14.5 18t-6.5 8l-27 -14
q-6 -38 -54 -62q-16 -8 -24 -16t-10 -9t-4 -1zM230 5.5q-22 7.5 -62 43.5l-2 4q-38 28 -42 55q-5 27 -24 39l-14 31q0 -14 -4 -9t-26 27t-23 46l2 129v28q0 42 53 132t82 90h6l21 26l4 4q4 9 12 19t10 14t6 6l-10 6h-33l-26 17q-53 33 -58 57q-10 10 -33 43t-36 33
q-32 0 -41 33l-19 84q-4 18 8.5 32.5t30.5 14.5v20q2 -2 4 -2h4q-29 10 -28.5 37t28.5 37q12 5 27 20q10 14 16.5 22.5t32.5 8.5v-2q17 34 47 39l37 -2q37 7 99.5 29.5t82.5 25.5q20 2 48 -18h114q10 0 21.5 -8.5t15.5 -16.5q-4 7 31 -16l-2 2q92 -45 92 -94
q0 -16 -11.5 -27.5t-27.5 -11.5l-25 1l-94 5q-16 0 -39 18h-59q-45 0 -115 -20l-49 -13q-121 -40 -121 -65h4q17 -17 17 -39l-2 -22v-3q24 -8 88 -56t96 -64l21 32q35 35 102.5 52.5t83.5 17.5t26.5 -11.5t10.5 -35.5t-6 -45q-2 -27 -28 -43.5t-54 -30.5h2l-19 -10
q41 -19 140 -94l22 -19q10 -10 10 -23t15 -42l-2 2q24 -55 24 -72q0 -16 2 -22l13 -78q-24 -198 -115 -244q-55 -28 -82 -68q-15 -5 -33 -14q-33 -35 -64.5 -42t-96.5 -7q-64 0 -86 7.5z" />
    <glyph glyph-name="nine" unicode="9" horiz-adv-x="786" 
d="M135 688q0 -25 4 -36t31 -11l96 43l6 2l37 29q4 4 6 7t7 5q14 33 38.5 52.5t57.5 41.5v-2q10 8 21.5 15.5t21.5 17.5q9 26 65 68q16 14 36 28.5t29 26.5q23 30 50 12q45 -23 70 -145v-559q0 -83 -32 -205.5t-38 -122.5q-14 0 -40 18.5t-26 40.5l7 750q-6 -4 -7 -10
q-10 -14 -29.5 -40t-70.5 -61q-33 -41 -90 -63h-2q-11 -6 -35 -28.5t-29 -26.5l-34 -5q8 -4 10 -4t4 2q-19 -49 -44.5 -48t-35.5 12q-35 -15 -76 -15t-61 4q-14 8 -24.5 10.5t-25.5 10t-30 43.5q-14 36 -20.5 51.5t12.5 19.5q-12 2 -22.5 14.5t-8.5 28.5l10 64q2 4 3 10
t6 10q-14 16 -5 40t35 24h17q6 0 12 2v43q0 9 43.5 76.5t62.5 77.5q6 4 32 17t36 19l12 21q0 16 45.5 49t51.5 33h20q11 28 43 31q55 51 133 51q2 0 12 4t20.5 5t19 3t18.5 3q19 2 78 -39.5t59 -57.5l-16 -82q-6 -31 -37 -31t-40.5 14.5t-17.5 26.5t-12 19.5t-6 7.5
q-26 0 -51 -10h-2l-21 -7q-28 -32 -100 -61l-31 -12q-2 -4 -12 -8.5t-14.5 -4.5t-10 -19.5t-30.5 -37.5l-27 -37q-10 -23 -23.5 -30t-33.5 -12t-23 -15q-34 -70 -65 -103l2 -18q0 -10 -5.5 -18.5t-9.5 -16.5q-6 -6 -6 -2z" />
    <glyph glyph-name="colon" unicode=":" horiz-adv-x="256" 
d="M159.5 164.5q41.5 -32.5 41.5 -45.5q0 -41 -12.5 -52.5t-26.5 -19.5h2q-8 -4 -12 -11t-23 -11h4q-47 -24 -73.5 18.5t-26.5 76.5t12 46q31 31 52 31t62.5 -32.5zM159.5 668q41.5 -34 41.5 -45q0 -41 -29.5 -71t-55.5 -30q-39 0 -61 37t-22 65t14 48q36 30 54 30
q17 0 58.5 -34zM133 25l8 4q-4 -4 -8 -4z" />
    <glyph glyph-name="semicolon" unicode=";" horiz-adv-x="206" 
d="M159.5 668q41.5 -34 41.5 -45q0 -41 -29.5 -71t-55.5 -30q-39 0 -61 37t-22 65t14 48q36 30 54 30q17 0 58.5 -34zM57 -254q-39 0 -39 54t7 73q0 69 14 108t12 56l-2 2q-8 4 -16 15.5t-8 21.5v74q0 16 35.5 35.5t36.5 19.5l32 -6q40 -32 52 -53.5t12 -65.5l-3 -41v-14
l-8 -41q-19 -116 -43.5 -177t-81.5 -61z" />
    <glyph glyph-name="less" unicode="&#x3c;" horiz-adv-x="686" 
d="M2 347.5q-18 39.5 -18 66.5t32 59q12 16 27 45l29 57q17 21 59 50q8 16 13.5 29.5t15.5 24.5t27.5 27.5t36 35t38 34t31.5 25.5v30q0 16 10.5 27.5t26.5 11.5t37 17q83 14 85.5 -30t0.5 -60v-17q-73 -73 -86 -73h-11q-2 0 -5 -7l-38 -77q-10 -25 -37 -21q0 -25 -16 -36
t-24 -11h-7l9 -4q-10 -12 -14.5 -23.5t-24.5 -15.5q-16 -39 -45 -68v-90q5 26 77 -11.5t72 -63.5q0 -21 18.5 -21t12.5 -2q41 -8 94 -35.5t111 -56.5q17 -17 20 -31v6l2 2l-6 6l20 -16q35 -23 48.5 -37t13.5 -38t-11.5 -36t-27.5 -12l-55 8q-59 15 -118.5 48.5t-74.5 46.5
l-233 114q-37 7 -64 58q-33 25 -51 64.5z" />
    <glyph glyph-name="equal" unicode="=" horiz-adv-x="749" 
d="M455 590q-41 -8 -55 -8h-74q-6 -2 -15 -2h-22q-57 0 -108 8t-70 8h-33l-49 37q0 51 28.5 76.5t71.5 25.5t88 -12q12 16 35 16l211 -18q8 8 16 8h10l43 -2h7q18 18 75 18h11q29 0 54.5 -7t25.5 -46t-31 -60.5t-84.5 -37.5t-89.5 -16q-37 0 -45 12zM49 381q-23 0 -33 18
l-22 41q-4 6 -4 20t12 34t35 20h426q10 2 24.5 6t18.5 5l28 5q23 5 36 5t32 -19q-2 -2 -4 -2h18l29 2q27 0 53.5 -16.5t26.5 -46.5t-19.5 -69.5t-43.5 -39.5h-134l-36 25q0 -2 2 -4q-26 13 -29 16h-416z" />
    <glyph glyph-name="greater" unicode="&#x3e;" horiz-adv-x="780" 
d="M150 6q-37 0 -37 52q0 28 15 48.5t46 51.5l14 26q7 11 62 54l-2 -5q18 15 40.5 37.5t49.5 48t49.5 49t32.5 33.5l26 13h8q7 0 13 4q13 32 51 53h2q-2 0 -1 -1t3 -1l2 2l-2 1q0 1 3 4t10.5 11.5t18.5 15.5t34.5 18t31.5 17t8.5 4.5t0.5 0.5l-160 80q-15 0 -24 4t-14 6
t-12 6t-20.5 9t-23.5 11l2 -2q-20 10 -15 11l-24 10q-8 -5 -35 5v-1q-53 20 -70 33q-23 4 -50 9l-54 10t-55 8t-37 24q-10 21 -15.5 54.5t-5.5 42.5t10.5 20.5t23.5 11.5t42 -24.5t51 -49.5q0 43 33 43t127 -47l33 2q31 -16 76 -26t92 -29l10 -10q36 -8 103 -45t77 -47
q41 -31 52.5 -53.5t11.5 -78.5t-11.5 -68t-16.5 -16t-15 -9t-20.5 -12t-20.5 -13t-12 -9v-6q0 -4 -2.5 -6t-4.5 -6l-18 -29q-25 -8 -33 -8t-11 -3t-17.5 -13t-43 -34.5t-30.5 -29.5l-43 -24l-10 -8q4 2 -28 -41.5t-81 -55.5l-123 -123q-10 -10 -27 -10h-40z" />
    <glyph glyph-name="question" unicode="?" horiz-adv-x="550" 
d="M94 66q0 59 36 81.5t73 22.5l22 -2q27 0 37 -20.5t-10 -48.5q-53 -72 -119 -72q-16 0 -27.5 11t-11.5 28zM82 467v8q0 23 16.5 34t36.5 3l43 -23q-10 18 -1 28.5t20 19.5l20 14q31 23 56.5 42t57 58.5t83.5 175.5v4q-2 18 -4 39t-9 41l-53 27q-28 -28 -85 -32
q-57 -3 -72 -15t-35 -31l-19 -18q-29 -2 -51.5 3t-36.5 8t-22.5 5t-17.5 2t-20.5 11.5t-11.5 27.5v51q0 39 39 39q13 0 43 10l23 9q57 10 112.5 24.5t106.5 48.5q40 6 64 -16q-8 4 -11 4q4 -4 11 -4q2 -4 4 -5t4 -3l-6 8q6 -2 18 -2q66 -15 76 -21h2q48 -48 61 -106.5
t13 -75.5t-19 -49q-10 -152 -112 -258l-16 -17q-17 -16 -43 -41.5t-35 -35.5t-20 -10q-13 0 -47 -27.5t-42 -48.5q0 -31 9 -41t16.5 -16.5t7.5 -25.5t-12.5 -42t-45.5 -23q-68 0 -85 12.5t-21 47.5v14q-33 38 -33 70l3 5l9 32q0 41 33 49q-2 4 -2 12z" />
    <glyph glyph-name="at" unicode="@" horiz-adv-x="1335" 
d="M399 496v-58q0 -57 9 -57q29 0 34 -25h54q6 0 8 -2q10 10 28 11t78 49q-4 14 1 25t31 30.5t48 22.5q-3 0 3.5 10t11 14t7.5 9t5 8.5t11 10.5t13 29q-12 30 -12 31v80h-72q-48 -21 -92 -29q-16 -10 -51 -20l-22 -10h-21q-6 -14 -18 -37t-22 -47q-9 -23 -16 -27l-14 -8
q-2 -8 -2 -10zM598 1030l-37 12q-22 -22 -37 -28h-8l-12 2l-26 -24q-26 -23 -42 -23t-16 -2v2q-106 -106 -139 -154v-2q-20 -8 -58 -27q12 -12 15 -38q-9 -15 -22 -40q-13 -26 -14 -29l-26 -42v-47q0 -10 -20 -60q-13 -63 -13 -159v-43q5 -24 -10 -39q27 -54 27 -88v-25
l-2 -26q47 -33 47 -68v-14q17 -45 90 -113q0 4 12 2l12 -6q27 -4 32 -8.5t27 -14.5t51 -10q30 0 63.5 1t103 8.5t73 26t29.5 26.5q54 14 168 116q91 45 127 117l13 4h-9q-42 21 -60 21t-28 20q-2 10 -20.5 14t-30.5 21q-25 14 -24 47v10q-31 53 -27 64q-18 -34 -62 -68
l-20 -20l-4 -11l-12 -18q-51 -51 -172 -80q-4 -2 -13 -2q-14 -18 -41 -10q-15 -25 -43 -15q-28 9 -59 52h-39q-16 0 -26.5 11t-10.5 27t-2 15q-20 0 -31.5 13.5t-7.5 29.5q-31 35 -31 64t19 80.5t51 97.5l-24 -7q1 33 33 65t38 54q10 37 41 37l-10 -8l19 8q19 8 43.5 37
t62.5 29h8q12 12 45 26l29 17q23 8 45 -9q25 11 100 11h19q37 0 40 -14.5t9 -16.5q27 -27 35 -43l36 -23q18 -14 37 -27.5t31 -39.5q6 -39 -13 -66q-19 -26 -20 -31t27 -100q10 -10 16 -25q6 -14 12 -20l12 -12q11 -12 21 -24t25 -25l6 -11l47 23q0 16 10.5 26.5t24.5 12.5
q-2 2 -2 14v39q0 107 -13.5 144.5t-29.5 70.5l18 -12q-39 32 -57 86q-14 4 -16 14.5t-2 26.5q-11 21 -60 55q-2 2 -6 4t-12 11l-15 8l-4 4q-13 7 -29 25t-24 26t-12 10t-41 26t-43 25h-31q-23 11 -80 29h-51zM-6 311l14 157v9l15 121q10 16 23 82.5t75 189.5l29 17l4 2l6 10
l4 4q20 48 78 101l12 12l31 45q16 16 27.5 19t18.5 5t7 -2q0 23 19.5 33t35.5 0q18 37 58 37q2 1 31 15t48 14t31 -6l6 2l-2 -2q48 24 69 24t38 -16q18 -16 16 -17l27 2h8q31 0 92 -47h6l74 -20q14 -17 46 -29t32 -37l-2 -8h6l-2 2q33 -14 51 -37q18 -22 29 -25t20 -22
l31 -26q10 -25 4 -19l36 -47q36 -46 45 -72t5 -34q31 -12 31 -43q14 -27 14 -56v-31q0 -23 15.5 -64.5t15.5 -53.5t-21 -25q6 -18 6 -46t-7 -42.5t-16 -28.5t-21.5 -33.5t-22.5 -37.5t-31 -23q4 -4 3 -5l-15 -19q-8 -14 -23 -21l11 -24l-21 14q10 -18 9 -48t-11 -52
q-7 0 -67 -54.5t-70 -64.5l-17 -6h5q-25 -15 -32 -21t-23.5 -18.5t-35 -26.5t-36 -27.5t-25.5 -15.5l-10 -12q-8 -4 -52.5 -35t-84.5 -31h-33q-7 0 -27 -14t-31 -14l-43 -2h-41q-89 0 -131 21q-87 44 -174 73l-20 20l-10 19q-4 0 -30 41q-25 41 -48 71l-17 58q-53 53 -53 71
t7 18q-5 25 -5 54v51q-14 35 -14 47z" />
    <glyph glyph-name="A" unicode="A" 
d="M322 911v-41q0 -30 -19 -49l2 -41q-14 -22 -16 -56t-13 -56q0 -38 -10 -88q44 19 59 22.5t23 11t38 7.5t87 22t117 29q-22 122 -33 188q0 51 -14 86l-27 109q-8 23 -13 36t-5 29q-24 70 -39 86q-51 -32 -65 -52q-13 -21 -34 -26q36 -4 22 -24q-13 -20 -18 -40t-11.5 -36
t-14.5 -45q11 -14 -12 -51q-4 -10 -4 -21zM186 51q-34 -98 -34 -233q0 -60 -39 -60q-20 0 -57.5 42t-37.5 48v314l39 39q-16 0 -24 -15v21q0 11 6 20t8 9v122q0 34 37 39q-4 4 -4 19h-6l-11 20q0 27 7 41t22 98v3q0 45 42 212t50 189q4 66 24 104q21 38 21 80v43q0 43 -4 62
q16 25 43 43t41 18t33 -18q8 2 24.5 4l33 4t30.5 4t32 2t37 -3t33.5 -9t25.5 -17.5t26 -25.5h-2l12 -15q18 -16 22.5 -33.5t12.5 -37.5l-2 2q4 -10 8 -17.5t-21 -23.5q18 8 35 -2t17 -29t-11 -41q11 -22 11 -27t4 -18.5t9 -34.5t11 -43t6 -39v-8l-2 -24q2 -8 7.5 -24.5
t9.5 -35l8 -37t6 -30.5l-2 4l18 -172v-9q4 -20 9.5 -37.5t5.5 -37.5v-94l16 -48q0 -66 8 -139t8 -133q0 -59 -30 -59q-23 0 -62 6q-33 20 -54 78.5t-21 71.5t7 63t31 59q-24 -10 -26 -10l-4 -2q-8 23 -8 45v49q-5 0 -7 8t-6 16.5t-4 24.5t7 27q7 12 9.5 19t2.5 32t-9 49
q-36 -25 -162 -65t-155 -76q-8 -12 -21.5 -15.5t-23.5 3.5q-7 -11 -25 -62l2 2q-43 -244 -43 -299z" />
    <glyph glyph-name="B" unicode="B" horiz-adv-x="909" 
d="M313 694q-86 0 -86 68q0 37 78 96q12 10 25.5 20.5t23.5 20.5q11 33 35.5 57.5t28.5 34.5l-2 -2q26 58 26 113t-9 86t-36 47q-23 -6 -58.5 -53t-51.5 -64q-9 -28 -19 -54t-20 -54t-22.5 -61.5t-24.5 -69.5v-9l2 -53q0 -41 -15 -61v-101q0 -4 -4 -12q10 -25 -8 -43
l-18 -18v-2v-30v-241v-57l10 -160l29 -31h43l65 2h10l54 19q31 12 67 26t68 27q76 51 104.5 92t46.5 82l13 27q0 86 -12.5 141t-16.5 75t-14.5 38t-17.5 22t-19.5 16.5l-15.5 15.5l-56 58q-78 31 -110 37q-60 -45 -93 -45zM-10 1182q0 51 38 69.5t48 18.5q43 0 55 -37
t14 -96q19 37 45 67l46 74q2 2 62.5 33.5t74.5 31.5h18q47 0 70.5 -3t40.5 -29q41 -12 52 -64.5t11 -124t-7 -112.5t-30 -88q-23 -23 -51 -58q149 -57 240 -182q20 -26 33 -39q6 -12 15 -21t9 -34t10 -41l10 -35q11 -35 11 -72q0 -94 -23.5 -185.5t-79.5 -123.5
q-38 -73 -131 -108q-34 -25 -49 -25l-55 2q-13 -26 -52.5 -39.5t-54.5 -15.5h7l-70 -13q-6 -2 -15 -2t-14 -2h-20q-123 21 -137.5 37.5t-20.5 26.5l-4 -4q-14 -4 -40 4t-42 43v74l2 188v183q0 182 -16 339q0 18 10 29q-2 6 -10 22v312z" />
    <glyph glyph-name="C" unicode="C" horiz-adv-x="823" 
d="M-6 549q0 53 16 141l15 125q0 34 13 76.5t21 56.5q6 23 37 33v8q0 35 33 39q-10 70 19.5 93.5t43 28.5t13.5 9t6 14.5t15.5 21.5t18.5 21.5t15 14.5l23 -2h4q10 49 53 49h16q17 0 23 -2q19 33 71 33t62 -35q6 0 27 11q22 11 38.5 2t20.5 -30v-8l2 -12v-10q32 -13 41 -56
q26 -16 35 -41h2q41 -10 41 -49v-14q14 -28 14 -68q0 -71 -76 -71q-33 0 -42 15t-19 35t-17.5 36t-23.5 39q-35 35 -35 57v8q0 4 1 6t1 6q0 -5 -47 11l-35 -2h-9q-9 0 -15 2q-47 -49 -99 -68l-12 -22q-6 -16 -9 -21.5t-6 -4.5t-7.5 3t-10.5 -1q-18 -9 -18 -34q0 -26 -23 -51
q-14 -20 -33.5 -49t-19.5 -51q-47 -132 -47 -248q0 -115 29 -166q6 -20 11 -36.5t8 -28.5t2 -13.5t3 -11.5q16 -8 18.5 -22.5t4.5 -24.5t0 -10l2 -2q25 -16 40 -41t23 -39q108 -66 154 -66h29q71 0 102.5 7.5t108.5 52.5l22 16q40 35 64 35q45 0 45 -39q0 -105 -40 -133.5
t-67 -28.5h-22l-47 -27l-19 -2l-2 -4q-12 -12 -27 -12h-233q-18 9 -29 20q-67 25 -73 31l-27 27l-23 10l-49 27l-18 41q-26 52 -45 71l-37 70q0 30 -19 100l3 -2q-29 103 -29 156z" />
    <glyph glyph-name="D" unicode="D" horiz-adv-x="964" 
d="M887 813q-4 4 -15 6zM2 1036l-31 209q0 39 39 39h45q35 0 42 -35t11 -71t5.5 -60t5.5 -43l2 10q0 20 20 35q30 87 52 107q68 82 111 107.5t136 25.5q18 0 84 -22.5t73 -26.5t57 -43q-12 10 -40 32q14 -10 39 -27t70 -63t61 -98q0 -2 -1 -10t-1 -12q2 2 12.5 -4.5
t14.5 -10.5q23 -62 30 -64.5t11 -11.5l24 -43q0 -12 -10 -28q27 -43 27 -56v-59q12 -12 13 -30.5t-11 -30.5q12 -16 12 -35q-2 8 -6 9t-11 -22.5t-7 -106.5t10 -148v-23q0 -24 -25 -55q-4 -8 -4 -2q-9 -22 -22 -31q4 2 4 -1t-3 -12t-6.5 -22t-14.5 -31q-30 -48 -82 -106
t-95 -68q-83 -80 -165 -80q-28 0 -48 19h-33q-81 10 -109 39t-3 57l14 17q17 17 43 6h37q37 0 43 4q41 0 86 24.5t49 28.5q57 11 82 40.5t39 58t35 69.5q38 41 57 151q4 29 -18 168v66q-13 26 -13 45v13l-16 77q0 19 -12 49l-17 64l6 -2q-24 24 -24 45q-24 30 -82.5 82.5
t-97.5 70.5l-41 13q-33 14 -54 16q-10 -10 -25.5 -24.5t-42.5 -40.5t-35 -38q-10 -15 -39.5 -80t-29.5 -77v-16q17 -17 17 -39q-9 -45 -37 -45q10 -2 11 -3.5t-3 -9.5t-2 -11t-6 -3q28 -28 23 -48t-19 -26q3 -17 18 -51q0 -48 -9 -78t-9 -88t9 -85t9 -50q-16 -32 -16 -51
t16 -49q0 -72 -16 -88q16 -64 16 -106q0 -47 -5.5 -127t-10.5 -52q0 -17 -31.5 -20t-33.5 -3q-62 32 -74.5 53t-13.5 38.5t-1 46.5l2 77v19l-16 332q0 23 -12 82l2 -3q-19 68 -35 185v276z" />
    <glyph glyph-name="E" unicode="E" horiz-adv-x="786" 
d="M393 475q-6 0 -28 -9t-46 -9t-28 2q-18 -15 -58 -15h-12q-11 -13 -39 -20v-176q0 -4 -4 -12q4 -16 4 -29v-25q13 -52 13 -67q6 6 32 6h4q8 10 17.5 13t13.5 5t10 2l28 2q29 2 67 9q-8 0 8 8t26 8h15q16 0 22 7t25 7h18q12 0 19 -8q54 47 108 72q18 -4 34 4
q62 33 79.5 18.5t17.5 -39.5t-5 -52t-36 -58q-25 -2 -92 -37h2q-49 -31 -63 -33t-51 -10t-83 -19.5t-87.5 -21.5t-55.5 -14t-29.5 1t-47.5 14t-66 1q-35 0 -58.5 36t-23.5 64l2 31v14l-12 52q0 14 2 20q-8 18 0 33q-8 35 -9 83t-8 66q1 -1 4 -1q-1 1 -4 1q0 10 -4 15
q0 -6 4 -15q-12 10 -29.5 28.5t-17.5 49.5q0 53 39 53q7 0 23 27l-2 18q0 20 4 31q-6 16 -6 52t10 61l-2 26v93q-10 16 -2 39l-2 10v117l-32 28q-32 28 -32 54t17 42v5l-2 16q0 33 14 43t35 18v11q0 16 9.5 27.5t27.5 11.5t43.5 -24t42.5 -54h161q-6 0 2 4l33 12l17 -2
q16 16 47 16h43q12 0 37 7l26 6l-12 -8q38 19 99 38t65 19q33 -10 53.5 -42t20.5 -58q0 -48 -38 -48t-79 -6q6 0 -2 -5q-40 -25 -66 -25l-33 2h-6q-75 -26 -88 -39q-12 -12 -25.5 -9t-33.5 13l2 -2q-2 0 -6 2l-33 -17q-47 -26 -74 -26t-84 12v-4q0 -29 -14 -43
q14 -28 14 -55v-52q12 -12 13.5 -29.5t-13.5 -29.5q2 -8 2 -11v-24q0 -35 -6 -59q25 -41 19 -73t-19 -58q4 -8 4 -20t-16 -25q32 24 24 24q8 0 21 11q16 6 24.5 10t23.5 8t30 4q16 0 24 -4q66 51 181 51l38 -39q0 -39 -37.5 -86t-60.5 -47h-41z" />
    <glyph glyph-name="F" unicode="F" horiz-adv-x="765" 
d="M-6 1118q-66 0 -66 71q0 36 2.5 40.5t20.5 24.5q17 20 34 19t27 -1h107q110 0 250 16q60 0 136 10t109 9q54 0 54 -39q0 -6 -9.5 -34t-15.5 -38q-16 -14 -47 -26.5t-42 -18.5q-11 -5 -25.5 -0.5t-18.5 5.5t-8 3q-10 -10 -23 -10h-262q2 -8 2 -35t-6 -45q8 -16 -2 -35
q8 -31 8 -108v-23q0 -49 -16 -69q16 -27 16 -69t-10 -58h16q61 0 79 12t26 12q11 19 48 27t46 12q11 0 40 14t44 15h8l25 -2l4 2q4 0 12 4l-2 -2q31 16 55 16q46 0 47 -38q0 -70 -53 -115q-16 -6 -54 -16.5l-76 -21t-67 -17.5l-30 -7h-51q-10 0 -20 -9t-21 -9l-43 -27
q-29 -20 -33 -12v-166l-6 -17v-47q0 -50 7 -84t7 -59l-12 -57q20 -20 6 -74.5t-61 -54.5q-13 0 -45 29t-39 46v39q-16 10 -17 31v117l4 4q-4 12 -4 16v281q0 8 8 24q-23 8 -23 42t40 79l-13 51q-2 16 -5 28.5t-7 29.5q0 31 17 49v285q-8 0 -23.5 -9.5t-48.5 -9.5z" />
    <glyph glyph-name="G" unicode="G" horiz-adv-x="964" 
d="M522 61q-44 -45 -64 -45t-28 4q-10 -4 -12 -4h-33q-60 -22 -77.5 -15t-27.5 12t-20 5t-20 11q-30 -5 -60 7q-30 13 -44 13t-25 10.5t-11 20.5t-12 17q-34 20 -53 44.5t-19 81.5q-4 10 -6 17.5t-22 43.5t-19 66l2 29q-2 8 -4 23.5t-7 39t-5 31.5l16 80v119q0 2 1 17.5
t2.5 44t11.5 85.5q14 14 14 33q72 213 111.5 290t121.5 132q23 10 46 -4q-2 4 -4.5 5t-2.5 3h7q2 0 19 6t50 17.5t49 19.5l176 -27q48 -4 90 -53t42 -96q0 -16 -11.5 -26.5t-27.5 -10.5l-41 4q-31 3 -86 47h2l-30 13q-30 14 -50 -1h-39q-16 -16 -35 -16h-12
q-10 -10 -20.5 -19.5t-30.5 -9.5h-21q2 -2 2 -6l-16 -30q-14 -37 -74 -97v2l-18 -16q-7 -18 -17 -78t-14 -70q-4 -9 -11.5 -16.5t-15.5 -17.5v-19q0 -34 -18 -43l2 -43v-16q-29 -167 -29 -193q0 -43 17 -104t34 -78q18 -35 25 -65q30 -43 115 -72q17 -14 68 -14t63 14
t22.5 19t24.5 12l-4 -5l37 17l6 2l51 51q6 6 23 14.5t34 47.5q28 17 34 58t34 95q16 4 26.5 20.5t24.5 44t39 76.5q2 20 11 30t10.5 13t7.5 9q0 22 -54 22h-12q-12 0 -22 -2l-23 -2q-15 0 -133.5 -18.5t-163.5 -22.5q-43 -16 -49 -16l8 8q-23 -4 -50.5 11.5t-35.5 38.5
q-17 49 17 58l20 15q25 23 53 30t38.5 6t21.5 -1q-6 -4 -6 -17q4 22 26 31q86 29 173 33t171 4q27 0 33 -27q69 -11 88.5 -26t38.5 -60q0 -118 -51 -176q-14 -45 -29.5 -92t-25.5 -81t-35 -38q18 -4 4 -18q-10 -16 -19.5 -34t-25.5 -30l14 27q-18 -27 -33 -39q4 4 4 20
l-16 -24q-2 0 -9 -12.5t-21 -33.5t-21 -36l-29 -25v2q-40 -29 -70 -58t-51 -24z" />
    <glyph glyph-name="H" unicode="H" horiz-adv-x="860" 
d="M745 293q-1 -30 17 -95t18 -118t-34 -53q-60 0 -74 10l-31 35l-16 284v35l2 127l6 14h-17l-112 -16h-23q-22 0 -41 6q-24 0 -24 6q-28 -28 -64 -28t-93 9t-66 9t-10 -1t-3 -1q13 -65 13 -80v-43q16 -72 16 -94v-41l14 -156q-6 -18 -32.5 -35.5t-33.5 -15.5q-24 7 -42 25
l-27 28l-16 68v31q-16 47 -17 110l2 84v17q-14 21 -14 37v20l-16 43l-7 10q-4 10 0 13q-20 -6 -33.5 4.5t-13.5 42.5q1 32 7 51t17 29t15 13t13.5 22.5t13.5 27.5t4 10l-2 22q-2 26 -5 48q-6 44 -7.5 70t-3.5 43v268q0 31 26.5 56.5t54.5 25.5q50 0 50 -39v-60
q-2 -14 -4 -69t-3.5 -85t-1.5 -48l19 -256l-2 -49l-2 -7h33l34 -2h17l37 -8q15 15 30 15h164q10 8 21 8h10l43 -2l7 -1q0 15 65 19q2 8 2 10v31q-17 110 -17 295v170q-12 14 -12 38t20.5 54.5t55.5 30.5t43 -27l30 -67v-7q0 -2 3 -2q29 -25 8 -43l-2 -4l-4 -94l-9 -16
q21 -35 21 -90l-2 -52v-10q-10 21 -21 21l37 -45v-7l-16 -172v-18q16 -64 16 -100v-136q0 -30 -16 -67l2 -35q0 -24 -17 -51z" />
    <glyph glyph-name="I" unicode="I" horiz-adv-x="376" 
d="M72 1247q0 37 39 37q61 0 77.5 -44t20.5 -107l2 -27l16 -629q18 -35 29 -82v-14q0 -7 -18 -55q31 -49 34 -72q0 -41 -18 -72q18 -25 18 -43q0 -34 -67.5 -73.5t-85 -21t-17.5 35.5v422l-10 78v600q-20 30 -20 67z" />
    <glyph glyph-name="J" unicode="J" horiz-adv-x="401" 
d="M221 604q-1 27 -23 112t-23 105q-1 21 -3 35t-4 29.5t-4 31.5t2 33l6 31v8l-4 17q-23 12 -23 34v105q0 23 25 33q-2 0 -2 3v31q0 39 43 39t66.5 -40t23.5 -72q0 -33 -3 -45.5t-6 -22.5t-3 -23.5t4 -33.5q11 -15 0 -37q51 -73 51 -142q0 -114 23 -227l6 -47q6 -38 -17 -55
l2 -25v-18l-14 -133q0 -17 -18 -29v-8q-6 -43 -19 -70q-34 -73 -114.5 -152t-180.5 -79q-16 0 -27.5 11t-11.5 28q0 104 131 131q43 23 66 67.5t51 122.5l2 62v63l-2 109v18z" />
    <glyph glyph-name="K" unicode="K" horiz-adv-x="759" 
d="M170 242q10 -14 10 -45t-8 -62l-14 -43q-10 -26 -10 -28t4 -20t11 -32t-5.5 -29.5t-34.5 -15.5h-6v4q-23 4 -45.5 25.5t-32.5 46.5q1 32 -15 92t-16 81q0 20 23 32q-8 20 -8 53t14 72l-14 28q0 47 -13 76v37q-18 18 -18 30q0 24 15.5 41.5t15.5 28.5t-13 60q-4 29 2 36
t11 17h2q0 10 -2.5 16.5t-4.5 18.5t-6 27.5t-4 50.5v24l2 29q0 16 10 27q-12 48 -12 80t7 44q10 19 9.5 37t-8.5 28q-8 11 -8 41q0 59 17 93.5t45 34.5q44 0 68 -54t24 -94v-86q0 -36 16 -98q0 -11 -12 -41q23 -18 8 -45q4 -12 4 -14v-82q27 37 67 61t52 35q17 44 83 100
q18 16 29 22.5t30 21.5t55 86q12 20 34 20q-2 2 4 16q19 43 64 45q31 50 72 60q10 4 20 -1t21 -9q4 -4 2 -4q14 -2 25.5 -12.5t11.5 -26.5v-91q0 -37 -40 -46t-42 -9l-17 2l-39 -41l-14 -8v2l-6 -4v-2q0 -2 2 -2q-9 -12 -26 -30.5t-32 -39.5q-41 -57 -88 -80l-14 -18
q-8 -16 -16 -25q0 -39 -38 -50t-44 -23q-12 -6 -16 -14q-4 -7 -10 -27q-8 -20 -40 -46t-62 -49.5t-30 -29.5l2 -2q0 -2 9 -13t14 -24l39 -39q38 -39 68 -49t36 -37q4 10 42 -4t69 -35q31 -3 47 -20q41 -44 135 -88q20 -10 22 -43t-16 -47.5t-51 -14.5t-58.5 9.5t-53 22.5
t-54.5 29.5t-41 24.5t-19.5 12t-15.5 9l-10 -2q-4 4 -13 10t-13 11t-5.5 6t6.5 3q-22 7 -24 12q-3 -3 -64 31l-43 21h-2q-4 -51 -12 -88z" />
    <glyph glyph-name="L" unicode="L" horiz-adv-x="727" 
d="M-16 250q-14 33 6 53l-13 47l15 43v19l2 61l-2 37v14l-6 121q0 29 6 41v447q0 21 41 38t48 17q36 0 69 -29q10 -10 10 -26.5t-10 -26.5l-21 -21v-27q0 -26 -2 -52l-10 -281l14 -100l-14 -47v-299l12 -41q6 -20 15.5 -44t15.5 -44q0 4 6 9t19 0t33 -12.5t34 -13.5l84 10
q35 7 94 7h27q16 14 40.5 18t46.5 8t36 6t28 10t52 7q38 0 38 -42q0 -81 -38 -107.5t-134 -39.5l-69 -12q-4 -2 -11 -2h-16q-37 0 -57 20h-11q-12 0 -20 7l-41 -5l-11 -2l-45 -4q-34 -2 -34 4l-35 2q-84 10 -126 35t-42 97v8q-31 37 -31 61t7 31z" />
    <glyph glyph-name="M" unicode="M" horiz-adv-x="1482" 
d="M168 639l-16 -124q0 -23 8 -44v4q8 -16 8 -39v-37q12 -58 12 -100v-96q0 -15 4 -23h-2q17 -40 17 -100l-2 -41v-37q0 -27 -22.5 -36t-41.5 7q0 -2 -30 13t-44 46t-14 48v24q-16 16 -16 33q0 117 -17 205v39q0 39 4 39q-16 24 -16 33v428q12 30 12 80l-26 118l-2 21
q25 84 84 84q37 0 60.5 -24.5t23.5 -35.5v-6q54 -9 116 -74q2 -6 33 -53t23 -47q20 0 31 -16t37 -78q25 -61 42 -94l8 -6q11 -22 11 -27l10 -55q15 -20 47 -99q9 -40 33 -75v-17q35 -9 30 -43q17 -28 17 -35l24 -51q2 16 10.5 55t8.5 140l-2 65v37q15 22 21.5 74.5t6.5 71.5
l31 83q-14 20 -15 40t4 28t11 19l-2 30q0 33 19 49v86q23 33 30.5 51.5t16.5 32.5q16 43 40.5 68t92.5 25q17 0 69 -39.5t52 -63.5v-10q30 -35 82 -128q10 -19 4 -38q0 -2 10 -6l18 -23l-6 11q31 -31 72 -127q0 -25 -4 -45l41 -82q0 -4 -8 -4q16 -4 25 -18.5t3 -31.5
q33 -41 33 -102t16 -82q14 -25 15 -43l-2 -25q15 -33 32 -133q58 -149 67 -186t9 -86t-38 -49t-77.5 22.5t-39.5 57.5l2 12q-7 8 -17 39v29l-41 120l-4 25v10q-16 20 -20 46t-9 48v37q-11 11 -30 68v12q-24 65 -33.5 110.5t-9.5 49.5t4 4q-23 14 -23 37q-9 18 -118 270l2 17
q-4 0 -5 6q-12 12 -15 28q-8 44 -73 105q-28 -37 -28 -76l16 -45q-4 -6 -13 -24t-11 -18l-11 -5q-4 -11 -7 -37q-18 -152 -34 -195l-10 -77q-18 -110 -18 -185v-12q0 -92 11 -127t-28 -102l-10 -21q10 -10 10 -21q0 -24 -27 -63t-40 -39q-71 0 -88 9.5t-21 20.5t-8 28v-4
l-45 102q-25 14 -35 59q-4 10 -10 25.5t-29 38.5q0 29 -9 45t-15 27q-8 8 -14.5 12t-6.5 26v23q-4 4 -8 6t-4 10q-32 43 -51 101q-20 58 -37 90q-10 6 -13 16q-11 11 -42 82t-44 90q-16 13 -45 49q-8 -20 -8 -34l15 -89q0 -84 16 -192zM1094 1024l-4 -6q4 4 4 6z" />
    <glyph glyph-name="N" unicode="N" horiz-adv-x="1073" 
d="M23 979q-15 30 -15 55q0 26 12 38t27 34q14 22 30.5 36.5t55.5 14.5t57.5 -7t28.5 -38q14 -4 23.5 -6t9.5 -37v-4q10 -14 17 -22.5t14 -18.5l32 -45q2 0 14.5 -14.5t12.5 -25.5t-1 -15t-1 -9q2 4 9 -3t16 -13l16 -16q16 -39 45 -69t43 -62q37 -9 37 -43l2 -17q-2 0 -3 -1
t-3 -1q24 -5 33 -25t37 -43q28 -24 38 -47l15 -30q8 -19 12 -23q29 -68 119 -166q29 -6 41 -24q2 16 13 44t11 81l-2 45v18q4 10 7 19.5t8 13.5v-2q14 19 13 31t-1 16q-2 4 -2 14q-14 43 4 70v43q0 23 8 43t8 25v59q21 108 21 395q0 16 11 27.5t28 11.5q110 0 110 -201
l-2 -36l-6 -21l-10 -16v-11l2 -71l-2 -74v-25q0 -24 -14.5 -76.5t-14.5 -74.5v-78l-14 -88v-57q0 -25 -17 -39l2 -31l-47 -139v-12q0 -4 -36 -35t-56 -31q-53 0 -66.5 -3t-7.5 -9q-25 22 -28 30q-4 2 -9.5 4.5t-37.5 39.5t-58 87l4 -4q-11 20 -53 64q-41 44 -69 104
q-45 82 -99 136q-53 53 -82.5 85.5t-44.5 79.5q-8 10 -21.5 30t-27.5 34l-41 55q-2 0 -2 2v-180q0 -16 -10 -26.5t-23 -12.5h17l2 -51v-21q-15 -75 -15 -141v-139l1 -48q2 -47 -13 -36q6 -14 6 -16l-10 -82l-1 -21l-3 -84q0 -39 -39 -39q-15 0 -45.5 26.5t-36.5 33.5l-12 26
l-2 37v25q0 44 8 83t8 66v94l15 148v28l4 25l-4 37v342z" />
    <glyph glyph-name="O" unicode="O" horiz-adv-x="1247" 
d="M135.5 428.5q12.5 -49.5 24.5 -61.5q13 -13 20 -40t17 -51q0 6 4 3l20 -33q75 -60 92 -60t27 -10t40 -16t50 -15l84 9q118 27 171 52.5t103 96.5q11 16 26 16t30 9l26 24q25 30 43 39q12 23 32 59.5t32 63.5v6q0 33 33 62q2 16 23.5 52t21.5 59q0 83 -23 136
q-25 25 -110 127q-38 14 -80 62h2l-47 45q-25 25 -74 46t-57 21t-17 -8q-8 -8 -22 -8h-21q2 -2 -8 -8l-12 -8q-40 0 -66 26h-10l-57 -18l-9 -16q-27 -41 -108 -80h-4q-2 -8 -15 -25q-3 -41 -59 -82l-31 -26q-7 -63 -49 -134v2q-8 -13 -24 -47q0 -16 -15.5 -89t-15.5 -102
t12.5 -78.5zM31 788v21q0 2 9 15.5t32.5 49t34.5 67.5q12 32 21 38t9 10q0 33 35 39q-10 0 -2 14q10 14 14 27.5t35 15.5q23 23 51 27q10 22 54 66l14 10l29 45q9 18 32 18q23 14 53 26q30 13 58.5 27.5t79 34t64.5 19.5q29 0 73 -11.5t67 -25.5t20 -36.5t-19 -33.5
q16 -2 26 -16t6 -31q2 -4 5 -4h16q16 0 27.5 -11t11.5 -28q10 -4 25 -17t30 -22l37 -26q40 -18 53 -31q16 12 35.5 -22.5t33 -63.5t29.5 -57l41 -80q7 -42 7 -64v-184l-25 -19q-8 -38 -43 -114l2 2l-12 -31l-68 -67q-8 -12 -15 -25.5t-21 -27.5t-29 -36t-19 -4
q-14 -41 -47 -72.5t-63 -60.5q-27 0 -35 4q9 -9 -4 -20l-27 -21q-25 -25 -192 -94q-28 -11 -45 10l-58 -14q-24 8 -31 14q-127 4 -191.5 33t-104.5 70l26 -10l-23 24q-24 25 -50.5 54.5t-50 55t-23.5 29.5l4 -4q-9 11 -21 62q-18 45 -18 67v13l2 84q-14 28 -14 92l2 28
l34 156l13 14l8 11q-8 -4 -8 -9z" />
    <glyph glyph-name="P" unicode="P" horiz-adv-x="897" 
d="M219 741q0 -15 -18 -63v-193q8 6 20 7h199q18 12 31.5 20t29 18.5t25.5 16.5l61 43q29 23 50.5 41t39.5 53l15 16q4 4 9 7.5t9 11.5q11 22 25 79.5t14 73.5t-12 70v4q-58 87 -101 116.5t-61 29.5h-39q-79 0 -112 -10t-66 -44q-52 -38 -77 -84t-60 -145q0 -6 5 -19
t9 -23.5t4 -25.5zM698 1167q36 -36 54 -59h2q80 -80 88 -112.5t8 -50.5t8 -38v4q6 -15 5 -38t-5 -38q-4 -16 -22.5 -110t-65.5 -115l-4 -4q-17 -27 -47 -57q-43 -61 -144 -128t-211 -67q-109 0 -159 41q8 -112 31 -299q0 -63 -17 -75.5t-44 -12.5q-28 0 -40 12
q-44 54 -53.5 78.5t-13.5 98.5q0 169 -15 286t-33 133v42q0 42 -11 66t7 42q-12 81 -12 110v244q-20 50 -20 94t11 54t28 10h12q62 0 86 -15.5t24 -62.5q0 -46 -9 -80t-9 -70q0 -37 4 -65l4 6l12 25l15 28q74 102 156.5 136t191.5 34l37 -2h24q38 -3 95 -36q8 -8 6 -9h26z
" />
    <glyph glyph-name="Q" unicode="Q" horiz-adv-x="1099" 
d="M786 358q0 2 5 11l-9 8q0 -3 2 -10t2 -9zM539 197h30q22 7 40 20q19 11 23 13t7 6l27 18q14 11 32 22q-2 14 -3 34t-5 20q-16 0 -27.5 11t-11.5 28v12q0 -2 -18.5 12.5t-28.5 22.5t-29 43l-18 28q-43 52 -43 66v6q0 18 15.5 29.5t38.5 11.5t50 18q26 26 54 0t28 -47v-16
h5l4 -4q55 -13 67 -131q18 -18 23 -31q22 56 57 122t35 87q1 24 -23 70t-24 63l2 25l-6 20q-6 6 -6 27v16q-6 -6 -20.5 6.5t-23.5 18.5t-30 43q-41 47 -53 71l-99 76l-14 -2q-23 0 -52 26t-59 25q-29 0 -40 -4t-21 -8t-12 -5t-15 -5l-100 -143q-52 -52 -98.5 -152
t-46.5 -113l2 -30v-21q-15 -40 -15 -50v-91q0 -43 4 -47q16 -16 15.5 -38t9.5 -50q18 -23 34.5 -43.5t30.5 -38.5q29 -4 33 -7l47 -40q81 0 162 -15l8 -8q29 23 58 23zM702 104h-2q-4 -4 -10 -5t-12 -6t-19 -5q-32 -27 -52 -27q-19 0 -27 -8t-37 -8h-23q-24 0 -35 4
q-76 -54 -96 -34t-31 30h-6q-36 0 -63 17t-45 18q-17 0 -25 20q-94 35 -159 122.5t-76 144.5q-4 16 6 28l-6 23v25v124v13q0 16 16 69q-12 14 -12 35q0 45 41 53v8q0 2 13 17.5t28 25.5l-21 -12q4 8 6 16t9 26t13.5 42.5t14.5 35.5t14.5 17.5t16.5 17.5t12 7v16q0 11 43 50
l-22 -15q57 93 98 139t57 56q47 108 90 82h9q8 4 15 8t15.5 7t18.5 11t26.5 3t24.5 -21q4 2 5 2h11l-16 -8v-2q47 10 80 -6l-29 30q10 0 28.5 -7t37.5 -11l39 -15q35 -35 44 -62.5t13 -46.5l4 -20q4 -20 12 -24t32 -20t56.5 -38t36.5 -49l27 -28q2 -2 6 -4t6 -4.5t11 -6.5
q34 -15 40 -67q6 -6 10.5 -24.5t10.5 -39.5q26 -10 25.5 -31.5t15.5 -60.5t16 -109t-22.5 -106.5t-18.5 -28.5l-18 -22q3 3 -6 -38q-10 -42 -21.5 -75t-38.5 -59l-43 -35q2 -8 19 -25q18 -23 6 -49q96 -184 96 -190v-51q0 -39 -47 -39t-73.5 38t-55.5 99l-37 78q0 6 -4 14
l-10 12q-46 -41 -56 -41z" />
    <glyph glyph-name="R" unicode="R" horiz-adv-x="997" 
d="M207 461q0 39 48 39q26 0 38 4q0 2 22 14v-2q42 32 84 49l15 -1q14 -1 25.5 9.5t59.5 53.5t99 103.5t51 94.5v9q0 17 17 40l4 56q0 72 -33 147q-59 176 -133 176l-28 -7t-25 -21q-62 -59 -97 -120t-96 -218l-12 -27q-4 -6 -7.5 -13t-7.5 -11q-6 -18 -7 -27l-21 -103
q-19 -93 -19 -135v-641q0 -16 -10 -27.5t-36.5 -11.5t-64.5 23t-38 55v480q-17 20 -17 27t17 67v80q-19 59 -19 161l2 68v53q-4 8 -10 16.5t-6 24.5v45l-29 142l-6 98q-1 39 53 39q30 0 50 -19.5t43 -72.5v-19l-2 -43l6 -26l-2 2q15 -75 26 -86l11 -17l14 15q20 35 20 59
t17 35q19 91 114 178q43 43 82 65.5t91 22.5t100 -16l-6 8q66 -33 119 -103.5t69 -140.5q0 -22 16 -57t15 -92q0 -57 -19 -129v-17q0 -17 -36 -85t-35 -73q-16 -18 -45 -57t-62 -61q-32 -32 -68 -55t-53 -37q39 -8 101 -41l55 -23q87 -34 115 -55q10 -4 37.5 -17.5
t91.5 -36.5q61 -46 61 -102q0 -55 -39 -55q-58 0 -96 31q-10 0 -20 10q-109 48 -218 119q-18 -9 -29 -1q-11 9 -21.5 11t-17.5 4t-8 3t11 3q-7 0 -32 13.5t-29.5 14.5t10.5 -12l-15 7l-27 -2q-27 -1 -40 28q-16 10 -34.5 12t-35.5 7q-43 4 -70.5 19t-27.5 75z" />
    <glyph glyph-name="S" unicode="S" horiz-adv-x="970" 
d="M362 16h-67q-78 0 -121 17q-90 8 -129 28l-12 29q-8 18 -17.5 38t-9.5 61t9 57t10 18q4 18 21.5 24.5t31.5 -1.5t33.5 -36t19.5 -44v-10l-2 -33l90 -10q75 0 135 20q23 4 39.5 8t30.5 4t41 6t48.5 9.5t27.5 7.5q12 0 34 14l41 25q34 46 101 65l10 -2q64 67 64 164l-13 14
l-12 17h-21q-4 0 -28 12h-219q-15 0 -27 12q-8 0 -16.5 2.5t-15.5 3.5t-17 5l-43 10h-12l-33 -2q-30 1 -46 17t-24 16l-20 -2q-4 0 -14.5 4t-12.5 8l-63 63h-25q-16 0 -26.5 10.5t-12.5 24.5q-2 -6 -9 -1t-16.5 9t-25.5 27v25q-4 8 -14 25q-9 17 -23 43t0 50q-10 20 -10 57
t41 91q4 4 6 4v24q10 42 47 60v8q0 25 23.5 42t58.5 34l27 14q18 20 56 42t66 30h9l26 -2q10 35 41 35t34 -5.5t7 -11.5q40 17 86 17l35 -2q12 -2 15 -2h18q20 0 30 -15h35q16 0 24.5 -6t14.5 -10q-2 0 -3 1t-3 1l16 -12l-4 6q28 -11 50 -16t63 -27.5t41 -70.5
q0 -79 -49 -95q-41 -6 -58 18q-29 4 -28 37q0 28 -86 35q-32 0 -70 8t-92 8q-10 -16 -27.5 -17t-27.5 9l-29 -12l-61 -33q-65 -46 -103 -84q-17 -34 -47 -47q4 -3 4 -17t-16.5 -47t-16.5 -43l2 -20v-10q-1 5 15 -15t24.5 -31.5t15.5 -20.5t11 -13t2 2q10 -6 18.5 -13.5
t20.5 -11.5l57 -32l6 -7h19q22 0 49 -16l-14 4q4 -4 8 -4h31q28 0 39 -33q0 4 15 4h204l90 -16l45 2l10 -39q90 0 90 -20l6 -9l-18 -53q33 15 33 13l-6 -23q8 -36 8 -56t-6.5 -44.5t-14.5 -54t-15 -55.5t-9 -28q-19 -8 -35 -39q-16 -30 -45 -30l-13 2q-23 -16 -51 -38
t-79 -52.5t-60 -30.5q-10 0 -23 6q-15 -20 -34 -16q-30 -18 -87 -37t-71 -21t-21 -2z" />
    <glyph glyph-name="T" unicode="T" horiz-adv-x="958" 
d="M33 1083q-16 0 -27.5 11.5t-11.5 27.5q0 107 104 107h105q12 12 16 14l31 14q25 11 45 -14q24 17 55 17h33l43 14h16l43 -14q8 0 28 7t52 7h86l121 14h39q30 15 39 15h12q55 0 57.5 -58.5t2.5 -75.5q0 -39 -39 -39q-17 0 -45 17q-20 -10 -32 -10t-24 7t-12 11q0 -3 -8 -4
l-139 -12h-131l4 -15v-1042q0 -22 -37.5 -50t-54.5 -28t-28 11.5t-11 27.5v41l-5 530l-1 69l-3 259q0 67 -8 137h-14q-27 0 -37 27h-33q-14 -14 -27 -14t-38 10q-95 -19 -166 -19z" />
    <glyph glyph-name="U" unicode="U" horiz-adv-x="983" 
d="M862 90q8 -31 8 -82t-39 -51q-33 0 -68.5 13.5t-35.5 45.5v121q0 8 4 13l-4 6v22l-2 39l2 55v17q0 14 2 26.5t-10 8.5q0 -7 -12.5 -11t-16.5 -4h-8q6 -2 7 -9t-8 -14t-13 -19.5t-21 -30.5q-16 -33 -33.5 -46.5t-58.5 -25.5q-30 -30 -106 -62l-15 -4q-10 0 -14 2
q-18 -6 -34 -6t-26 6q-40 0 -63 6t-23 9q-29 0 -36 26l-7 17q-4 0 -6 2l4 -4l-43 26l-16 29l-12 14q-6 2 -6 8q-23 10 -42.5 25.5t-23.5 52.5q-20 27 2 45v2q-16 27 -16 39v21q0 27 28 31q-75 64 -75 96q0 4 6 14q-8 32 -13 121l-6 129v2q0 2 -1 3t-1 5q-2 -2 -2 -3l-1 1
q-1 2 -7 8l-8 33q-15 50 -15 85.5t19 66.5v2q-16 48 -16 51v14q0 2 -1.5 6t3.5 13q11 96 45 118.5t64 15.5t54 -38q19 -16 19 -35.5t-10 -42.5v4q-19 -57 -19 -78l12 -120l-12 -138v-14l15 -94q-4 -9 26 -88v-21q31 -78 31 -109q0 -32 -2 -34q18 0 27.5 -9.5t9.5 -50.5
l92 -92q10 -10 10 -25t33 -20q47 42 108 70l-2 -2q14 6 22.5 8t24.5 16v9q0 30 35 55l13 14l20 35q20 35 28 43t12.5 19.5t12.5 21.5q-8 14 4 35t17.5 42t13.5 33q17 24 29 63t12 67l12 39q0 2 2 2l7 151l8 17v2q4 20 4 40t-9 46q-9 25 -10 44t9 40q10 20 10 44t-10 45
t-9 33l-1 13l-1 80q0 16 10.5 27.5t38.5 11.5t66.5 -27.5t38.5 -67.5v-856q0 -14 -16 -30l2 -37q0 -42 -13 -74q27 -63 27 -89t-25 -58q10 -12 9.5 -31t-15.5 -29zM8 816q-2 -3 2 -3q-1 1 -2 3z" />
    <glyph glyph-name="V" unicode="V" horiz-adv-x="989" 
d="M225 647v21q-2 -2 -5 3t-11 13t-14 33q0 39 -19 69v-2q-16 23 -55 117q-24 18 -29 53q-25 90 -69 90q-16 0 -27.5 11.5t-11.5 27.5v121q0 16 11 27.5t28 11.5h65q16 0 27.5 -11.5t11.5 -29.5t17 -31t32 -38l-6 4q19 -32 36 -66.5t29.5 -57t18.5 -34.5l22 -57
q39 -78 39 -125v-27q12 -12 15 -25q30 -10 30 -38q21 -21 12 -56q-1 -4 -1 -6t-2 -6q16 -12 16 -29q33 -52 37 -74t14 -42l17 -41q0 -10 -11 -37l-2 -2q4 -4 11.5 -19.5t11.5 -22.5t11 -35t18 -56l10 16l8 16q4 16 16 39l9 20q4 11 4 18t4 16.5t8 13.5t4 20l74 213l22 74
q34 132 78 184q16 16 18.5 28.5t2.5 35.5q8 13 12 50q4 36 53 134q6 16 9.5 30.5t17.5 43.5t14 45t10.5 27.5t26.5 11.5h33q39 0 39 -39l-2 -29v-28q1 -33 -19 -83q-20 -51 -22 -62t-4 -19v-66q0 -38 -27 -53q-6 -11 -7 -20q-1 -8 -5 -21t-12.5 -33t-28 -40t-50 -104
t-26.5 -93q10 -24 2 -41q-8 -16 -8 -27q-29 -72 -35 -84l-29 -47v-12q-17 -50 -26 -80t-23 -53l-18 -52q-18 -60 -31 -81q-4 -12 -7 -25.5t-13 -35.5t-9 -44q0 -39 -44 -39t-85 25l13 -2q-28 14 -66.5 110.5t-38.5 118.5q0 51 -10.5 56t-18.5 22l-10 45q-6 18 -6 41v24
q0 -2 -3.5 7t-18 37t-18.5 38q-3 10 -5 15l2 22q-6 17 -12 35t-12 26q-6 7 -7 21z" />
    <glyph glyph-name="W" unicode="W" horiz-adv-x="1390" 
d="M784 549v10q-39 20 -55 64q-20 30 -35 65l-57 109v-17q0 -20 -5 -25t-9 -10v-36q0 -16 -13 -35t-15 -42q-4 -38 -28 -122.5t-37 -99.5v-13q0 -23 -12 -41v2q0 -2 -2 -2h2q-5 -5 -9.5 -24t-8.5 -36t-8.5 -32.5t-22.5 -79.5t-37 -94l-25.5 -42.5t-31.5 -29.5q-17 -6 -73 32
t-58 40v12q-29 19 -29 48v36l-29 107l-8 35q-20 95 -22 105q-2 9 -9 16h3q-23 32 -15 51q-4 29 -12 56.5t-12 49.5l2 -2q-16 66 -17 74q-14 37 -19 94.5t-44 212.5q0 -4 -1 -2t-1 6q-10 14 -11 37v51h-2q-14 29 -14 39t6 21q-12 28 -12 69t11 52.5t32 11.5q86 0 117 -49v-35
q0 -39 -15 -53q0 -33 15 -82q6 -41 21 -71t22 -97v-13l-2 -28q15 -7 18 -29q6 -16 10 -39l21 -96v-4q14 -14 14 -19l14 -114v-54l-18 2q64 -39 64 -149q0 -5 16 -29l14 -22q0 5 11 25t17 42t10 37t5 27q-1 12 7 26t9 21q3 16 30.5 104t27.5 115v45q0 10 7.5 21.5t15.5 13.5
t8 8v12l-2 31q0 30 30 62v14q0 30 46.5 51t51.5 21q19 0 81 -29q27 -13 55 -70q4 -8 -6 -8q22 -9 30 -24q7 -27 11 -32t11 -16.5t21.5 -37t35 -68.5t53.5 -111q20 -20 20 -45v-10l8 -14q23 -18 47.5 -64.5t32.5 -56.5q5 90 27 156v2q-26 26 -4 49q22 31 22 51v65q1 24 15 72
t14 72v63q0 8 7 26.5t11 29.5q3 76 23 135t20 67l-2 35v15l12 57l1 36q2 36 41.5 87t65.5 51q9 0 31.5 -16.5t32.5 -55.5q-2 -49 -15 -91.5t-15 -53.5q-2 -10 -5.5 -28.5t-7.5 -46.5t-10 -63.5t-22 -58.5q0 -65 -16 -114t-17 -66l2 -47v-19q0 -34 -15.5 -121t-19.5 -110
q-10 -10 -10 -12l2 -43v-15q0 -21 -16 -32v-35q0 -29 -21.5 -95.5t-64.5 -134.5q-20 -12 -66 -12t-55.5 14.5t-12.5 40.5v5q-24 8 -28 10l-31 51q-51 87 -83 164t-32 86z" />
    <glyph glyph-name="X" unicode="X" horiz-adv-x="872" 
d="M162 86q0 39 7 69.5t36 45.5v12q0 40 8 58t11 29q8 27 32 34q-10 0 -10 4.5t24 44.5q16 63 49 134t46 87l8 6v4q0 9 16 25q0 32 -55 84q-27 47 -76 108t-72 101q-44 42 -71 80l-41 47l-51 22q-17 8 -21 19q-4 10 -8 23.5t-7 27.5t-6.5 26.5t-3.5 22.5t11.5 21.5
t27.5 11.5h97q16 0 26.5 -11.5t12.5 -25.5q14 -10 18 -37q50 -40 53 -82q2 4 30 -20.5t61 -53t55 -79.5l10 -19q20 -27 50 -62.5t42 -51.5l43 75q28 51 66 109l41 78l24 51q8 16 24.5 38.5t32.5 51.5l35 51q0 11 10.5 45.5t47.5 34.5l-15 -4q12 2 38 -13.5t34 -29.5l18 -47
q-2 -8 -9 -37.5t-22 -44.5q-16 -16 -40 -74t-70 -127l-27 -12q13 -17 -11.5 -55.5t-22.5 -38.5l-2 -4l-25 -23l-6 -4l-17 -37q-18 -43 -34.5 -80t-16.5 -44t34 -81t54 -106l-4 -2q50 -71 78 -121l51 -104l-1 -20q-1 -19 1 -23q22 -8 28 -38q5 -30 6 -38.5t8 -20.5t-2 -30.5
t-34 -18.5h-8l-14 -2q-43 0 -53.5 9t-16.5 32l-22 31q0 27 -8 39q-27 32 -52 84q0 20 -20 90q-35 0 -39 32q-5 10 -13 32t-18 44.5t-17 41t-9 18.5t-9.5 -5.5t-13.5 -9.5l-14 -30q-10 -18 -18.5 -36t-30.5 -42t-15 -47l-8 -15q-8 -36 -26.5 -79.5t-28.5 -69t-19 -41.5v-14
q0 -25 -49 -105q-15 -23 -43 -12.5t-28 35.5q-31 20 -31 59z" />
    <glyph glyph-name="Y" unicode="Y" horiz-adv-x="901" 
d="M772 434q14 -36 14 -45v-76l-2 -77l-14 -76q4 -16 4 -18v-21l-2 -25l-4 -90q0 -21 -41 -125q-5 -35 -28 -88t-23 -67l-37 -62q-18 -23 -29 -57l-88 -51q-6 -17 -32 -17t-71 6q-46 6 -65 6l4 5q-2 0 -6 -5q-12 -4 -24 -4t-26 7q-13 7 -34 14q-8 -6 -28 -6t-30.5 12
t-25 22.5t-12.5 12.5q-20 3 -39 31l-31 43q-4 0 -34.5 7t-40.5 27q0 11 28.5 57t49.5 46t30.5 -9.5t19.5 -9.5t64 -41l4 -8q0 -2 10 -2q11 0 31 -13t30.5 -17.5t6.5 -6.5l70 -26h18q6 -2 14 -2l25 -2q12 -4 18 -5q14 12 34 21t24 4q13 47 55 82q2 8 6 15t8 18l-2 -2
q33 89 33 98v32q0 33 4 38.5t13 -7.5q-8 16 1 65.5t9 74.5q0 24 -10 55v145l-37 -79l-21 -29l-10 -19l-39 -36q-6 -3 -25 -35v2q-26 -50 -63 -53l-4 -9q-59 -36 -137 -36h-56q-55 0 -71.5 11t-26.5 19q-20 4 -70 58q0 8 -3.5 21.5t-0.5 27.5q-8 10 -15 19t-7 32v12
q-15 15 -15 33v57q0 3 -8 17t-8 29t12 28q-12 54 -12 66v335q-12 12 -12 21l-17 80v82q1 31 7 66t9 54q6 37 38 37h61q14 0 24.5 -10t12.5 -24l16 -105q0 -19 -18 -37q4 -14 18 -34v-27l-16 -43l-2 -66v-86q0 -86 5 -123.5t9 -70.5l4 -33l15 -70v-34l14 -74q0 -8 -2 -12
q18 -9 18 -25l31 -47q0 -4 -1 -9t-1 -12l-8 2q4 -4 6 -4h2v2l2 -2h-2v-4q0 2 2 4l21 -10q-8 12 24 6q14 -2 25.5 -2t15.5 -2q26 26 51 33l19 -2q24 0 47 39.5t29 64.5q6 24 22 31l7 7l26 26q2 2 7 17.5t9 27.5q31 125 58 119l6 24l30 66q4 11 16 31t11.5 38.5t2.5 35.5
t5 32.5t8 28.5l-12 96q0 22 21 41q0 2 8 10v223q0 6 2 11v2q-4 12 -4 34t9 32t19 22t27 12h43q19 -13 37 -42.5t18 -33.5v-217q0 -30 -14 -67l-8 -302q-3 -63 -31 -102l1 -25q1 -25 -3 -55zM219 184q2 2 4 0h-4z" />
    <glyph glyph-name="Z" unicode="Z" horiz-adv-x="1005" 
d="M162 0q-10 0 -11 -2t-12 -8t-30 -6q-33 0 -37 30q-40 10 -38 40q1 18 1 24t2 8v4q4 18 4 19v10q0 20 23.5 53t44 64.5t52.5 80t64 101.5t60 76q4 6 14 15t14 19q66 82 131.5 146.5t108.5 107.5l35 33q26 38 84 88l39 37q19 13 32 27q93 62 93 80q0 8 -41 16t-158 8
q-117 1 -269 21q-153 20 -288 20q-16 0 -27.5 11.5t-11.5 27.5v74q0 16 11 27.5t28 11.5q114 0 160 -21h34l330 -37q67 0 145 -15t122 -30.5t64.5 -35t23 -45t-0.5 -62.5v-35q-8 -23 -22 -33t-31 -18h2q-2 -2 -3 -2l-7 -4q-2 -4 -5 -12.5t-7 -12.5l-230 -229
q-6 -29 -87 -89.5t-149.5 -143.5t-213.5 -304l86 17q28 0 85 16t91 16l27 -2q14 14 47 15h32q23 18 80 30h17l32 -2l17 2q10 0 90 23.5t105 23.5q47 0 47 -38v-21q0 -25 -1.5 -42t-21.5 -35t-139 -32q-34 0 -62 5l-37 -21q-12 0 -67 -22t-100 -21q-45 0 -54 10
q-15 -15 -33 -28q-6 0 -9 -2t-15 -8t-28.5 -8.5t-31.5 26.5l-2 2l-16 -10q9 -9 -50 -19q-60 -10 -67 -10h-65z" />
    <glyph glyph-name="bracketleft" unicode="[" horiz-adv-x="526" 
d="M-8 1065q16 40 16 97t17.5 102t40.5 67q84 84 200 84h51q32 19 70 19q39 0 68 -21q34 -5 34 -37v-57q0 -23 -16 -33t-35 -4q-10 -4 -21 -4h-22l-51 2h-10q-10 -14 -26.5 -15t-28.5 9q-10 -6 -13 -6l-16 -4q-25 0 -35 10q-9 -9 -20 -31v-2l-11 -14q-24 -74 -24 -99v-129
q0 -34 -6 -67t-9 -37l15 -16q0 -29 -1 -33t-3 -15l-13 -90v-8l17 -84v-606q3 6 47 3t130 9q85 13 103 13t29.5 -12t11.5 -42t-32.5 -72t-104.5 -42l-21 5q-26 5 -42 9q-94 0 -154 14l-27 6q-10 10 -18 15.5l-24 16.5t-33 28.5t-17 48.5l-8 420v59z" />
    <glyph glyph-name="backslash" unicode="\" horiz-adv-x="577" 
d="M47 1165q-39 0 -39 53q0 30 -6 54v4q0 2 -1 2t-9 17t-8 50q0 56 40 56q70 0 96 -42t36 -116q6 -14 9 -29.5t5 -21.5v-49q6 6 18.5 -13.5t12.5 -37.5v-27q6 -12 6 -28t37 -99l32 -74v-47q2 2 4.5 -2t11.5 -13t13 -31.5t7 -40.5t5 -28t2 -14l31 -67l15 -29l2 -33
q8 -24 14 -39l16 -100l11 -17q31 -31 34 -73q2 4 3 -5.5t4 -9.5h-3q17 -28 15 -39l10 -26v-29q0 -4 7 -11t3 -28q7 16 21 -3.5t28 -61.5l33 -123q0 -45 7.5 -64.5t7.5 -59.5t-31 -65q-14 -12 -31.5 -8t-26.5 21l-10 29q0 -11 -5 -21t-5 51q-2 -14 -12.5 -7t-29.5 42t-19 61
v17q0 4 1 6t1 6l4 -6q0 4 -24 47t-23 100q-42 71 -66 174q-24 85 -42 123q-17 37 -17 43l-8 45l-1 13l-131 397l-20 57q-6 12 -12.5 37t-19.5 76t5 57h-8z" />
    <glyph glyph-name="bracketright" unicode="]" horiz-adv-x="557" 
d="M182 20q14 -14 39 -14t49 10q-2 47 -2 72v414q0 391 23 463l-2 -2q2 6 3.5 24.5t5.5 26.5l1 33q0 50 25.5 125t35.5 94q2 14 16.5 27.5t14.5 21.5t4 10h-348q-32 -24 -52 -12t-20 35v45q0 28 31 39l244 47q71 -31 162 -31h32q51 0 59.5 -38t8.5 -110v-49l-2 -39
q0 -21 -14 -30q-24 -16 -28 -51t-22 -66q-10 -25 -10 -27l2 -49q0 -14 -18 -33v-6l2 -51v-59q0 -60 -16 -78v-795q0 -73 -84 -83.5t-134 -14.5h-4q-19 -19 -76 -19t-91.5 31t-34.5 90l38 39q25 0 54 -12q59 22 108 22z" />
    <glyph glyph-name="asciicircum" unicode="^" horiz-adv-x="579" 
d="M389 858h-2v6q-17 92 -24 107.5t-15 36.5l-59 133q-6 -5 -9 -13t-9.5 -21t-16.5 -45t-31 -48q-16 -77 -35 -103q-6 -21 -16 -31t-18 -24q-6 -6 -6 -2l-3 -6q0 -23 -31.5 -54.5t-64.5 -31.5t-48 14t-15 19l2 39q2 16 3.5 38.5t24.5 47.5l23 24l12 6q2 8 1.5 13.5
t11.5 20.5t22 29.5t10 38.5t14 33q14 8 18 28t5 33q2 13 11.5 25.5t19.5 30.5l22 35q2 4 2 5v13q0 16 11.5 27.5t27.5 11.5h115q10 0 27.5 -16t29.5 -35q16 -4 21.5 -17.5t10.5 -28.5t8 -24.5t10 -19.5q12 -37 29.5 -89t44 -138.5t28.5 -113.5t-9.5 -40.5t-27.5 -13.5l-6 2
q-6 0 -10 2l-17 -4q-43 0 -67.5 35t-24.5 65zM486 767l-3 3z" />
    <glyph glyph-name="underscore" unicode="_" horiz-adv-x="989" 
d="M39 -6q-39 0 -39 51q0 63 44 78.5t144 15.5h17l33 17l14 8q29 16 47 -12q27 16 57 16h33l2 2q22 8 17 2q10 10 26 10h6q4 -2 5 -2l27 -6q26 -6 45 1t54 7h88l160 15l2 4q6 6 30 11q43 9 61 -26.5t18 -105.5q0 -39 -39 -39q-27 0 -43 14q-20 -10 -39 -10t-29 16q-4 0 -4 5
q0 -2 -2 -3.5t2 -1.5q-39 -2 -71.5 -3t-80.5 -6t-130 -5q10 0 -25 -14l2 2q-29 -18 -51 -19h-150q-12 -16 -28 -16t-33 12l-31 -12z" />
    <glyph glyph-name="grave" unicode="`" horiz-adv-x="462" 
d="M264 1618h3t3 -2q-2 0 -3 1t-3 1zM261 1620q1 0 5 -9t4 -16v21l19 -8q77 -77 122.5 -145.5t45.5 -82.5t-11.5 -25.5t-22.5 -11.5q-35 0 -89 19.5t-64 60.5q-110 96 -166 154q-46 23 -69 52.5t-23 38.5q0 18 33 52.5t49 34.5t43 -29l15 -16q4 4 20 -6l-2 2
q16 -10 34.5 -21.5t23.5 -16.5t9.5 -13.5t11.5 -20.5t9 -13t3 -1z" />
    <glyph glyph-name="a" unicode="a" horiz-adv-x="716" 
d="M143 374q0 -12 -20 -32h2q0 -29 16.5 -64.5t16.5 -76.5q0 -10 -15 -25l35 -26h17q31 0 32 1l17 19q6 10 11 21.5t21 27.5q6 15 29.5 44t42.5 71l8 10q0 20 2 25l30 59q27 54 22 80l18 39q2 4 5.5 54.5t15.5 84.5q0 23 12 43.5t12 36.5q-8 27 -41 27l-55 -19h-33l4 -4
q-22 -28 -37 -35l-2 -2q4 -12 4 -14q0 -20 -39 -35l-20 2q-74 -107 -74 -147l-10 -37q0 -20 -4 -21.5t-10 -5.5l2 -20q-16 -29 -15.5 -38t-5.5 -22q6 -9 6 -21zM539 230q0 30 -9.5 52.5t-13.5 59.5q-13 -32 -20 -39l-16 -16t-12.5 -14.5t-4.5 -4.5l-2 -39l-11 -33
q-11 -33 -26 -50q-36 -40 -106 -100t-89 -60q-37 0 -55 16q-12 -4 -22 -4q-20 0 -74.5 54t-54.5 100v4q-15 15 -15 30v27h-2q-6 0 -13 38t-11.5 58.5t-4.5 36.5t7 29q-8 11 -8 31t28 20l4 2v80q0 20 23 33h-4q0 43 17.5 60t29.5 17t13 12.5t-1 25t-3 20.5v1l32 66l22 23l6 4
q4 23 20.5 36t33.5 23q0 -4 2 -8v17q36 57 82 57q2 0 19 7t58 22.5t65 15.5q23 0 32 -18h20q19 0 77 -38t58 -73q0 -20 -16 -31v-4q0 -14 -12 -26q12 -25 12 -45h-12q12 -2 20 -13.5t8 -23.5l2 -90q4 -2 8.5 -11.5t4.5 -13.5v-47q14 -18 14 -39v-31q12 -16 13 -38t10 -75
q8 -53 16 -67t8 -39v-31q4 -37 15.5 -54t11.5 -47q0 -69 -70 -69q-43 0 -67.5 18t-24.5 36t8 30q-20 100 -20 130zM83 677l-1 -1q0 7 1 1z" />
    <glyph glyph-name="b" unicode="b" horiz-adv-x="811" 
d="M217 236v-9q0 -12 -10 -23t-10 -100l16 13q2 -2 7 -2h42l64 4q46 5 75 9.5t40.5 4.5t4.5 -6q59 17 74 68q8 46 22.5 60.5t24.5 23.5l13 22q14 46 14 129v51l-2 84v15q0 28 -30 89.5t-48 61.5h-102l-56 -84l-49 -82v-2q-16 -39 -18 -57q-3 -18 -15 -37q-4 -16 -7 -32.5
t-7 -35.5v-28q0 -29 -16 -41l2 -8q0 -22 -25 -66q-4 -14 -6 -14q2 -2 2 -8zM156 1106q6 -23 3 -27t-3 -17v-94q0 -79 1 -96t15 -45l-6 -21q-6 -22 -8 -22l14 -39v-30q-14 -28 -14 -42t7 -46q7 -31 7 -37q8 22 27 41q18 18 23 28.5t5 34.5q6 8 15 17l116 116q28 25 93 25h12
q66 0 104 -31q8 -6 39 -18q20 -17 70.5 -84.5t50.5 -95.5v-275q0 -21 -18 -33q-11 -39 -13 -55t-10 -37.5t-12 -32.5l-29 -40q-15 -18 -28 -44t-14 -30t5 8q14 -14 -14.5 -30.5t-40.5 -23.5t-6 -7l-88 -23q-35 -14 -60 -14q-163 0 -215 45q-10 -12 -26 -13h-80
q-60 0 -60 385v46q0 501 -24 665q39 57 88 57q23 0 40 -4t34 -30q2 -16 0 -31z" />
    <glyph glyph-name="c" unicode="c" horiz-adv-x="671" 
d="M492 854q16 0 51 -22.5t54 -41.5t19 -83v-7q0 -16 -14.5 -28.5t-37.5 -12.5t-40 21q-32 6 -59 43q-6 4 -9.5 9t-7.5 7t-19 3t-41 4.5t-48 3.5h-4q-20 -20 -47 -29l-19 -10v-4q0 -5 -14 -27q-50 -48 -74 -104t-37 -152q-4 -8 -4 -14q-12 -18 -12 -49t9 -48t9 -33
q0 -17 -4 -30q30 -72 82 -90.5t207 -18.5h62q65 45 90 45q36 0 59 -61q4 -117 -94 -117q-10 0 -23 6q-4 -4 -8 -4q-16 -16 -29 -16h-178q-2 0 -14 4q-53 -27 -104 27q-85 9 -111.5 41t-26.5 55q0 2 1 1t1 3l-14 18l6 -18q-24 35 -24 68q-16 16 -11 38q-2 -2 -2 -4v-2h-2
q-28 34 -28 62v10l12 70v2q-12 10 -13 24.5t9 24.5q-10 20 -10 72t40 81l5 2q2 0 2 2l-2 25l2 18q39 105 96 174.5t168 92.5q8 2 20 -4q10 14 29 14l117 -12q13 -3 26 -29h9z" />
    <glyph glyph-name="d" unicode="d" horiz-adv-x="772" 
d="M339 289.5q9 11.5 31 39.5t21 42q0 14 9 22t20 46q18 59 57 93q6 10 8 7v18q0 23 22.5 29t39.5 -4q-21 63 -21 90t-8 41t-32 14q-24 -1 -63 -17q-38 -16 -52 -16v-4q-10 -33 -31 -43t-37 -14q-4 0 0 6q-88 -89 -88 -107t-6 -23t-6 -3v6l-37 -37q22 0 16 -12
q-11 -37 -20 -49l2 -37q0 -101 -31 -133q7 -21 16 -38q10 -18 13 -24l18 -35h15q2 4 48.5 32.5t82.5 86.5q4 12 13 23.5zM109 31v8q-6 6 -11 22q0 -20 2 -24q-12 6 -46 22.5t-34 81.5v39q0 -6 19 -6q-19 4 -31 22t-14 33t-2 49v36q0 37 20 77q16 16 27 71q10 55 27 75
q12 33 26 61.5t49 63.5q4 25 17.5 32.5t31.5 19.5t17 34q44 54 91 63q10 1 24 15t45 14h14q6 25 33.5 27.5t38.5 -19.5q16 14 36 0q12 6 15 6l10 -2l2 2q0 169 21.5 274t33.5 115l7 17q11 15 25 12q13 -2 13 -4v2q16 -4 41 -13.5t25 -33.5l27 -72v-14l1 -19l-1 -137v-16
q-1 -49 -21 -149t-20 -134v-41q6 -27 -15 -41q-3 -36 7 -53q10 -18 10 -47v-13l-1 -47q-1 -48 5 -63l10 -35v-2q0 -4 12 -38t13 -84v-34q0 -34 -4 -45q4 -12 4 -22t-31 -41q-49 -18 -67.5 11.5t-27 58t-18.5 61.5l-12 76q-4 25 -8 44t-4 44l-25 -43q-34 -55 -37 -62l-16 -37
q-8 -16 -15.5 -32.5t-17.5 -26.5l-33 -35l-20 -26l-23 -35q-14 -18 -28 -20q-15 -2 -15 -1l-18 -18q-24 -39 -68 -39q-20 0 -32 6q-23 -12 -41 -12t-30.5 12t-12.5 29z" />
    <glyph glyph-name="e" unicode="e" horiz-adv-x="765" 
d="M145 504q0 -21 -16 -37v-33h6q10 0 25 -10l135 39l4 -2q6 4 12 6t11 6q16 33 30 42t28 14q13 5 19 12l17 14q19 19 43 53q0 38 4 82q-14 12 -23 33q-20 25 -36 29t-40 4t-26 -6q-10 -6 -23.5 -15.5t-35.5 -17.5q-15 -18 -50 -23h-4q-4 -4 -19 -30t-20 -41l-26 -60
l-15 -28v-31zM289 10q-59 0 -119 -10h-4q-2 0 -4 2q-25 6 -31 27q-24 5 -31 22q0 -2 -12 -2t-22.5 10.5t-10.5 26.5v2q-30 36 -44.5 65t-14.5 31l4 13q-10 18 4 36l-22 58v18l-2 23q0 12 10 22q-8 16 -8 22t3 23t9 40.5t13 51t16 52.5q-23 10 -23 48t29 48q8 16 29 51t30 64
l35 39l18 22q11 10 23 15q12 6 22 14t37 20q26 12 53 34t38 22t36 -19q44 26 50 23l69 -45q8 -13 16 -15t21.5 -6t3.5 0h6q27 0 36 -2t11 -37q20 -51 62 -114q3 -66 -15 -87l2 -22l-10 -25q-4 -12 -10 -24q-10 -25 -33 -31q-4 -10 -12 -18l-23 -21l-39 -47q-12 -12 -20 -14
v-2q-38 -48 -137 -86l-58 -35q-24 -16 -45 0q-20 -8 -26 -8l-19 4l-14 10l-14 -8q-6 0 -7 10v-102q0 -5 25 -17t37 -19t16 -9l4 -11q9 4 15 4t18 -8q20 8 35 8h22q16 8 27.5 11.5t62.5 19.5t70 35q6 4 9 7l49 48q11 11 24 11h10q-10 0 4 14q26 41 58 41l26 -10
q33 -14 39 -22.5t6 -45.5t-16 -52.5t-39 -31.5l-18 -14q-4 -4 -8 -16t-37 -30q-81 -44 -189 -83l-33 -15q-4 0 -9 -4t-13 -8l2 2q6 6 -53 6z" />
    <glyph glyph-name="f" unicode="f" horiz-adv-x="761" 
d="M18 633q-38 0 -38 48q0 28 12 54.5t59 26.5h21q10 4 20 7t23 7l39 15q39 10 46 28.5t5 50.5v31l6 21q6 22 8 22l19 98q4 18 24 25v4q0 20 10.5 29.5t20.5 19.5v19q12 41 39.5 66.5t53.5 25.5t32 -2q16 14 59.5 27t38.5 8q10 10 28 10t28 -8.5t31.5 -30t76.5 -21.5
q16 0 27.5 -10t11.5 -26q0 -68 -45 -68t-54 2t-39 5t-53 9l-14 -8l-12 -12q-5 -10 -25 -10v-2l-4 -2l-22 -7l-72 -71q-16 -79 -51 -156q3 -4 14 -35l64 13l110 14h12l35 -2q9 3 34.5 8.5t59.5 13.5l31 9q18 4 31.5 -8.5t13.5 -30.5v-19q0 -20 -9 -53t-38 -37
q-32 -12 -90.5 -15.5t-107.5 -9.5t-59.5 0.5t-14.5 16.5q5 -32 -8 -39l-21 -10q-16 0 -33 8v-248l17 -47l-1 -15q-1 -16 -10 -16l15 -30q24 -52 24 -101t-2 -53l17 -33q6 -12 -2 -28q2 2 3 -4.5t4 -16.5t6 -19.5t3 -22.5t-10 -24.5t-34 -11.5t-56 8q-25 27 -42.5 72
t-19.5 70l-28 151v9q-8 27 -31 180q0 137 -8 162q-10 -4 -18.5 -6.5t-20.5 -6.5l-27 -8q-4 0 -12 1t-13 1q8 -4 -32 -24q-20 -14 -37 -6t-21 28v-8q0 -2 2 -2z" />
    <glyph glyph-name="g" unicode="g" horiz-adv-x="802" 
d="M567 526q0 28 38.5 57t74.5 29q-31 14 -56.5 37t-25.5 39q-28 17 -31 17h-41q-8 0 -16 4q-38 -19 -49 -19l-21 2l-39 -20q-51 -22 -100 -68h-29q-10 0 -6 -17.5t0 -11.5q-12 -23 -28.5 -42t-41 -48t-22.5 -45l2 -24v-10q-17 -69 -39 -97q-6 -11 -6 -23q0 -24 47 -59
l29 15q16 0 84 14l24 -2q1 4 9 11t14 12.5t20 7.5q16 16 30 16t22 -2l7 19q7 20 17 30l96 96q8 8 17 30.5t20 37.5v14zM590 854q6 0 16 -5t12 -9v-2q73 -6 109.5 -68t36.5 -133q0 -16 -10.5 -27.5t-26.5 -11.5h-16q10 -10 10 -23v-225q0 -135 -8 -257t-41 -189
q-12 -40 -93.5 -115.5t-117.5 -75.5q-57 0 -88 15.5t-31 74.5q0 17 9 45t37 28.5t36 -28.5q0 -2 24 -2t42 20t34 40l21 28v3l10 20q31 50 31 59q0 10 -8 63t-9 95v14q0 34 13 86q-12 -15 -47 -47l-19 -20q-32 -29 -72 -29q-6 0 -13 -10t-43 -23q-36 -14 -53 -33
q-17 -18 -34 -18h-20l2 -2q-8 -4 -15.5 -10t-33.5 -6t-41 10q-12 -6 -28 -6t-40 24q-2 0 -2 1t4 4h-12q-20 0 -76 53q-10 10 -10 24q-4 -4 -9 11q-34 61 -34 110q0 12 16 31q-4 16 -4 30t47 107q1 40 15 60t22 35.5t18 33.5v-2q14 29 27.5 51.5t36.5 26.5q6 12 18.5 30.5
t42.5 22.5q92 92 162 92h11q10 0 16 -2q44 31 92 31q2 0 10 -4q23 11 45 -8q23 12 29 12z" />
    <glyph glyph-name="h" unicode="h" horiz-adv-x="909" 
d="M-20 1141q0 84 72 84q38 0 53.5 -6.5t37.5 -44.5q-4 -14 -4 -18v-50q0 -38 7 -54q7 -15 8 -39t-5 -34t-6 -12t-3 -16t10 -419q17 57 38 86q12 12 29 17q-6 1 -6 11q1 10 17 26t40 48t60.5 67.5t95.5 35.5q173 0 238 -121q0 -2 16 -18t16 -35l-6 -26q45 -80 77 -177.5
t32 -136.5t10 -132q10 -94 10 -131t-10 -47.5t-50 -10.5q-87 0 -87 86v133q-13 26 -17 64q-4 39 -8 57t-4 30.5t-8 28.5q0 62 -43 186l2 -2q-22 54 -49 68q-33 47 -51.5 57.5t-48.5 10.5q-42 0 -52 -25t-22 -49l-31 -31q-8 -8 -8 0l-31 -63q-15 -22 -29 -25q4 0 -10 -46
t-22.5 -79t-8.5 -38v-56l-45 -88q0 -46 10 -62q10 -15 -5 -38q-15 -24 -28.5 -45t-22.5 -37q-10 -17 -32 -21q-42 -8 -55.5 18.5t-13.5 77.5l2 62v8q-9 84 -16 379q0 218 -17 301v94q0 41 -16 53t-13 33t19 29q0 13 -16 74v8z" />
    <glyph glyph-name="i" unicode="i" horiz-adv-x="268" 
d="M51 996q0 54 26.5 66.5t58.5 12.5q52 0 52 -39q0 -24 -9 -40t-9 -29h-2q-2 0 -4 2q14 -18 5 -39t-34 -21l-6 -2q-43 0 -60.5 17.5t-17.5 71.5zM220.5 45.5q-0.5 -31.5 -40.5 -31.5q-58 0 -93.5 13.5t-35.5 74.5v41l-14 31l16 90v4q-16 12 -16 37q-6 56 14 76l-14 47
q-5 21 12 70l2 12q-14 9 -14 29v102l-4 2q-16 16 -12 35.5t26 26.5q-4 2 -4 5v40q0 36 37 36h10q47 0 71.5 -12.5t24.5 -66.5q0 -21 -4 -37q8 -16 0 -31q19 -51 19 -77q0 -27 -13 -42q15 -20 15 -56t-3 -55t-1 -39t-2 -40l-13 -60q0 -4 -1 -4t-1 -2q21 -20 21 -66t-6 -61
q24 -60 23.5 -91.5z" />
    <glyph glyph-name="j" unicode="j" horiz-adv-x="352" 
d="M131 1124q0 23 16.5 33t42.5 -1t58.5 -34.5t32.5 -40.5q0 -39 -22.5 -76.5t-70.5 -37.5q-16 0 -27 11t-11 28v10q-8 10 -14.5 22t-6.5 49l2 21v16zM86 731q0 86 73 86q59 0 75 -27t16 -52q0 -50 -7 -79t-7 -45q0 -17 8 -48t8 -74q0 -44 -2 -61t-14 -34v-264
q0 -16 -10.5 -26.5t-24.5 -10.5q4 -4 4 -12l2 -41v-14l-6 -64q-9 -116 -41 -153q-11 -54 -33 -76q-38 -71 -104 -111q-14 -24 -42 -37q-28 -14 -37 -23t-24 -9h-143q-16 0 -27.5 11t-11.5 27v15l33 37q39 4 94 24.5t92 57.5q76 54 111 169q18 58 20 83.5t2 72.5l-2 27
q-2 8 -2 15v14l-12 24q0 13 12 43v555z" />
    <glyph glyph-name="k" unicode="k" horiz-adv-x="892" 
d="M838 406q0 -6 -18 -34.5t-42 -37.5q-23 -4 -49 4t-37 8h-92q-23 0 -43 10l-18 4q-24 0 -45 -12q-39 -10 -85.5 -12t-127.5 -9t-86 9l-2 -260q0 -20 -11 -25l-12 -12q-4 -16 -12 -28.5t-44 -12.5q-81 0 -81 117q0 37 10 57l-10 37v31l-2 92l2 61v21q0 6 4 14q-4 12 -4 16
v101q0 6 10 26q-16 172 -16 635q0 16 10 27.5t28 11.5q52 0 85.5 -13.5t33.5 -57.5q0 -15 -8 -33t-8 -29q12 -12 12 -33q-6 -32 -14 -47v-18q4 -4 9 -5t5 -18t-12 -47q16 -40 16 -78t-18 -61l14 -74v-31h6l7 15v14q0 23 13 35t30 22v7q0 9 13 25t20 25t12 15q5 19 37 62
t36 60q4 16 35 21q-4 0 0 13q48 81 86 102q27 10 45 -8q31 -40 31 -94q0 -16 -10.5 -26.5t-26.5 -10.5q-10 0 -65 -123q-4 -4 -5 4q-25 -41 -56 -93t-109 -169q-16 -16 -33 -16q-2 0 -5 -20.5t-3 -21.5l2 -24q0 -18 -15 -33h6q12 0 37 -8t29 -5.5t20 16.5t49 14q32 0 46 -11
l32 9l15 -9q14 9 39 9q47 -13 114 -13q123 0 174.5 -13t51.5 -64z" />
    <glyph glyph-name="l" unicode="l" horiz-adv-x="245" 
d="M199 35q0 -37 -45 -37t-68 7t-29 23.5t-2 45t4 71.5l2 41v9l-14 192v14q0 20 14 29v240q-32 21 -32 47v33q0 44 10 57q-9 26 -21 84q-33 4 -24.5 21.5t20.5 35.5t14.5 18.5t2.5 2.5l-2 2l-7 7t-6 21v195q0 16 10.5 26.5t26.5 10.5h13q60 7 81 -27.5t31 -70.5
q-2 -18 -2 -29v-203q-4 -99 14 -133q2 -18 0 -33q14 -56 -12 -110v-344q21 -63 21 -246z" />
    <glyph glyph-name="m" unicode="m" horiz-adv-x="1337" 
d="M776 -2q0 -37 -47 -37q-88 0 -96 132q-6 89 -12 116q0 46 -26 150t-29 114t-3 12v2q-12 17 -12 23q0 38 -57 133l-25 35q-29 41 -46 41q-36 0 -26 10q-107 -107 -130 -155t-37.5 -106t-14.5 -72t-13.5 -25t-17.5 -33v-68q0 -35 -8 -52t-8 -49v-31q0 -32 4 -42
q-12 -41 -33 -47t-35 -6q-36 0 -66 13t-30 42v639q0 31 16.5 56.5t38.5 25.5t57.5 -20.5t35.5 -61.5v-116q54 119 117 166t90 47h47q48 0 106 -21q132 -102 162 -213l37 -164l8 4q-10 2 -10 11.5t2 21.5l6 37q15 44 35 79.5t32 68.5t29 42q17 5 49 37t78 37q16 5 28 -7
q13 -13 24.5 -15t27.5 -5t37.5 -11.5t44.5 -49.5q25 -22 47 -85q22 -64 33 -79q35 -108 49 -237t14 -153t-13 -36t-30 -10q-59 6 -78.5 37t-27.5 109q-23 219 -60 292q0 72 -65 115q-27 -27 -45 -27h-15q-4 0 -8 1t-6 1q5 -5 -10 -47q-14 -42 -34 -77q-19 -35 -19 -62l2 -31
v-10l-11 -45q0 -4 -6 -13t-8 -27.5t-6 -35t-6 -31t-8 -30.5v-7l-13 -102q-6 -18 -6 -28v-70z" />
    <glyph glyph-name="n" unicode="n" 
d="M735 630q0 -6 4 -40q29 0 33 -25.5t-12 -44.5h-2q22 -51 22 -78t-8 -41q22 -36 15.5 -78.5t-9.5 -52.5q13 -44 13 -68t-21 -59q4 -4 4 -8t1 -10t11 -24q10 -19 0 -36.5t-32 -17.5l-15 -2h-14q-29 0 -61.5 14.5t-32.5 53.5v419l-17 43q0 70 -19.5 98.5t-41.5 45.5
q-42 -7 -135 -109v2q-12 -14 -30.5 -37.5t-35.5 -44.5l-39 -51l6 6q-99 -131 -126 -210.5t-27 -100.5v-76q0 -45 -27.5 -61.5t-37 -17.5t-11.5 -3t-4 -2t-18.5 3t-16.5 6q-20 13 -20 31q0 17 -5.5 31.5t-11.5 25t-10 17t-4 26.5t25 39v518q0 16 11 27.5t27 11.5h27
q14 0 27 -13l45 -45q12 -12 12 -28l-8 -132l27 48q8 12 38 22l7 25q104 129 202 194h27l16 -2q43 19 55 19q13 0 31 -9l37 -10q40 -20 86.5 -68.5t42.5 -82.5v-38z" />
    <glyph glyph-name="o" unicode="o" horiz-adv-x="739" 
d="M55 510h2l13 45h-4q0 19 26 52t25 38l10 6q20 43 30 56q9 13 23 13h14q0 -1 11 -1l14 8q29 27 53 34t58 7q14 29 35 39q16 0 30 -6q15 -6 19 -6q30 0 33 -36t-25 -40h35q125 0 139 -21q4 -16 2 -24q18 -20 40 -42t21 -32v-18l11 -23q18 -33 18 -65t-2 -37v-8
q0 -116 -63 -242l-15 -14q-16 -16 -36 -38t-42 -22h-6l-18 -14q-43 -27 -98 -43q-45 0 -54 4q-39 -20 -55 -20q-16 -1 -45 16h-2q-37 -6 -59 16q-77 14 -162 123v21l2 14q-20 2 -29 18q-8 16 0 33q-6 10 -2 23q-18 22 -18 30q8 25 16 33v19q18 66 49 104l8 4q-2 -2 -2 -4z
M510 553q0 4 -20 18t-50 15q-29 1 -49 10q-16 16 -18 28q-5 33 -13 38q-2 -2 -2 -4t-2 -3l-163 -157q-17 0 -17 14v-12l2 -25q0 -29 -5 -31t-9 -10l-2 -2l2 -12q0 -12 -12 -28t-19 -56h2q37 -12 44 -44q3 -13 7 -26v-2q23 -28 53 -30q30 -1 35 -25h91q10 10 22 14t16 6t5 -2
q0 19 19 27t36 2l78 156q2 28 -3 52t-10 23q-18 9 -18 33v8q0 6 2 11q0 -6 6 -11q-8 8 -8 25z" />
    <glyph glyph-name="p" unicode="p" horiz-adv-x="735" 
d="M170 329.5q0 -51.5 16 -93.5v-35q18 18 50 0q25 -25 38 -37t32.5 -12t56.5 26q38 26 67 33q24 16 39 41q16 25 42 63.5t26 96.5t-13 82q-21 80 -70.5 155.5t-101.5 71.5q-27 0 -35 -7q-86 -75 -86 -132q0 -33 -32 -37q8 -4 8 -14.5t-3 -28.5t-4 -37t-18 -35
q-10 -18 -11 -33.5t-1 -67zM143 -319h-67q-35 0 -43 33.5t-8 68.5v10q0 47 8 62q-8 32 -8 51v256q3 49 -8 63t-7 30.5t21 25.5q-21 88 -21 178l15 80q0 44 -15 104q-14 15 -14 27t10 32q-2 2 -1 5l-9 32q0 8 -1 20.5l-2 25t-1 14.5v16q0 16 11 27.5t21 11.5t20.5 -2t24 -5
t24.5 -7t18 -6q18 -14 18 -41q0 5 8 -14q18 -43 21 -60l14 10q47 57 88 83t77 26t82 -16.5t56 -22.5l-4 6q54 -30 91.5 -83.5t47.5 -74.5q29 -8 29 -35q0 -10 20 -44t-2 -60v-80q0 -68 -14 -111t-53 -104q-6 -6 -16.5 -17.5t-18.5 -17.5l-20 -26v2q-12 -23 -26.5 -44.5
t-43.5 -27.5q-29 -33 -66 -40t-80 -7q-90 0 -135 45l11 -186q0 -24 -13 -44v-2l15 -65q0 -35 -21.5 -68.5t-32.5 -33.5z" />
    <glyph glyph-name="q" unicode="q" horiz-adv-x="796" 
d="M506 678h-14q-41 0 -50 -8t-24 -8q-26 -31 -51 -31l-17 2h-4l-35 -15q-10 0 -24.5 -16t-24.5 -22q-31 -31 -61 -52q-31 -27 -37 -26v-31q0 -20 -29 -41l-12 -59q7 -17 14 -53q16 -79 88 -134q58 18 74 9q20 20 41 30l14 13q13 14 27 18q23 37 51 57v2q0 45 43 45l10 21
l19 61q20 58 20 76q15 45 21 148l-19 8q-12 6 -20 6zM688 -210q0 -92 -76 -93q-66 0 -68.5 71.5t-2.5 100.5v86q0 11 12 35q-10 20 -10 27t-2 14v10q0 59 14 74v33q0 32 -2 49q-14 -14 -33 -15h-6q-16 -23 -56 -49t-59 12q-17 -60 -20 -82h-17q-16 0 -22 5q-59 -33 -92 -33
q-9 0 -47 31q-20 -23 -42 -18t-28 28q-10 0 -18.5 10t-10.5 23q-79 46 -98.5 109.5t-19.5 152.5t16 110q0 33 15.5 44.5t31.5 19.5q21 76 82 137q26 26 70.5 40.5t50.5 14.5h10q18 21 36 27q19 6 20 6t8 4l24 19q36 18 63 18t44 -10q29 24 43 24t21 -4t18 -8q0 4 -1 8t-1 8
l6 -10q-9 18 -9 25q0 29 28 47t61 18h20q7 -6 23 -7t34.5 -7t18.5 -34t-15 -42v-231l-14 -31v-178q17 -24 17 -92l-17 -168v-86q0 -29 -6 -42.5t-9 -27.5t-20 -33l27 -6q9 -15 2 -43l2 4q-5 -24 -12 -39q0 -6 8 -12t8 -44z" />
    <glyph glyph-name="r" unicode="r" horiz-adv-x="557" 
d="M145 698q0 -42 -2 -47l13 -26l8 -27l26 -135q39 104 60 136q20 32 33.5 54.5t24.5 43t22.5 40t23.5 47.5q19 10 52 47l77 27q14 4 35 -4.5t21 -59.5q0 -50 -23.5 -61.5t-41.5 -15.5t-17 0q-16 -24 -23 -45l-8 -19l-23 -35l-30 -20q7 0 -19 -73t-33.5 -95t-17.5 -47
q-9 -73 -49 -133h4q-14 -57 -14 -184q0 -16 -10.5 -26.5t-31.5 -10.5t-63 28q-37 37 -47 115t-18 172l-4 47q-34 57 -45 162q-4 20 -5.5 40.5t-6.5 38.5q-21 76 -21 169l37 37q90 0 116 -111v-29z" />
    <glyph glyph-name="s" unicode="s" horiz-adv-x="673" 
d="M526 637q-37 0 -37 43t-28 43h-10l-66 -16q-29 -1 -40 -7t-26 -6q-20 -23 -65 -39q-16 -20 -43 -20h-6l-39 -39l-12 -4l-15 -10l-4 -2q8 4 -2 -8t-10 -15l-6 -20q8 -11 8 -19t4 -8q33 0 37 -33q0 10 16 10q10 -4 32 -9t17 -1h9q23 0 25.5 -6t13.5 -12q12 -12 14 -13h219
q20 0 24 -6q12 -20 33 -20q39 -33 46.5 -50.5t7.5 -50.5v-10q0 -4 -6.5 -21.5t-22 -61t-23.5 -52.5q-18 -27 -45 -37q-6 0 -6 4q-6 -31 -37 -30q-8 0 -14 -4.5t-16 -8.5q-13 -16 -58 -30q5 0 -28 -25q-35 -35 -68 -35l16 8q-14 -2 -32 4q-36 -20 -58 -26q-129 0 -154.5 21.5
t-29.5 45t-4 51.5q0 56 28 97.5t54 15.5q18 -9 22 -32q10 -54 17.5 -64t31.5 -14q25 -4 75 21.5t65 37.5h-2q14 8 87.5 49.5t73.5 61.5l-2 14h-20q-14 0 -23 8q-20 -8 -38 -8l-84 16h-9l-65 17h-15l-47 -2q-41 0 -71 30h-2v2q-8 0 -13 5v-2q-23 6 -43 11t-20 40v16
q-28 11 -39 31q-20 6 -21 35l-2 24v19l2 37v10q7 29 20 42t15 17t15 17l36 38h-4v3q8 16 16.5 25t28.5 9h2q-2 0 6 8t12.5 15.5t29.5 7.5h14q41 35 121 45q5 19 23 21t34 10h-4q42 12 98 12t131 -35q21 -10 21 -31.5t-24 -88t-29 -66.5h-13z" />
    <glyph glyph-name="t" unicode="t" horiz-adv-x="446" 
d="M188 165.5q0 29.5 3.5 40.5t-1.5 21v23q-2 -4 -3 6t-7 22t-6 37l2 43l-2 13l6 -9q-10 31 -12 103q-16 16 -16 49l16 45q0 9 -23 35q0 -2 -2 -2t-15 -6t-26 -6q-116 0 -116 125q0 36 37 36h116l-2 39q21 94 21 250q0 16 10 27.5t20 11.5h10q9 0 11 -2q39 28 52 -0.5
t19 -52t18 -45.5t-11 -45v-146q10 -10 14 -30q40 -13 92 16l43 -14q0 -72 -15 -91t-54 -25q-39 -5 -54 -9q6 -3 0 -33l-12 -35q14 -10 14 -25l-2 -20l-6 -4h4q-2 0 4 -6q2 -10 6.5 -20.5t4.5 -14.5q0 -27 -25 -37q16 4 16 -6q0 -42 -8 -55l6 -56q7 -24 7 -57q6 -35 -7 -35
q0 -2 11.5 -8t11.5 -7v-42q0 -40 14 -107q0 -8 -19 -30.5t-34 -22.5q-22 0 -59 36t-37 40l2 22q-17 34 -17 63.5z" />
    <glyph glyph-name="u" unicode="u" horiz-adv-x="778" 
d="M733 88q15 -43 15 -87t-37 -44q-24 0 -52 10l-30 10q-32 32 -46 117.5t-16 110.5q-20 41 -24 74q-6 -6 -6 -5l2 -24q-9 -18 -36.5 -43t-35.5 -29h2q-4 -8 -1 -12t-9 -16q-76 -102 -183 -127q-25 -19 -51 -19t-63 14q-27 2 -38 19.5t-22 36.5q-20 4 -28 22l2 -9
q-2 5 -12.5 30.5t-14.5 42.5l2 -2q-24 55 -24 69v17q-16 10 -17 28v119q-12 16 -12 29v100q0 10 10 25q-2 0 -6 8t-4 19t-1 30l-2 38t-2 35.5t-1 27.5t11 21.5t27 10.5q29 0 70 -34.5t45 -61.5l5 -16l12 -50q0 -24 -17 -38q17 -21 17 -62t-6 -55t-6 -17q15 -10 10 -34v-43
q0 -38 14 -66l12 -31l7 -22q4 -23 26 -47q6 4 20 5t31 21l25 11q2 0 2 3t2 7l18 24l31 15q10 4 21.5 10t21.5 10v2q0 6 2 10v3q2 8 4 19t9 28q6 33 30 75q12 36 24 61t19 48v59q-1 19 9 41t10 53t37 31q72 0 100 -37q6 -18 4 -34q9 -22 -6 -41l8 -43l-2 -35q0 -12 -4 -17
q23 -27 35 -75v-25v-11v-65q0 -2 4 -2q16 -8 22 -22.5t-2 -28.5q4 -8 4 -20v-11q10 -10 11 -26q0 -6 -15 -6q75 -17 39 -58q6 -10 6 -23t-6 -26z" />
    <glyph glyph-name="v" unicode="v" horiz-adv-x="684" 
d="M80 793q35 0 37 -37v-72q23 -10 22 -35l11 -34q2 -9 10 -16t8 -21q14 -10 14 -44t6 -60q6 -28 7 -34v-39q6 -3 18 -11t12 -29t-6 -28q14 13 8 23q5 -2 9 -4t4 -30v-17l12 -80q4 -18 10 -21t6 3v8q0 4 5 15t16 39t28 34l9 45q6 29 16 35t23 20q6 11 13 17t7 2v20
q0 31 35 95q14 20 14 24q0 33 31 37q10 18 20 34t11 21v21q0 16 9 24t19 19q0 45 27 71t55 -1q29 -28 34 -47q5 -18 5 -34q0 -31 -30 -97q-30 -65 -44 -79v-2q0 -2 -2 -2v-2q-16 -4 -15 -11t11 3q-12 -29 -38 -82t-50 -102l-49 -107q-6 -10 -18 -40t-36 -85t-34 -82
q-36 -34 -100 -47q-27 -4 -40 19t3 43l-6 -4h-2q-29 14 -45 54t-17 68q-2 29 -6 31l-18 23l-43 178v12q-4 11 -8 27t-13 44q-8 28 -8 42l-2 8l2 19q-6 6 -14 30q-5 9 -11 21l-8 16l-6 25l2 -2q-21 62 -23 131q-1 16 11 26t28 11h64z" />
    <glyph glyph-name="w" unicode="w" horiz-adv-x="997" 
d="M158 449q14 -56 14 -71v-61l6 -86q0 -16 2 -24q2 8 2 22q14 31 49 91q37 60 43 80t31 30q-13 0 -14 -3q4 18 6 35t25 25q28 63 88 138q69 0 84.5 -7.5t20.5 -16.5t11 -21v2q4 -4 6.5 -10.5t12.5 -18.5q12 -43 23.5 -78t22.5 -70t27.5 -76.5t38.5 -113.5q2 2 5 2
q4 2 10 25.5t6 41.5t7 25q7 6 7 17.5t9 46.5t22 51q6 75 41 145l10 21q0 8 -2 10l27 86q0 25 8 57q11 116 59 142q10 6 23.5 3t21.5 -14l25 -30q8 -12 8 -27l-22 -192q-4 -29 -35 -33q14 -5 2 -66q-10 -103 -41 -125l-8 -22l-9 -19l-2 -24q-2 -10 -4 -29.5t-24 -83.5
l-23 -59l-12 -39q-14 -35 -39 -71t-84 -46q-16 -4 -28.5 5.5t-14.5 25.5h-2q-16 0 -26.5 10t-10.5 27v16q-26 39 -37 74v12q-4 6 -4 14.5t-2 16.5q-26 26 -26 82v5q0 5 -3 15l-14 15q-22 22 -22 36v10q0 11 2 21l-2 -4l2 10q-4 4 -7.5 5.5t-3.5 19.5q-10 2 -14 16
q-20 -45 -26 -72t-21 -42q-20 -10 -37 -58l-24 -47q-38 -69 -43 -119q-5 -24 -25 -28q-15 -59 -65 -72.5t-65 -13.5t-20 10q-24 24 -41.5 69.5t-17.5 47.5v18q-8 16 -8 27v18q-6 21 -6 53v2l10 31q-14 46 -14 142v8l1 2v10q1 8 -1 18l-7 37v6q-2 -1 -6 9t-4 24l6 49v11
l-14 90l10 123q4 35 36 35t65.5 -43.5t38.5 -53.5l-2 -29v-19q0 -19 6 -45t6 -71l-8 -55q0 -13 10 -33q0 -12 -6 -30zM291 427v-1v1z" />
    <glyph glyph-name="x" unicode="x" horiz-adv-x="618" 
d="M248 242q0 2 1 3zM18 549q-14 0 -25 10t-11 27v57q0 16 11 27.5t26 11.5q36 0 96.5 -39t60.5 -70v-2l21 -22q14 -18 23 -31.5t32 -34.5l27 49q6 13 15 27t15 25q27 17 49 75l37 68q6 6 20.5 21.5t32 33t34 31.5t22.5 21q69 0 69 -70t-10.5 -80t-24.5 -10t-14 -10
q0 -32 -30 -37q11 -5 -8 -35q-19 -29 -41.5 -64.5t-38.5 -54.5q-10 -23 -33 -48t-23 -54t10 -39q0 -6 24 -27t24 -39l41 -41q-4 4 0 3t0 -3l6 -6l8 -20q0 -2 1 -1.5t9 -9.5t8 -24q0 -29 -33.5 -47.5t-56.5 -18.5t-29 7l-77 90q-16 18 -19.5 23t-17.5 22q0 -22 -19 -31
t-43 -68l-16 -32q-2 -3 -4 -11l-14 -41q-26 -26 -71.5 -42.5t-57.5 -16.5t-23.5 10t-11.5 51t39 60l14 31l2 12l29 65l2 2q4 12 20.5 31t25.5 31l10 13q10 14 16 22t12 14q0 47 -37 98q-46 46 -65 75t-21.5 32.5t-16.5 3.5z" />
    <glyph glyph-name="y" unicode="y" horiz-adv-x="659" 
d="M252 16q-14 0 -31 17q-12 -4 -28 -4t-26.5 10t-10.5 26.5t6 18.5t-2 7t-10.5 8t-12.5 11t-33.5 31t-23.5 64v2q-34 23 -45 61v37q-15 30 -15 43v29q-16 11 -16 43q0 33 7 50t9.5 25.5t2 18.5t-6.5 14q-24 15 -24 52q0 8 1 26.5t3.5 82t17.5 120.5q29 29 59 29
q68 0 68 -74q-16 -32 -16 -53l2 -2q0 -2 7 -15t7 -63t-8 -76t-8 -41q0 6 14 -22q8 -47 32 -117t26 -109q2 4 5.5 -4t21.5 -29t18 -47v-4l18 -10q8 11 39 35l16 8q2 4 10.5 16.5t18.5 28.5l23 37q33 33 44 64.5t11 41.5v125q0 43 7 79t7 55l-2 26v10q0 33 34 43.5t46 10.5
t42 -11.5t42 -33.5q0 -67 -12 -82q0 -5 2 -9t3.5 -14t6.5 -20q0 -6 -16 -27v-172l-15 -29v-155l17 -35q-4 -25 -4 -32v-120q0 -111 12 -150t-14 -57q-10 -5 -17 -28q-8 -23 -22.5 -42.5t-40.5 -19.5t-36.5 12.5t-7.5 32.5t-3 111l-2 55q0 26 -13 58l-2 47q0 44 6 71
t7.5 45.5t3.5 34.5l-23 -45q-18 -25 -73.5 -74.5t-80.5 -42.5q-8 -4 -22 -4z" />
    <glyph glyph-name="z" unicode="z" horiz-adv-x="761" 
d="M29 694q-37 0 -37 45t25.5 74t60.5 29h61q11 16 43 16l27 -2h22l11 2q15 19 39 10q12 4 17 4h62q219 0 272.5 -44t53.5 -89q0 36 -35 -121q-23 -13 -74 -64t-77 -69q-38 -65 -90 -83q-13 -4 -41 -33q-28 -28 -35 -52q-14 -12 -59 -57t-87 -74q-24 -55 -28 -70t-17 -28
q6 4 32.5 8t46.5 0t30 1t-6 -5q85 16 403 -10q14 -2 25.5 -12.5t11.5 -24.5v-35q0 -16 -11 -26.5t-55 -10.5q-132 0 -322.5 8t-215.5 18q-25 9 -28 14t-10 11t-17.5 11.5t-8.5 7.5q-18 8 -20 27.5t12 31.5q-14 29 -14 39q58 70 68 90q10 21 12 23v10q0 53 47 53h6
q65 75 107 111q19 9 25 21q7 11 36 32q16 39 23 43l81 45q43 73 154 150q-6 14 -12 20l-31 2q-31 2 -49 7l-60 2q-2 -2 -4 -2h-10q-71 -31 -160 -41h-22q-16 -12 -27 -13h-151z" />
    <glyph glyph-name="braceleft" unicode="{" horiz-adv-x="653" 
d="M281 84q-11 28 -11 41t-28 41q-4 45 4 55l-10 17l-23 47q-43 125 -66 139q-10 -10 -26 -10h-45q-59 0 -75.5 13t-16.5 79v16l2 23q0 28 28 37q67 23 171 120t104 162q0 16 -8 33l-43 82q-25 8 -35 59l2 -2l-4 11q-29 33 -33 57t-4 74v10l2 55v6q0 49 47 70l4 2q2 2 2 4
q0 29 29 37q8 10 23.5 25.5t39 40t31.5 24.5l8 2v-2q7 13 24 19q17 7 52 22.5t106 34.5q49 4 60.5 -18.5t11.5 -57.5t-15.5 -48t-31.5 -24q2 2 2 9q-13 -29 -39 -29h-26l-121 -57q-56 -87 -56 -113t31 -100l-2 -27q0 -8 16 -37q46 -28 46 -131t-20.5 -154t-104.5 -127
q-2 -2 -3 -2l-8 -2q-27 -17 -77 -67q62 -34 139 -121q0 -18 10 -23l8 -26q14 -53 36 -126t32 -145q14 -14 18 -41l64 -63h12q25 -14 36 -16t22 -7.5t32 -48.5q0 -43 -33.5 -56t-73.5 -13q-112 0 -157 84l-25 34v7q-45 22 -45 81z" />
    <glyph glyph-name="bar" unicode="|" horiz-adv-x="290" 
d="M190 -293q1 -39 -42 -39t-57.5 20.5t-14.5 39.5v985q-17 140 -17 260l-16 209v39l2 135q0 70 -14 121v36q-2 -2 -2 3q-4 10 -10.5 20t-6.5 30t6 36q-10 20 0.5 38.5t31.5 18.5q60 0 91 -27q25 -25 4 -53q8 10 9.5 8t4.5 -10t9 -23.5t6 -39.5t-20 -33l22 -37
q20 -31 -8 -51l14 -160v-14l-2 -35q0 -9 8 -29l11 -27v-11q-1 -6 -9 -39t-8 -71q0 -39 17 -73q4 -33 7 -55.5t5 -63.5t2 -85q0 -60 -7 -103t-7 -73t12 -54v-543q-21 -52 -21 -250z" />
    <glyph glyph-name="braceright" unicode="}" horiz-adv-x="493" 
d="M266 283q3 -6 10 -13q-2 9 -10 13zM35 991q0 23 24 37q9 30 25 82.5t16 107t-26 95.5l-13 6l2 -2q-27 16 -53 35.5t-26 53.5q0 56 39 56q4 0 18 -2t40 -5t44 -9q79 -83 94.5 -128t12.5 -127q-2 -82 -46 -183q4 4 1 -15.5t-5 -39.5t-10 -52v-2q16 -8 23.5 -15t7.5 -28v-2
q12 -6 20.5 -16.5t16.5 -15.5t15 -9t11 -8q-2 0 -12 -4q26 9 46 -11t52 -35q65 -30 94 -57t29 -65t-9 -56t-9 -27t-11.5 -20.5t-53.5 -11.5t-54 17q9 -35 -27 -46q-78 -19 -78 -79q0 -30 17 -76l-2 -6q2 0 2 -1t14 -15t15 -31v-13q14 -18 14 -53q-9 -9 -10.5 -14.5
t-3.5 -7.5q16 -12 16 -33l-19 -162l-129 -129q-14 -14 -47.5 -21.5t-49.5 -7.5t-27 11t-11 31t15 50q25 25 48 45.5t46 40.5t37 37t14 29t-2 25.5t-4 29.5l-8 51q-14 46 -52 97q-10 20 -10 32v23q0 10 -8 29t-8 35t4 28q-4 8 -4 49q0 67 67 84v-2q10 10 23 15q-8 0 -14 -7
q6 10 16 24.5t30 20.5t24.5 8t35.5 15q-18 8 -33.5 17.5t-27.5 15.5t-17.5 12t-13.5 14q-6 12 -22 13t-27 12q-70 44 -70 80v8l-10 25q-18 8 -20.5 25.5t8.5 31.5l-9 12q0 38 15 68v16zM266 805zM156 573l-4 -4q0 4 4 4z" />
    <glyph glyph-name="asciitilde" unicode="~" horiz-adv-x="917" 
d="M502 383q-29 0 -56 27q-4 0 -4 4h-24q-31 19 -46.5 48.5t-15.5 35.5q-31 20 -30 34v5q-4 4 -4 6l-15 23q-8 13 -8 28v8q-8 10 -18.5 22t-10.5 32q0 30 -32 30q6 0 0 -6q-11 -27 -21 -37q-57 -125 -57 -141t-10.5 -27.5t-22.5 -13.5v-23q0 -16 -11.5 -27.5t-27.5 -11.5
h-22q-39 0 -39 39q-1 30 -11 54t-12 26t-2 14t12 50l23 14q8 16 19.5 41.5t27.5 42.5h4v33q0 29 11.5 38t27.5 19q6 0 6 -2q0 16 10.5 27.5t26.5 11.5h104q16 1 34 -17t50 -34q38 -45 45 -58q18 -6 23.5 -19t10.5 -48t36 -65q29 -31 45 -31t27 2h4q3 0 18 10t35 20l16 1
q2 1 11 16t24 24l4 6v-4q4 25 33 33q-10 2 1 34t31.5 67.5t55.5 35.5q55 0 66.5 -28.5t11.5 -59.5t-12.5 -58.5t-21.5 -45.5t-13 -31.5t-6 -11.5q-10 -31 -35 -31q0 -23 -14.5 -34t-30.5 -7q-42 -57 -69.5 -74.5t-84.5 -17.5l-53 2h-14z" />
    <glyph glyph-name="exclamdown" unicode="&#xa1;" horiz-adv-x="233" 
d="M51 1180q0 24 11.5 35.5t21.5 11.5t28 10t40 10q44 0 45 -37q0 -19 -21 -61l-16 -31l-37 -26q-41 0 -56.5 32t-15.5 56zM223 68q0 -39 -51 -39q-29 0 -64.5 26.5t-35.5 69.5v287q0 14 10 24q-14 58 -14 73v165q0 149 2 168q-15 19 -15 35l6 10q-6 12 -6 22v17q-2 -6 -6 1
q-26 45 -7 63t38 18q48 0 95.5 -37t47.5 -105q0 -29 -16 -45q0 -2 -2 -4q18 -12 18 -33v-716z" />
    <glyph glyph-name="cent" unicode="&#xa2;" horiz-adv-x="714" 
d="M250 537q0 -2 -3 -6t-6 -11.5t-20 -23.5q-74 -46 -74 -78v-21q0 -20 -14 -35v-22q0 -2 -4 -10l18 -8l-2 2l17 -11q27 -2 36 -12t15 -27l102 -26l9 -2q-24 24 -31.5 53t-11.5 35v209q-16 -8 -23 -8h-8v2zM465 -175q0 -38 -18.5 -55t-81.5 17q-56 24 -56 72q0 18 3 21.5
t6 11.5t6 8q3 43 -17 96l2 -2q-14 33 -14 51v47l-4 14q0 1 1 2t-1 5q-8 -2 -11 -2h-22q-67 0 -86.5 12t-42.5 29q-20 8 -37.5 12t-36.5 43q-25 10 -24 37v10q-8 4 -17 16l-16 15q-18 36 -18 63l4 4q-7 10 -7 62q0 51 68 116q46 46 58 74q13 29 31 48.5t59 29.5q28 31 73 31
q0 41 -6 83t-8 62.5t-2 36.5t10 27.5t31 11.5q60 0 94.5 -23.5t34.5 -103.5q0 -16 -17 -43q6 -2 39 -2h19l49 16q28 3 47 -8q19 -12 29 -12t21 -12t11 -32t-7 -48.5t-42 -38.5q-14 -4 -24 2q-2 -2 -3.5 -2t-31.5 -1t-51 13q-4 0 -13.5 -3t-19.5 -6t-17.5 -5t-7.5 -4l19 -355
q39 3 103 41q64 39 85 49q57 4 68.5 -19t11.5 -51q0 -53 -39 -89.5t-82 -36.5h-20q-36 -29 -53 -29t-33 8q-4 -4 -12 -8l4 -55q4 -72 8 -142.5t4 -108.5z" />
    <glyph glyph-name="sterling" unicode="&#xa3;" horiz-adv-x="958" 
d="M432 1014h29l71 16h15q10 0 28.5 -7t40.5 -13l29 -15q16 -10 21 -24q34 -15 34 -54q0 -40 -25.5 -48.5t-61.5 -8.5t-47 11.5t-15 29.5q0 -8 -4 -8q-29 0 -37 -5t-23 -18l-18 -20q-18 -4 -19 -6l-26 -31q-6 -35 -41 -57v-33q4 -4 9 -7t5 -19t-10 -44q10 -10 10 -30l-6 -15
q32 0 57 7.5t37 7.5h43q12 5 16 7.5t18 8.5t33 -9.5t9 -49.5q-20 -67 -56.5 -89t-121.5 -30q2 -9 2 -33t-9 -46t-9 -28l2 -41v-14l-4 -16q4 8 2 -8.5t-8 -36.5t-5 -29l19 -6q95 -10 127 -26q31 -17 96 -17q41 -17 113 -17h47l4 7q10 23 30.5 25.5t35.5 -17.5t28.5 -55
t13.5 -47t-9 -24t-22.5 -20t-31 -13t-33.5 -11l-27 -8q-6 -2 -22 2q-14 -6 -25 -5l-135 29q-28 7 -28 29t8 33.5t20 13.5q-23 -2 -25.5 -11.5t-2.5 -17.5t-14.5 -12t-18.5 -4q-63 31 -166 31h-21q-4 0 -82 -47.5t-184 -47.5h-11q-11 0 -22 4h-2q-25 0 -37 29l-14 43l-2 10
q0 47 62.5 80.5t123.5 44.5q62 10 67 22t9 27l8 30q7 30 10 51.5t5 33.5q0 59 -20.5 77.5t-39.5 18.5l-28 -2h-6l-7 -6h2q-48 -30 -81 -30q-56 0 -56 38q0 72 53 125q12 11 56 11t61 -17q25 0 33 17q-2 2 -7 23.5t-13 42.5t-7 30q0 10 11 35q-12 10 -12 27.5t10 23.5t12 13
t6 11q-4 4 -9 27t3 33t26 28q12 8 12.5 33.5t53 66t90.5 40.5z" />
    <glyph glyph-name="currency" unicode="&#xa4;" horiz-adv-x="1009" 
d="M221 406q0 -27 16.5 -73t47.5 -81l4 -2l2 -2q8 -4 18 -4t21 -11h4q20 0 31 -16h41q43 4 82.5 9t60.5 22q0 50 27.5 55.5t33.5 5.5h23l10 8q44 72 55 91v12l15 26q10 20 20 43t17 39v19q-23 9 -23 35q0 62 -29 77l-22 29l-17 27q-21 3 -49 16l-28 10q-12 -45 -60 -25
t-82 27q-18 -28 -61 -57l-27 -14l-6 -6q-10 -16 -33 -27q-12 -25 -16 -27v-14q-5 -21 -33 -45l2 -31q-8 -31 -22 -55v2q-23 -36 -23 -63zM86 20q-23 10 -23 60t68 113v30q-14 14 -16 33q-31 45 -31 143v19q0 20 4 31q-4 10 -4 13v42q0 48 31 74v8q-42 49 -47 61q-4 2 -8 13
t-14.5 25.5t-18.5 27.5h2q-16 25 -29.5 46t-13.5 54q0 39 39 39q139 0 139 -80l-8 21q0 -12 -9 -31q23 -35 58 -35q4 0 7 1t11 1q-18 0 16.5 45t67.5 45h23q-10 0 -4 6t62.5 38t66.5 32q145 0 190 -16.5t82 -32.5q16 -12 18 -25q16 -6 36 -18t26 -51q0 8 14 8v2
q0 24 43.5 56t57.5 32q24 0 51 -64q0 -57 -19 -75q-4 -16 -8 -34t-18 -32t-24 -17t-9 -1q0 -13 12 -37l-4 2q-4 -6 -8 -29.5t-15.5 -72.5t-31.5 -84t-28.5 -54.5t-18.5 -38.5l4 4q-10 -28 -31 -49q-22 -22 -24 -22h-2v-2q4 -23 15 -35q32 -35 32 -78t-38 -43t-57.5 8
t-48.5 21h4l-24 12l-17 6q-10 -18 -32 -18l2 4q-29 -29 -47.5 -34t-36.5 -5q-10 -8 -24 -12t-24 -8t-13 -4.5t-1 5.5q-11 -19 -31 -14q-20 4 -32 19q-31 -9 -45 14l-17 10q-20 -14 -43 -8q-22 -9 -41 8q-41 -48 -53 -57v-4q-7 -48 -45 -47q-10 0 -25.5 10t-19.5 26z" />
    <glyph glyph-name="yen" unicode="&#xa5;" horiz-adv-x="991" 
d="M669 530q33 0 56 -20.5t23 -37.5q0 -33 -33 -66t-76 -46q20 -10 20 -42q0 -55 -94 -101q-8 -2 -20.5 -8t-12.5 -4v-88q0 -49 -11 -67.5t-38 -45.5l-20 -6q-29 0 -48 21q-20 21 -20 34v13l2 40v52q-36 -8 -71 -8q-26 -31 -58 -31h-53l-12 -2q-10 -4 -18.5 -7.5t-32.5 -3.5
t-42 19.5t-18 50.5t19.5 47.5t54.5 34.5q31 6 55 -12q8 4 12 8l35 12h-4q16 6 39 14.5t43.5 17.5t34.5 15t14 11q-17 -9 -37 -9t-31 11q-10 -10 -38 -29q-28 -10 -185 -43q-26 0 -47 14q-4 8 -19 8t-26.5 11.5t-11.5 27.5q0 92 115 93h63q20 0 29 -27q43 72 61 72h19
q-16 6 -27 20q-19 7 -43 31q-14 10 -24 10t-21.5 11.5t-11.5 30.5t-19 36q-6 18 -2 37q-57 40 -57 102q0 8 4 14q-23 32 -23 52l3 16q-15 45 -15 66q0 77 -47 137q0 41 41 67h40q40 0 63.5 -6.5t23.5 -46.5q0 -12 -8 -24q39 -59 39 -97t-6 -53l28 -76q38 -24 17 -57l24 -27
q12 -12 13 -28q12 -14 14 -35l22 -6q16 -8 40 -17.5t14 -3.5q25 12 43 12t22 -2l92 97l17 6l26 55l27 12l6 2q4 6 5 12.5t4 14.5t6.5 19.5t8.5 18.5t13 12t14 9q-12 0 -9 4.5t7 12.5l15 29v34q88 135 88 226q0 23 6 26.5t10 5.5v43q0 17 8 45l8 31v12l-2 31q0 35 13.5 48.5
t42.5 23.5q13 0 45.5 -42.5t36.5 -68.5q0 -56 -13 -88v-45q0 -26 -20 -61l-15 -37q-8 -15 -18 -57l-8 -37q0 -178 -246 -437q-13 -25 -49 -61q12 0 18 2q0 -2 2 -6t2 -6q10 18 33 24h8q20 4 53 4z" />
    <glyph glyph-name="brokenbar" unicode="&#xa6;" horiz-adv-x="296" 
d="M217 -127q0 -105 4 -137q0 -35 -17.5 -61.5t-47.5 -26.5t-45 12t-29 29v313q0 20 12 92q-19 19 -7 55q13 36 13 170l-2 99v82q0 16 13 26l28 29q18 18 39 12t26 -31t29 -73v-389q-16 -53 -16 -64v-137zM168 629q-68 0 -94 51v151l-2 148q0 239 10 368t10 205q0 39 39 39
q19 0 64 -33t45 -61v-344q0 -5 -11 -27q-4 -4 -4 -2q0 -29 15 -49q2 -39 -13 -57v-135q0 -18 -14 -29q2 -2 1 -3t1 -3h-2q16 -37 16 -76q0 -38 -11 -64t-11 -41t-11.5 -26.5t-27.5 -11.5z" />
    <glyph glyph-name="section" unicode="&#xa7;" horiz-adv-x="694" 
d="M244 408q25 -1 53 -29h10l37 22l59 31q29 29 70 49h-2q10 8 21.5 15.5t17.5 13.5l8 16v15h-20q-11 0 -23 6q-30 -6 -39 -6l-90 14h-18l-56 16h-14l-49 -2h-4q-10 -8 -19.5 -20t-13.5 -17l-35 -18q12 4 -2 -10t-14 -17l-6 -18q6 -4 10 -20q18 -10 37 -27h16q16 0 51 -14
h15zM340 1096q16 0 37 9t93 9t136 -35q21 -10 21 -35v-6q0 -35 -4.5 -49.5t-7.5 -30.5t-4 -19t-1 -7v-6q0 -23 -17 -33.5t-46 2.5t-29 47q0 35 -26 35h-11l-67 -16h-23q-4 1 -18 -7t-27 -8q-18 -21 -67 -39q-10 -10 -16.5 -16t-26.5 -6h-9l-41 -39l-26 -12l-15 -27v4l-8 -27
q8 -12 8 -20t9 -10l28 -17h17q16 0 51 -14h14q23 0 27 -6t14 -12l12 -13h226q14 0 35 -18q51 -25 65 -42.5t14 -58.5v-24q0 -16 -25.5 -76.5t-29.5 -66.5l6 8q-16 -31 -57 -52l16 -14q22 0 33 -16q22 -22 29.5 -34.5t7.5 -41.5v-23q0 -14 -23.5 -72.5t-33.5 -76.5t-62 -42
t-67 -38l-41 -20h-13l-20 -7q-15 -21 -58 -47q-21 0 -32 7q-41 -24 -60 -27h-75l-66 16q-37 29 -45 44.5t-8 53.5q0 68 28 109.5t56 13.5q23 -10 24 -28l15 -70q0 -2 4 -8l37 -8q22 0 34 12l48 12l43 29l59 31q17 17 68 51l40 29q2 4 5.5 9t5.5 9v4l-2 6h-21q-10 0 -26 8
q-16 -8 -37 -8l-86 15h-21l-57 16h-12l-52 -2q-37 0 -50 10t-23 21v2q-2 0 -8 2t-39 7t-33 48q0 10 2 16q-31 12 -41 33q-20 10 -21 37v19l-1 7l1 58v6q0 22 11 27l53 65l-12 -12q1 3 30 41q-2 4 -2 18v21q-28 7 -37 29q-23 10 -22 36l-2 25v18l2 39v15q6 21 18 34t19.5 23
t13.5 16l37 39q-4 0 -4 4q8 16 15 24.5t28 10.5l26 27l29 6q8 0 14 -4q59 42 123 51q11 23 27 23z" />
    <glyph glyph-name="dieresis" unicode="&#xa8;" horiz-adv-x="536" 
d="M295 1540q0 28 6 40t7 11.5t1 1.5t6 7t28 15.5t35 10.5q24 0 62.5 -40t38.5 -48q0 -41 -13 -56.5t-30 -25.5l-12 -10q-13 -7 -25 -10h7q-14 -9 -34 -9t-36.5 13.5t-25.5 29t-12 29t-3 41.5zM206.5 1461.5q-16.5 -27.5 -42.5 -27.5t-60 6q-23 0 -34 18q-27 22 -27 58
t25 74t79 38t65 -27.5t11 -69.5t-16.5 -69.5z" />
    <glyph glyph-name="uni00AD" unicode="&#xad;" horiz-adv-x="604" 
d="M100 745q43 0 84 -12l-2 2q4 0 6 -2q10 15 31 15h100q8 8 19 8h10l43 -2h6q20 20 76 20l25 -2h22q16 0 26.5 -11t10.5 -38.5t-33 -67t-65 -39.5l-117 -12h-8q-12 0 -19 2q-21 -20 -59 -20q-39 0 -92 10q-54 10 -61 10l-54 -2h-12l-39 39q0 47 29.5 74.5t72.5 27.5z" />
    <glyph glyph-name="macron" unicode="&#xaf;" horiz-adv-x="729" 
d="M674 1472q0 -44 -42 -45q-20 0 -42 17q-24 -12 -36 -12t-32 12h-2l-6 4q-104 -14 -195 -14t-92 -3.5t-21 -15.5t-42 -12h-137q-20 0 -30.5 14.5t-6.5 32.5q20 70 49 87t61 17h31q11 11 18 11t5 -4q10 10 24 10h6q10 0 54 -17q10 0 27 8t52 9h86l50 6q46 8 69 8l40 -1
q0 6 30 15q73 10 77.5 -47.5t4.5 -79.5z" />
    <glyph glyph-name="degree" unicode="&#xb0;" horiz-adv-x="391" 
d="M221 805l-2 4q0 -2 2 -4zM168 860q-14 0 -14 -27t-12 -63q-12 -37 -8 -81q3 -44 16 -44l12 2q4 25 14 34t25 19h2v2l6 13v2q-10 14 -10 38t18 36q0 14 2 20v2q-10 20 -10 47h-2q-20 -10 -39 0zM86 514q-42 0 -43 37v20q-28 28 -35 45q-18 14 -18 42t6 42q-4 10 -4 12v25
q0 20 8 45t12 41q0 10 4 6v23l17 43q26 73 63 96l17 17q8 6 21 18t40 24t38 -8q11 -19 28 -26h26q78 -55 78 -92q0 -10 -2 -13l16 -39q15 -23 9 -61q12 -25 -11 -43q-4 -16 -14 -27v-28q0 -35 -3 -56.5t-20 -21.5h-4q-4 2 -8 12q-2 0 -2 -2v-12l-10 -49l-12 -19q0 2 1 5t1 8
l-11 -25q-20 -16 -38 -10q-24 -35 -82 -35l12 2q-16 0 -41 12q-17 -8 -39 -8z" />
    <glyph glyph-name="acute" unicode="&#xb4;" horiz-adv-x="526" 
d="M10.5 1331.5q-28.5 -0.5 -28.5 55.5q0 41 46 58q14 5 15.5 5t1.5 -6l10 -10l15 63q25 8 46 28.5t44 43.5v-2q27 32 61 57q14 7 47 18l15 33q8 37 43 33q64 55 118 55q16 0 27.5 -11t11.5 -31q0 -42 -49 -102t-92 -87q-39 -39 -70 -62l-63 -59q-20 -10 -28.5 -15.5
t-18.5 -27.5t-35 -22h-10l-27 2q-35 0 -43 -8t-36.5 -8.5z" />
    <glyph glyph-name="mu" unicode="&#xb5;" horiz-adv-x="1050" 
d="M186 1130q39 0 39 -44q0 -93 15.5 -154t64.5 -170q2 -27 29 -33q31 -41 31 -65v-11q14 -10 36.5 -34.5t22.5 -30.5v-4q6 -23 22 -31q14 -3 48 -8q0 16 11 26.5t21 10.5t58 26q10 8 25.5 20.5t15.5 10.5v18q6 37 39 52q23 103 75 155q2 2 7.5 8.5t12.5 13.5t13 15
q-16 24 -16 44t16 30v14q5 62 29 96q-15 26 -15 33q0 26 52 58q-23 8 -23 22q-4 4 -10 22t-6 30t11 37.5t39 25.5t38 -21q2 -4 24.5 -34t22.5 -54v-248l1 -5l11 -97q0 -14 -6 -23q6 -6 6 -16l19 -115q0 -8 -4 -16l2 -6v-25q16 -16 16 -32v-177q0 -16 -13.5 -28.5t-31.5 -7.5
q-107 23 -107 127l2 36q-14 51 -14 95v20q-2 -8 -10 -16t-12 -17l-35 -35l2 -26q0 -26 -21 -35l-30 -14q12 4 8 -1t-4 -19.5t-39 -14.5q-35 -35 -72 -47q-2 -5 -10 -21t-17.5 -25t-37.5 -9l-11 2q-34 -17 -58 -17t-42 19l-10 -2l-109 79q-15 6 -26 30t-15 28q-18 10 -19 24
t-3 15.5t4 7.5l-19 16q-12 10 -20 33q-21 -122 -21 -221v-94q0 -93 2 -113t-16 -31q-2 -8 -4 -36q-7 -90 -26 -132.5t-83 -42.5q-36 -1 -36 65t6 82t8 21.5t4 3.5l12 107v92q0 35 19 92v72q0 11 8 41l-2 -2q2 6 8 30v166q-14 25 -14 35l10 35l4 29q-17 119 -31 161l-2 13
q0 116 131 116z" />
    <glyph glyph-name="mu" unicode="&#x3bc;" horiz-adv-x="1050" 
d="M186 1130q39 0 39 -44q0 -93 15.5 -154t64.5 -170q2 -27 29 -33q31 -41 31 -65v-11q14 -10 36.5 -34.5t22.5 -30.5v-4q6 -23 22 -31q14 -3 48 -8q0 16 11 26.5t21 10.5t58 26q10 8 25.5 20.5t15.5 10.5v18q6 37 39 52q23 103 75 155q2 2 7.5 8.5t12.5 13.5t13 15
q-16 24 -16 44t16 30v14q5 62 29 96q-15 26 -15 33q0 26 52 58q-23 8 -23 22q-4 4 -10 22t-6 30t11 37.5t39 25.5t38 -21q2 -4 24.5 -34t22.5 -54v-248l1 -5l11 -97q0 -14 -6 -23q6 -6 6 -16l19 -115q0 -8 -4 -16l2 -6v-25q16 -16 16 -32v-177q0 -16 -13.5 -28.5t-31.5 -7.5
q-107 23 -107 127l2 36q-14 51 -14 95v20q-2 -8 -10 -16t-12 -17l-35 -35l2 -26q0 -26 -21 -35l-30 -14q12 4 8 -1t-4 -19.5t-39 -14.5q-35 -35 -72 -47q-2 -5 -10 -21t-17.5 -25t-37.5 -9l-11 2q-34 -17 -58 -17t-42 19l-10 -2l-109 79q-15 6 -26 30t-15 28q-18 10 -19 24
t-3 15.5t4 7.5l-19 16q-12 10 -20 33q-21 -122 -21 -221v-94q0 -93 2 -113t-16 -31q-2 -8 -4 -36q-7 -90 -26 -132.5t-83 -42.5q-36 -1 -36 65t6 82t8 21.5t4 3.5l12 107v92q0 35 19 92v72q0 11 8 41l-2 -2q2 6 8 30v166q-14 25 -14 35l10 35l4 29q-17 119 -31 161l-2 13
q0 116 131 116z" />
    <glyph glyph-name="periodcentered" unicode="&#xb7;" horiz-adv-x="247" 
d="M159.5 668q41.5 -34 41.5 -45q0 -41 -29.5 -71t-55.5 -30q-39 0 -61 37t-22 65t14 48q36 30 54 30q17 0 58.5 -34z" />
    <glyph glyph-name="cedilla" unicode="&#xb8;" horiz-adv-x="512" 
d="M172 -207q-8 0 -16 4q-55 2 -69.5 27.5t-23.5 64.5l-4 25q0 2 -10.5 33.5t-17.5 113.5v19q0 14 12 29l49 43q12 12 27 12q78 0 78 -55v-148l20 4q27 -9 37 -14h4q18 4 36 10t38 6q50 0 99.5 -21.5t66.5 -68.5v-98q0 -25 -16 -42q-38 -39 -46 -7q0 -26 -6 -45t-6 -29
q-73 -86 -195 -125l-94 -31h-29q-41 8 -59 19.5t-18 43.5t22 56l99 16q18 9 65 23q10 14 41 31v-2q16 12 32.5 23t24.5 20l27 26q8 16 21.5 42t15.5 32h-49l-2 -2l-52 -31l-20 -1z" />
    <glyph glyph-name="questiondown" unicode="&#xbf;" horiz-adv-x="550" 
d="M287 944q-25 0 -35 19t8 47t55 50.5t59 22.5q44 0 44 -46t-31 -70.5t-76 -24.5l-16 2h-8zM427 655q1 0 0 1t-7 8l6 -11q0 2 1 2zM500 250q14 0 25.5 -10.5t11.5 -26.5v-53q0 -16 -11.5 -27.5t-39.5 -11.5t-46 -17q-99 -19 -164 -51q-29 -10 -51.5 -18t-40.5 -8t-30 12
t-39 13t-52.5 11.5t-48.5 57.5l-16 16q-5 10 -10.5 48t-8 54.5t-2.5 24.5t17 37q0 101 41 168.5t78 91.5q30 37 81 75q52 37 76.5 58t40.5 47q2 25 -15 40q-17 16 -17 32q0 28 16 51t45 23q61 0 78.5 -12t19.5 -33t4 -23l-8 4q16 -16 28.5 -40.5t12.5 -40.5t-14 -29v-6
q0 -35 -9.5 -42.5t-25.5 -11.5q10 -23 -6.5 -42t-40.5 -9l-31 12l-12 11q4 -4 -10.5 -27t-28.5 -35l-25 -22q-57 -49 -91 -97t-81 -159q3 -90 78 -119q36 36 83 41q47 4 63 15t32 28l19 18q31 4 72 -7q39 -11 53 -11z" />
    <glyph glyph-name="Agrave" unicode="&#xc0;" 
d="M322 911v-41q0 -30 -19 -49l2 -41q-14 -22 -16 -56t-13 -56q0 -38 -10 -88q44 19 59 22.5t23 11t38 7.5t87 22t117 29q-22 122 -33 188q0 51 -14 86l-27 109q-8 23 -13 36t-5 29q-24 70 -39 86q-51 -32 -65 -52q-13 -21 -34 -26q36 -4 22 -24q-13 -20 -18 -40t-11.5 -36
t-14.5 -45q11 -14 -12 -51q-4 -10 -4 -21zM186 51q-34 -98 -34 -233q0 -60 -39 -60q-20 0 -57.5 42t-37.5 48v314l39 39q-16 0 -24 -15v21q0 11 6 20t8 9v122q0 34 37 39q-4 4 -4 19h-6l-11 20q0 27 7 41t22 98v3q0 45 42 212t50 189q4 66 24 104q21 38 21 80v43q0 43 -4 62
q16 25 43 43t41 18t33 -18q8 2 24.5 4l33 4t30.5 4t32 2t37 -3t33.5 -9t25.5 -17.5t26 -25.5h-2l12 -15q18 -16 22.5 -33.5t12.5 -37.5l-2 2q4 -10 8 -17.5t-21 -23.5q18 8 35 -2t17 -29t-11 -41q11 -22 11 -27t4 -18.5t9 -34.5t11 -43t6 -39v-8l-2 -24q2 -8 7.5 -24.5
t9.5 -35l8 -37t6 -30.5l-2 4l18 -172v-9q4 -20 9.5 -37.5t5.5 -37.5v-94l16 -48q0 -66 8 -139t8 -133q0 -59 -30 -59q-23 0 -62 6q-33 20 -54 78.5t-21 71.5t7 63t31 59q-24 -10 -26 -10l-4 -2q-8 23 -8 45v49q-5 0 -7 8t-6 16.5t-4 24.5t7 27q7 12 9.5 19t2.5 32t-9 49
q-36 -25 -162 -65t-155 -76q-8 -12 -21.5 -15.5t-23.5 3.5q-7 -11 -25 -62l2 2q-43 -244 -43 -299zM365 1706q69 -35 92 -88h3q3 0 3 -2q-2 0 -3 1t-3 1l8 -12q0 8 -2 10l20 -8q63 -63 97 -113q35 -39 53 -74t18 -45t-11.5 -21.5t-23.5 -11.5q-35 0 -86 19.5t-65 58.5
q-16 14 -34.5 33t-41.5 41v-2q-25 23 -43 41t-43 41q-15 3 -55.5 36t-40.5 59t34.5 55.5t49.5 29.5t41 -29l14 -16q2 2 21 -6z" />
    <glyph glyph-name="Aacute" unicode="&#xc1;" 
d="M322 911v-41q0 -30 -19 -49l2 -41q-14 -22 -16 -56t-13 -56q0 -38 -10 -88q44 19 59 22.5t23 11t38 7.5t87 22t117 29q-22 122 -33 188q0 51 -14 86l-27 109q-8 23 -13 36t-5 29q-24 70 -39 86q-51 -32 -65 -52q-13 -21 -34 -26q36 -4 22 -24q-13 -20 -18 -40t-11.5 -36
t-14.5 -45q11 -14 -12 -51q-4 -10 -4 -21zM186 51q-34 -98 -34 -233q0 -60 -39 -60q-20 0 -57.5 42t-37.5 48v314l39 39q-16 0 -24 -15v21q0 11 6 20t8 9v122q0 34 37 39q-4 4 -4 19h-6l-11 20q0 27 7 41t22 98v3q0 45 42 212t50 189q4 66 24 104q21 38 21 80v43q0 43 -4 62
q16 25 43 43t41 18t33 -18q8 2 24.5 4l33 4t30.5 4t32 2t37 -3t33.5 -9t25.5 -17.5t26 -25.5h-2l12 -15q18 -16 22.5 -33.5t12.5 -37.5l-2 2q4 -10 8 -17.5t-21 -23.5q18 8 35 -2t17 -29t-11 -41q11 -22 11 -27t4 -18.5t9 -34.5t11 -43t6 -39v-8l-2 -24q2 -8 7.5 -24.5
t9.5 -35l8 -37t6 -30.5l-2 4l18 -172v-9q4 -20 9.5 -37.5t5.5 -37.5v-94l16 -48q0 -66 8 -139t8 -133q0 -59 -30 -59q-23 0 -62 6q-33 20 -54 78.5t-21 71.5t7 63t31 59q-24 -10 -26 -10l-4 -2q-8 23 -8 45v49q-5 0 -7 8t-6 16.5t-4 24.5t7 27q7 12 9.5 19t2.5 32t-9 49
q-36 -25 -162 -65t-155 -76q-8 -12 -21.5 -15.5t-23.5 3.5q-7 -11 -25 -62l2 2q-43 -244 -43 -299zM204 1331.5q-28 -0.5 -28 57.5q0 32 17.5 40.5t28.5 15.5t15.5 8t4.5 -5t8 -14l14 63q32 11 90 72v-2q36 42 70 65l37 10h2l16 33q4 26 33 31q1 0 18 12q68 49 102 42
q35 -8 40 -24q11 -31 -4.5 -66t-100.5 -124l-30 -14q-8 -4 -16.5 -13.5t-16.5 -16.5t-19.5 -16t-20.5 -16.5t-15.5 -12.5t-17.5 -18t-40 -30q-10 -10 -18 -17.5t-18 -26.5t-33 -19h-11l-26 2q-35 0 -44 -8t-37 -8.5zM557 1671q0 29 -12.5 33t-18.5 4t-11 -2q15 2 29 -8
t13 -27z" />
    <glyph glyph-name="Acircumflex" unicode="&#xc2;" 
d="M322 911v-41q0 -30 -19 -49l2 -41q-14 -22 -16 -56t-13 -56q0 -38 -10 -88q44 19 59 22.5t23 11t38 7.5t87 22t117 29q-22 122 -33 188q0 51 -14 86l-27 109q-8 23 -13 36t-5 29q-24 70 -39 86q-51 -32 -65 -52q-13 -21 -34 -26q36 -4 22 -24q-13 -20 -18 -40t-11.5 -36
t-14.5 -45q11 -14 -12 -51q-4 -10 -4 -21zM186 51q-34 -98 -34 -233q0 -60 -39 -60q-20 0 -57.5 42t-37.5 48v314l39 39q-16 0 -24 -15v21q0 11 6 20t8 9v122q0 34 37 39q-4 4 -4 19h-6l-11 20q0 27 7 41t22 98v3q0 45 42 212t50 189q4 66 24 104q21 38 21 80v43q0 43 -4 62
q16 25 43 43t41 18t33 -18q8 2 24.5 4l33 4t30.5 4t32 2t37 -3t33.5 -9t25.5 -17.5t26 -25.5h-2l12 -15q18 -16 22.5 -33.5t12.5 -37.5l-2 2q4 -10 8 -17.5t-21 -23.5q18 8 35 -2t17 -29t-11 -41q11 -22 11 -27t4 -18.5t9 -34.5t11 -43t6 -39v-8l-2 -24q2 -8 7.5 -24.5
t9.5 -35l8 -37t6 -30.5l-2 4l18 -172v-9q4 -20 9.5 -37.5t5.5 -37.5v-94l16 -48q0 -66 8 -139t8 -133q0 -59 -30 -59q-23 0 -62 6q-33 20 -54 78.5t-21 71.5t7 63t31 59q-24 -10 -26 -10l-4 -2q-8 23 -8 45v49q-5 0 -7 8t-6 16.5t-4 24.5t7 27q7 12 9.5 19t2.5 32t-9 49
q-36 -25 -162 -65t-155 -76q-8 -12 -21.5 -15.5t-23.5 3.5q-7 -11 -25 -62l2 2q-43 -244 -43 -299zM160 1327q-37 0 -37 41t39 86q10 14 22.5 29.5t24.5 38.5l35 20h-6l2 2h6q25 62 61 72h2q15 25 27 38t29 46l26 14q38 27 52 27t14 -1t4 -1h14q110 -36 118.5 -70.5
t12.5 -52.5l6 -27q8 -10 17.5 -26.5t18.5 -30.5t19.5 -30.5t14.5 -20.5t7 -10.5t1 -6.5q33 -47 33 -86t-37 -39l-90 9q-32 35 -44 70q-13 36 -28 50q-38 70 -63 105q-8 -14 -19.5 -25.5t-21.5 -23.5l-29 -33q-12 -12 -29 -12h-8q7 -7 -35 -60v2q-35 -51 -58 -72
q-22 -22 -101 -22z" />
    <glyph glyph-name="Atilde" unicode="&#xc3;" 
d="M322 911v-41q0 -27 -19 -49l2 -41q-14 -22 -16 -56t-13 -56q0 -38 -10 -88q44 19 59 23q15 3 21 9t25 9q45 0 102 22t117 29q-22 122 -33 188q0 51 -14 86l-27 109q-8 23 -13 36t-5 29q-24 70 -39 86q-50 -31 -64 -52t-35 -26q36 -4 22 -24q-13 -20 -18 -40
q-6 -20 -12 -36t-14 -45q10 -13 -12 -51q-4 -10 -4 -21zM772 358q0 -69 8 -140t8 -131t-30 -60q-23 0 -62 6q-33 20 -67 114q-8 23 -8 36t7 63t31 59q-24 -10 -26 -10l-4 -2q-8 23 -8 45v49q-5 0 -7 8q-2 9 -6 17t-4 24t10 31q10 16 9 44q0 28 -9 52q-29 -20 -159 -64
q-129 -43 -158 -77q-7 -12 -21 -15t-24 3q-7 -11 -25 -62l2 2q-41 -233 -43 -299q-34 -98 -34 -233q0 -58 -39 -60q-9 0 -51 38t-44 52v314l39 39q-18 0 -24 -15v21q0 22 14 29v122q0 35 37 39q-4 4 -4 19h-6l-11 20q0 27 7 41t22 98v3q0 49 41 211t51 190q4 66 24 104
q21 38 21 80v64q0 23 -4 41q16 25 43 43t41 18t33 -18q8 2 36 5t47 6t37 3q18 -1 46 -5t45 -20q16 -16 31 -30h-2l12 -15q18 -16 22 -33t13 -38l-2 2q4 -10 8 -18t-21 -23q18 8 34 -2q34 -21 7 -70q11 -22 11 -27q0 -4 4 -18t9 -35t11 -43t6 -39v-8l-2 -24q2 -8 12 -42
t19 -85l-2 4l18 -172v-9q3 -20 9 -37t6 -38v-94zM444 1423l-38 26q0 1 -3 1q-20 10 -8 39q-25 8 -22 20q2 13 -4 19q-5 6 -7 12t-4 8t-2 6q-6 2 -8 9h-12l-4 -2l4 4q-25 -19 -41 -62t-16 -59t-23 -25v-6q0 -23 -16 -33t-37 -2l-45 21l-23 35q0 -12 -2 -7q-2 6 -8 21
q-6 16 -6 32t28 58q0 29 29 37q11 25 27 41l16 49q6 0 21 18l43 19q4 2 7 0t5 -14q2 12 14 22t29 6l47 -6l-6 -14h4q34 -5 61 -49q6 2 15 0q18 -10 24 -28t28 -39q21 -22 27 -34t15 -12l16 2v-7q1 -13 7 -6t10 29q-6 -4 -4 -1t7 11t19 17h-2q12 19 31 27q-20 0 -20 1
q1 1 4 3q10 26 23 55t48 29t46 -16t14 -40q28 -8 28 -32t-11 -42t-21 -34t-18 -26t-7 -15q0 -39 -37 -39q-12 -12 -29 -8q-40 -58 -58 -59q-17 -1 -28 10q8 -11 -10 -17q-19 -10 -35 -10t-22 5t-10 9l-6 6t-7 -6l11 -4q-6 0 -11 4q-55 29 -37 43z" />
    <glyph glyph-name="Adieresis" unicode="&#xc4;" 
d="M322 911v-41q0 -30 -19 -49l2 -41q-14 -22 -16 -56t-13 -56q0 -38 -10 -88q44 19 59 22.5t23 11t38 7.5t87 22t117 29q-22 122 -33 188q0 51 -14 86l-27 109q-8 23 -13 36t-5 29q-24 70 -39 86q-51 -32 -65 -52q-13 -21 -34 -26q36 -4 22 -24q-13 -20 -18 -40t-11.5 -36
t-14.5 -45q11 -14 -12 -51q-4 -10 -4 -21zM186 51q-34 -98 -34 -233q0 -60 -39 -60q-20 0 -57.5 42t-37.5 48v314l39 39q-16 0 -24 -15v21q0 11 6 20t8 9v122q0 34 37 39q-4 4 -4 19h-6l-11 20q0 27 7 41t22 98v3q0 45 42 212t50 189q4 66 24 104q21 38 21 80v43q0 43 -4 62
q16 25 43 43t41 18t33 -18q8 2 24.5 4l33 4t30.5 4t32 2t37 -3t33.5 -9t25.5 -17.5t26 -25.5h-2l12 -15q18 -16 22.5 -33.5t12.5 -37.5l-2 2q4 -10 8 -17.5t-21 -23.5q18 8 35 -2t17 -29t-11 -41q11 -22 11 -27t4 -18.5t9 -34.5t11 -43t6 -39v-8l-2 -24q2 -8 7.5 -24.5
t9.5 -35l8 -37t6 -30.5l-2 4l18 -172v-9q4 -20 9.5 -37.5t5.5 -37.5v-94l16 -48q0 -66 8 -139t8 -133q0 -59 -30 -59q-23 0 -62 6q-33 20 -54 78.5t-21 71.5t7 63t31 59q-24 -10 -26 -10l-4 -2q-8 23 -8 45v49q-5 0 -7 8t-6 16.5t-4 24.5t7 27q7 12 9.5 19t2.5 32t-9 49
q-36 -25 -162 -65t-155 -76q-8 -12 -21.5 -15.5t-23.5 3.5q-7 -11 -25 -62l2 2q-43 -244 -43 -299zM467 1462.5q-21 35.5 -21 75.5t17 57q37 31 57 31t44.5 -17t64.5 -69q0 -60 -39 -84l-2 -2l-8 -4q-10 -10 -27 -14h4q-14 -9 -41 -9q-28 0 -49 35.5zM293 1434h-7
q-6 0 -30 6q-27 0 -35 18q-28 22 -28 58t25.5 74t68.5 38q66 0 77 -22.5t11 -68.5t-13.5 -74.5t-68.5 -28.5zM336 1501l4 6l-12 -2zM336 1501l-8 4l12 2z" />
    <glyph glyph-name="Aring" unicode="&#xc5;" 
d="M322 911v-41q0 -27 -19 -49l2 -41q-14 -22 -16 -56t-13 -56q0 -38 -10 -88q44 19 59 23q15 3 21 9t25 9q45 0 102 22t117 29q-22 122 -33 188q0 51 -14 86l-27 109q-8 23 -13 36t-5 29q-24 70 -39 86q-50 -31 -64 -52t-35 -26q36 -4 22 -24q-13 -20 -18 -40
q-6 -20 -12 -36t-14 -45q10 -13 -12 -51q-4 -10 -4 -21zM772 358q0 -69 8 -140t8 -131t-30 -60q-23 0 -62 6q-33 20 -67 114q-8 23 -8 36t7 63t31 59q-24 -10 -26 -10l-4 -2q-8 23 -8 45v49q-5 0 -7 8q-2 9 -6 17t-4 24t10 31q10 16 9 44q0 28 -9 52q-29 -20 -159 -64
q-129 -43 -158 -77q-7 -12 -21 -15t-24 3q-7 -11 -25 -62l2 2q-41 -233 -43 -299q-34 -98 -34 -233q0 -58 -39 -60q-9 0 -51 38t-44 52v314l39 39q-18 0 -24 -15v21q0 22 14 29v122q0 35 37 39q-4 4 -4 19h-6l-11 20q0 27 7 41t22 98v3q0 49 41 211t51 190q4 66 24 104
q21 38 21 80v64q0 23 -4 41q16 25 43 43t41 18t33 -18q8 2 36 5t47 6t37 3q18 -1 46 -5t45 -20q16 -16 31 -30h-2l12 -15q18 -16 22 -33t13 -38l-2 2q4 -10 8 -18t-21 -23q18 8 34 -2q34 -21 7 -70q11 -22 11 -27q0 -4 4 -18t9 -35t11 -43t6 -39v-8l-2 -24q2 -8 12 -42
t19 -85l-2 4l18 -172v-9q3 -20 9 -37t6 -38v-94zM354 1592q0 -38 -10 -52q2 -4 2 -5t4 -17q6 -16 12 -30q6 -15 27 -28q36 14 78 45l2 4q3 3 20 33l-2 4q-53 53 -53 87t19 46l-19 -4q-12 -10 -35 -3t-30 7l-2 -4l-25 -22q12 -23 12 -61zM193 1599l30 118q-1 29 13 40
q35 31 133 31h6q43 0 78 -7t34 -52q0 -16 -22 -39q18 10 53 10t47 -11t31 -40q16 -10 27 -31q31 -23 35 -38q5 -15 -27 -24q2 -6 2 -28q1 -22 -15 -49t-21 -35t-11 -19q-12 -12 -25 -16h6q0 -21 -12 -31t-27 -10q-28 -23 -133 -25h-26l-29 3q-35 0 -39 32v-10q-78 47 -78 92
q0 6 2 10q-28 20 -28 50l-4 -7q0 16 6 27q-6 14 -6 39v20z" />
    <glyph glyph-name="AE" unicode="&#xc6;" horiz-adv-x="1161" 
d="M352 614h4l17 25q-2 5 -2 25v77q0 56 8 72v109q-12 18 -2 39q-4 8 -4 12v112q-10 -44 -17 -51v-24l-18 -47v-7l-10 -43l-2 -4v-39q0 -30 -19 -49l2 -33l-14 -43v-32l-14 -41v-35l-13 -57q6 4 11.5 5t7.5 3l35 12l16 8l-12 -4q14 10 26 10zM379 338q-14 32 -14 119
l-29 -13q-4 -4 -18.5 -11t-14.5 -11q-26 -26 -47 -12q-14 -23 -20 -58l-33 -176v-31l-13 -45v-51l-18 -63q-10 -41 -16 -162v-27q0 -16 -11.5 -27.5t-22.5 -11.5q-15 0 -57 39.5t-42 50.5v314q0 16 14 31v14q0 11 6 20t8 9v122q0 16 11.5 26.5t25.5 12.5q-4 4 -4 19h-6
q-8 8 -8 20v27q0 16 10 27.5t26 11.5q-20 4 -17 18t4 28.5t5 29.5v22l17 51l-2 -2l37 172q2 14 7 36t10.5 56.5t20.5 65.5q4 16 10.5 48t12.5 42l-4 -4l26 55q3 15 3 50v40q0 39 -5 58q16 25 42.5 43t40.5 18t32 -18l12 2l15 2q11 29 35 29q45 -1 90 -76h159l33 14l21 -2
q21 16 47 16h43l69 15q29 14 35 14h13l40 12h5q5 5 57 21q29 -10 49.5 -44t20.5 -58t-11.5 -35t-44.5 -11t-61 -4v-2q-30 -30 -68 -30l-35 2l-24 -11q-10 -4 -29 -11.5t-37 -16.5q-17 -9 -22 -9h-17q-8 0 -20 9q-2 -2 -4 -2t-2 -2l-62 -19h-12l4 -2q-30 -12 -44 -12t-77 12
v-6q0 -22 -16 -43q16 -16 16 -55v-52q12 -10 12.5 -28.5t-12.5 -28.5q2 -10 2 -13v-36q0 -35 -4 -45q7 -14 17 -66v-22q0 -18 -21 -41l6 -17q73 25 99 25t39 -8l53 37h43q4 0 8 2l-2 -2q36 18 70 18l38 -39q0 -38 -36 -85.5t-60 -47.5h-43q6 0 -12 -6l2 2q-37 -14 -63 -14
q-25 0 -31 2q-30 -15 -51 -15h-15q-10 -14 -24 -14l-15 -4v-176q0 -6 -4 -15q4 -8 4 -9v-46q8 -37 15.5 -48t19.5 -11t19 7t75.5 20t79.5 18h33q20 10 35 16q2 -2 6 -2h12l123 64h25q20 0 32 12l31 14q20 10 35.5 -2t15.5 -35v-49q-4 -8 -13 -27.5t-15 -25.5
q-20 -10 -27 -10h-6l-76 -37q-34 -26 -57 -37h-21q-20 -8 -54 -15t-67 -16l-133 -30h-58q-27 0 -38 14h-47q-50 0 -66 44t-16 56l2 33v8q-2 0 -5 9t-7 19.5t-4 20.5v15q0 6 4 12q-10 18 2 37z" />
    <glyph glyph-name="Ccedilla" unicode="&#xc7;" horiz-adv-x="823" 
d="M287 1229q10 49 53 49h28q5 0 11 -2q18 32 71 32q52 1 62 -34q6 0 27 11q23 11 39 2t20 -30v-8l2 -12v-10q32 -13 41 -56q26 -16 35 -41h2q41 -10 41 -49v-14q14 -28 14 -68q0 -71 -76 -71q-33 0 -46 21t-26 51q-15 33 -40 63t-25 47v8q0 4 1 6t1 6q0 -3 -47 11l-35 -2
h-11q-7 0 -13 2q-47 -49 -99 -68l-12 -22q-6 -15 -9 -21t-6 -5t-7 3q-5 2 -11 -1q-18 -9 -18 -34q0 -26 -23 -51q-52 -74 -53 -100q-38 -107 -42 -168q-5 -62 -5 -128t29 -118q6 -20 14 -48t7 -30t3 -12q16 -8 18 -22t5 -25q2 -10 0 -10l2 -2q25 -16 40 -41t23 -39
q105 -64 154 -66h29q72 0 103 7t108 53l22 16q38 34 63 34q43 1 46 -38q1 -67 -19 -101q-36 -61 -88 -61h-22q-24 -9 -47 -27l-19 -2l-2 -4q-12 -12 -27 -12h-49v-68q20 4 26 2t32 -12h4l73 17q87 0 139 -49q19 -17 27 -42v-98q0 -25 -16 -42q-37 -39 -45 -7q0 -27 -6 -45
t-6 -29q-73 -86 -195 -125l-94 -30h-29q-41 8 -63 22t-12 64q3 14 20 32l98 17q17 8 31 12l35 10q10 14 41 31v-2q16 12 32 23t25 20l27 27l21 42q13 26 16 31h-50l-2 -2l-51 -30l-82 -5h-20q-8 0 -17 5q-55 1 -69 27t-23 65l-4 24q0 2 -9 29t-16 86h-22q-11 5 -29 20
q-69 26 -73 31l-27 27l-23 10l-49 27l-18 41q-25 50 -45 71l-37 70q0 32 -19 100l3 -2q-29 104 -29 156q0 53 16 141l15 125q0 36 13 77t21 56q6 23 37 33v8q0 35 33 39q-10 72 34 105q15 12 28 17t14 9q1 14 25 41t30 31l23 -2h4z" />
    <glyph glyph-name="Egrave" unicode="&#xc8;" horiz-adv-x="786" 
d="M393 475q-6 0 -28 -9t-46 -9t-28 2q-18 -15 -58 -15h-12q-11 -13 -39 -20v-176q0 -4 -4 -12q4 -16 4 -29v-25q13 -52 13 -67q6 6 32 6h4q8 10 17.5 13t13.5 5t10 2l28 2q29 2 67 9q-8 0 8 8t26 8h15q16 0 22 7t25 7h18q12 0 19 -8q54 47 108 72q18 -4 34 4
q62 33 79.5 18.5t17.5 -39.5t-5 -52t-36 -58q-25 -2 -92 -37h2q-49 -31 -63 -33t-51 -10t-83 -19.5t-87.5 -21.5t-55.5 -14t-29.5 1t-47.5 14t-66 1q-35 0 -58.5 36t-23.5 64l2 31v14l-12 52q0 14 2 20q-8 18 0 33q-8 35 -9 83t-8 66q1 -1 4 -1q-1 1 -4 1q0 10 -4 15
q0 -6 4 -15q-12 10 -29.5 28.5t-17.5 49.5q0 53 39 53q7 0 23 27l-2 18q0 20 4 31q-6 16 -6 52t10 61l-2 26v93q-10 16 -2 39l-2 10v117l-32 28q-32 28 -32 54t17 42v5l-2 16q0 33 14 43t35 18v11q0 16 9.5 27.5t27.5 11.5t43.5 -24t42.5 -54h161q-6 0 2 4l33 12l17 -2
q16 16 47 16h43q12 0 37 7l26 6l-12 -8q38 19 99 38t65 19q33 -10 53.5 -42t20.5 -58q0 -48 -38 -48t-79 -6q6 0 -2 -5q-40 -25 -66 -25l-33 2h-6q-75 -26 -88 -39q-12 -12 -25.5 -9t-33.5 13l2 -2q-2 0 -6 2l-33 -17q-47 -26 -74 -26t-84 12v-4q0 -29 -14 -43
q14 -28 14 -55v-52q12 -12 13.5 -29.5t-13.5 -29.5q2 -8 2 -11v-24q0 -35 -6 -59q25 -41 19 -73t-19 -58q4 -8 4 -20t-16 -25q32 24 24 24q8 0 21 11q16 6 24.5 10t23.5 8t30 4q16 0 24 -4q66 51 181 51l38 -39q0 -39 -37.5 -86t-60.5 -47h-41zM152 1719q31 36 47 36
q17 0 59 -39q21 -11 25 -12l-2 2q16 -10 35.5 -22t31.5 -30t31 -46q0 6 -4 10h8q64 -47 118 -153.5t51 -109.5q-12 -12 -37 -12t-57 15q-33 15 -62 47t-50.5 52t-44 40.5t-43 37.5t-43.5 40q-59 36 -76.5 61t-17.5 36t31 47z" />
    <glyph glyph-name="Eacute" unicode="&#xc9;" horiz-adv-x="786" 
d="M393 475q-6 0 -28 -9t-46 -9t-28 2q-18 -15 -58 -15h-12q-11 -13 -39 -20v-176q0 -4 -4 -12q4 -16 4 -29v-25q13 -52 13 -67q6 6 32 6h4q8 10 17.5 13t13.5 5t10 2l28 2q29 2 67 9q-8 0 8 8t26 8h15q16 0 22 7t25 7h18q12 0 19 -8q54 47 108 72q18 -4 34 4
q62 33 79.5 18.5t17.5 -39.5t-5 -52t-36 -58q-25 -2 -92 -37h2q-49 -31 -63 -33t-51 -10t-83 -19.5t-87.5 -21.5t-55.5 -14t-29.5 1t-47.5 14t-66 1q-35 0 -58.5 36t-23.5 64l2 31v14l-12 52q0 14 2 20q-8 18 0 33q-8 35 -9 83t-8 66q1 -1 4 -1q-1 1 -4 1q0 10 -4 15
q0 -6 4 -15q-12 10 -29.5 28.5t-17.5 49.5q0 53 39 53q7 0 23 27l-2 18q0 20 4 31q-6 16 -6 52t10 61l-2 26v93q-10 16 -2 39l-2 10v117l-32 28q-32 28 -32 54t17 42v5l-2 16q0 33 14 43t35 18v11q0 16 9.5 27.5t27.5 11.5t43.5 -24t42.5 -54h161q-6 0 2 4l33 12l17 -2
q16 16 47 16h43q12 0 37 7l26 6l-12 -8q38 19 99 38t65 19q33 -10 53.5 -42t20.5 -58q0 -48 -38 -48t-79 -6q6 0 -2 -5q-40 -25 -66 -25l-33 2h-6q-75 -26 -88 -39q-12 -12 -25.5 -9t-33.5 13l2 -2q-2 0 -6 2l-33 -17q-47 -26 -74 -26t-84 12v-4q0 -29 -14 -43
q14 -28 14 -55v-52q12 -12 13.5 -29.5t-13.5 -29.5q2 -8 2 -11v-24q0 -35 -6 -59q25 -41 19 -73t-19 -58q4 -8 4 -20t-16 -25q32 24 24 24q8 0 21 11q16 6 24.5 10t23.5 8t30 4q16 0 24 -4q66 51 181 51l38 -39q0 -39 -37.5 -86t-60.5 -47h-41zM492 1673q-3 35 -31 35
q-6 0 -10 -2q77 57 119 57t42 -39q0 -27 -9 -46t-10 -22t-3 -7l-146 -146l-36 -26h2q-89 -66 -100 -80.5t-19 -32.5t-33 -18h-12l-27 2q-35 0 -43 -8t-36.5 -8.5t-28.5 57.5q0 32 17 40.5t38 18.5q10 10 10 -4l10 -10l15 63q6 4 27.5 15.5t31.5 19.5l35 37q16 16 34.5 33.5
t21.5 20.5t19.5 8t28.5 9l15 35q6 27 35 31q37 0 43 -33z" />
    <glyph glyph-name="Ecircumflex" unicode="&#xca;" horiz-adv-x="786" 
d="M393 475q-6 0 -28 -9t-46 -9t-28 2q-18 -15 -58 -15h-12q-11 -13 -39 -20v-176q0 -4 -4 -12q4 -16 4 -29v-25q13 -52 13 -67q6 6 32 6h4q8 10 17.5 13t13.5 5t10 2l28 2q29 2 67 9q-8 0 8 8t26 8h15q16 0 22 7t25 7h18q12 0 19 -8q54 47 108 72q18 -4 34 4
q62 33 79.5 18.5t17.5 -39.5t-5 -52t-36 -58q-25 -2 -92 -37h2q-49 -31 -63 -33t-51 -10t-83 -19.5t-87.5 -21.5t-55.5 -14t-29.5 1t-47.5 14t-66 1q-35 0 -58.5 36t-23.5 64l2 31v14l-12 52q0 14 2 20q-8 18 0 33q-8 35 -9 83t-8 66q1 -1 4 -1q-1 1 -4 1q0 10 -4 15
q0 -6 4 -15q-12 10 -29.5 28.5t-17.5 49.5q0 53 39 53q7 0 23 27l-2 18q0 20 4 31q-6 16 -6 52t10 61l-2 26v93q-10 16 -2 39l-2 10v117l-32 28q-32 28 -32 54t17 42v5l-2 16q0 33 14 43t35 18v11q0 16 9.5 27.5t27.5 11.5t43.5 -24t42.5 -54h161q-6 0 2 4l33 12l17 -2
q16 16 47 16h43q12 0 37 7l26 6l-12 -8q38 19 99 38t65 19q33 -10 53.5 -42t20.5 -58q0 -48 -38 -48t-79 -6q6 0 -2 -5q-40 -25 -66 -25l-33 2h-6q-75 -26 -88 -39q-12 -12 -25.5 -9t-33.5 13l2 -2q-2 0 -6 2l-33 -17q-47 -26 -74 -26t-84 12v-4q0 -29 -14 -43
q14 -28 14 -55v-52q12 -12 13.5 -29.5t-13.5 -29.5q2 -8 2 -11v-24q0 -35 -6 -59q25 -41 19 -73t-19 -58q4 -8 4 -20t-16 -25q32 24 24 24q8 0 21 11q16 6 24.5 10t23.5 8t30 4q16 0 24 -4q66 51 181 51l38 -39q0 -39 -37.5 -86t-60.5 -47h-41zM281 1663h2l10 18
q11 21 18 25q14 4 31 20t47 15l21 -2q84 -26 102 -48t24 -49.5t9 -37.5l22 -48q32 -61 47 -67l23 -45q22 -31 22 -57q1 -48 -39 -48q-73 0 -94 16t-30 51t-29 56q-15 21 -39 66l-31 47l-14 -16q-12 -14 -37 -47t-47 -33h-6q11 -4 -2 -17q-18 -27 -39 -45
q-44 -81 -88.5 -85.5t-65.5 -4.5q-39 0 -39 41t43 94q23 23 41 60l35 20h-6l2 2h6q25 62 62 72l8 2q8 12 15 19t11 17t5 9z" />
    <glyph glyph-name="Edieresis" unicode="&#xcb;" horiz-adv-x="786" 
d="M393 475q-6 0 -28 -9t-46 -9t-28 2q-18 -15 -58 -15h-12q-11 -13 -39 -20v-176q0 -4 -4 -12q4 -16 4 -29v-25q13 -52 13 -67q6 6 32 6h4q8 10 17.5 13t13.5 5t10 2l28 2q29 2 67 9q-8 0 8 8t26 8h15q16 0 22 7t25 7h18q12 0 19 -8q54 47 108 72q18 -4 34 4
q62 33 79.5 18.5t17.5 -39.5t-5 -52t-36 -58q-25 -2 -92 -37h2q-49 -31 -63 -33t-51 -10t-83 -19.5t-87.5 -21.5t-55.5 -14t-29.5 1t-47.5 14t-66 1q-35 0 -58.5 36t-23.5 64l2 31v14l-12 52q0 14 2 20q-8 18 0 33q-8 35 -9 83t-8 66q1 -1 4 -1q-1 1 -4 1q0 10 -4 15
q0 -6 4 -15q-12 10 -29.5 28.5t-17.5 49.5q0 53 39 53q7 0 23 27l-2 18q0 20 4 31q-6 16 -6 52t10 61l-2 26v93q-10 16 -2 39l-2 10v117l-32 28q-32 28 -32 54t17 42v5l-2 16q0 33 14 43t35 18v11q0 16 9.5 27.5t27.5 11.5t43.5 -24t42.5 -54h161q-6 0 2 4l33 12l17 -2
q16 16 47 16h43q12 0 37 7l26 6l-12 -8q38 19 99 38t65 19q33 -10 53.5 -42t20.5 -58q0 -48 -38 -48t-79 -6q6 0 -2 -5q-40 -25 -66 -25l-33 2h-6q-75 -26 -88 -39q-12 -12 -25.5 -9t-33.5 13l2 -2q-2 0 -6 2l-33 -17q-47 -26 -74 -26t-84 12v-4q0 -29 -14 -43
q14 -28 14 -55v-52q12 -12 13.5 -29.5t-13.5 -29.5q2 -8 2 -11v-24q0 -35 -6 -59q25 -41 19 -73t-19 -58q4 -8 4 -20t-16 -25q32 24 24 24q8 0 21 11q16 6 24.5 10t23.5 8t30 4q16 0 24 -4q66 51 181 51l38 -39q0 -39 -37.5 -86t-60.5 -47h-41zM524.5 1588
q40.5 -38 40.5 -48q0 -43 -8.5 -54.5t-31.5 -27.5q-23 -17 -40 -22h7q-39 -20 -60.5 -2t-36 39.5t-14.5 65.5t27.5 65.5t51.5 21.5t64.5 -38zM229 1628q52 0 69 -30.5t14 -66.5t-24.5 -66.5t-47.5 -30.5t-39 6h-8q-23 0 -35 18q-27 22 -27 58t23 74t75 38z" />
    <glyph glyph-name="Igrave" unicode="&#xcc;" horiz-adv-x="751" 
d="M664 31q-39 -27 -68 2h-10l-140 -15h-47q-35 -20 -61 -20t-35 18l-18 -8l-19 -6q16 0 -40 -12.5t-103 -12.5h-68q-20 0 -30.5 14.5t-6.5 33.5l19 57l22 22q56 37 146 37l43 13h18l17 -4q2 -2 4 -2.5t4 -1.5t6 -1v320l-10 76v579h-25q-14 -14 -31 -14l-28 8q-20 -8 -29 -8
l-141 -6q-39 0 -39 39q0 104 104 104h103l10 12l37 17q31 10 45 -15q27 17 55 17h31q23 9 47 14h14l18 -5q19 -5 23 -7l51 12l41 2h33q72 0 101.5 -15t29.5 -31q0 -28 -100 -60.5t-143 -32.5h-9q6 0 -24 -12l2 2q-35 -20 -51 -21h-11l5 -53l16 -629q4 -4 7 -9t7 -7l15 -70
v-28l-17 -41q29 -46 33 -68v-25l-14 -36h22l51 8q40 8 70 8h39q14 14 37 14h14q59 0 59 -133q0 -16 -10.5 -26.5t-30.5 -10.5t-40 17zM100 1667q0 14 30.5 51t46.5 37q15 0 33.5 -17.5t29.5 -27.5q2 2 22 -6l-2 2q55 -34 64.5 -47.5t15.5 -22.5l18 -28q0 6 -4 10h8
q66 -49 120 -154.5t50 -108.5q-14 -12 -38 -12q-23 0 -42 8q-18 8 -46 29t-41 43l2 -6q-31 31 -86 76q-23 23 -46.5 43t-46.5 43q-88 53 -88 88z" />
    <glyph glyph-name="Iacute" unicode="&#xcd;" horiz-adv-x="751" 
d="M664 31q-39 -27 -68 2h-10l-140 -15h-47q-35 -20 -61 -20t-35 18l-18 -8l-19 -6q16 0 -40 -12.5t-103 -12.5h-68q-20 0 -30.5 14.5t-6.5 33.5l19 57l22 22q56 37 146 37l43 13h18l17 -4q2 -2 4 -2.5t4 -1.5t6 -1v320l-10 76v579h-25q-14 -14 -31 -14l-28 8q-20 -8 -29 -8
l-141 -6q-39 0 -39 39q0 104 104 104h103l10 12l37 17q31 10 45 -15q27 17 55 17h31q23 9 47 14h14l18 -5q19 -5 23 -7l51 12l41 2h33q72 0 101.5 -15t29.5 -31q0 -28 -100 -60.5t-143 -32.5h-9q6 0 -24 -12l2 2q-35 -20 -51 -21h-11l5 -53l16 -629q4 -4 7 -9t7 -7l15 -70
v-28l-17 -41q29 -46 33 -68v-25l-14 -36h22l51 8q40 8 70 8h39q14 14 37 14h14q59 0 59 -133q0 -16 -10.5 -26.5t-30.5 -10.5t-40 17zM139.5 1331.5q-28.5 -0.5 -28.5 57.5q0 32 17.5 40.5t29.5 15.5t15 8t3 -9l10 -10l15 63q6 4 27.5 15.5t31.5 19.5l35 37q16 16 34.5 33.5
t21.5 20.5t19.5 8t28.5 9l15 35q6 26 35 31h2q35 -5 41 -33q-2 27 -12.5 31t-20.5 4q-3 0 10 10q65 45 104 45t39 -37t-20 -69q4 4 -2 -8l-146 -146l-36 -26h2q-89 -66 -100 -80.5t-19 -32.5t-33 -18h-12l-27 2q-35 0 -43 -8t-36.5 -8.5z" />
    <glyph glyph-name="Icircumflex" unicode="&#xce;" horiz-adv-x="751" 
d="M664 31q-39 -27 -68 2h-10l-140 -15h-47q-35 -20 -61 -20t-35 18l-18 -8l-19 -6q16 0 -40 -12.5t-103 -12.5h-68q-20 0 -30.5 14.5t-6.5 33.5l19 57l22 22q56 37 146 37l43 13h18l17 -4q2 -2 4 -2.5t4 -1.5t6 -1v320l-10 76v579h-25q-14 -14 -31 -14l-28 8q-20 -8 -29 -8
l-141 -6q-39 0 -39 39q0 104 104 104h103l10 12l37 17q31 10 45 -15q27 17 55 17h31q23 9 47 14h14l18 -5q19 -5 23 -7l51 12l41 2h33q72 0 101.5 -15t29.5 -31q0 -28 -100 -60.5t-143 -32.5h-9q6 0 -24 -12l2 2q-35 -20 -51 -21h-11l5 -53l16 -629q4 -4 7 -9t7 -7l15 -70
v-28l-17 -41q29 -46 33 -68v-25l-14 -36h22l51 8q40 8 70 8h39q14 14 37 14h14q59 0 59 -133q0 -16 -10.5 -26.5t-30.5 -10.5t-40 17zM659 1386q1 -47 -39 -47q-73 0 -94 16t-30 50q-8 35 -27 59t-41 64l-31 47l-14 -16q-47 -66 -63.5 -73t-20.5 -7h-6q11 -4 -2 -17
q-18 -27 -39 -45q-44 -81 -88.5 -85.5t-65.5 -4.5q-39 0 -39 43t30 75q30 33 54 77l35 20h-4v2h6q25 62 62 72l8 2q4 6 13 15t13 19t5 11h2l10 18q11 21 18 25q14 4 31 20t47 15l21 -2q84 -26 105 -52t26 -71l4 -12l24 -48q25 -57 45 -67q17 -35 31 -56t14 -47z" />
    <glyph glyph-name="Idieresis" unicode="&#xcf;" horiz-adv-x="751" 
d="M664 31q-39 -27 -68 2h-10l-140 -15h-47q-35 -20 -61 -20t-35 18l-18 -8l-19 -6q16 0 -40 -12.5t-103 -12.5h-68q-20 0 -30.5 14.5t-6.5 33.5l19 57l22 22q56 37 146 37l43 13h18l17 -4q2 -2 4 -2.5t4 -1.5t6 -1v320l-10 76v579h-25q-14 -14 -31 -14l-28 8q-20 -8 -29 -8
l-141 -6q-39 0 -39 39q0 104 104 104h103l10 12l37 17q31 10 45 -15q27 17 55 17h31q23 9 47 14h14l18 -5q19 -5 23 -7l51 12l41 2h33q72 0 101.5 -15t29.5 -31q0 -28 -100 -60.5t-143 -32.5h-9q6 0 -24 -12l2 2q-35 -20 -51 -21h-11l5 -53l16 -629q4 -4 7 -9t7 -7l15 -70
v-28l-17 -41q29 -46 33 -68v-25l-14 -36h22l51 8q40 8 70 8h39q14 14 37 14h14q59 0 59 -133q0 -16 -10.5 -26.5t-30.5 -10.5t-40 17zM365 1525q0 11 2 30.5t8 34t31.5 25.5t37.5 11q25 0 63 -39.5t38 -46.5q0 -43 -3 -46l-44 -44q-10 -10 -20 -14t-16.5 -6.5t-23.5 -2.5
t-32 12.5t-24 28t-13 31t-4 26.5zM280 1605.5q11 -22.5 11 -70.5t-16.5 -74.5t-63.5 -26.5q-12 0 -31 6h-6q-27 0 -35 18q-28 22 -28 58t23.5 74t79.5 38q55 0 66 -22.5z" />
    <glyph glyph-name="Eth" unicode="&#xd0;" horiz-adv-x="1136" 
d="M-29 678q1 37 51 37h52q51 0 88 2q-2 20 -10 47v147q0 147 -15 195q0 70 -16 117l-2 22q0 16 11 27.5t28 11.5h47q36 0 42.5 -27.5t8.5 -71t12 -108.5l4 13q6 53 39 81.5t21 40.5q4 11 47 56t80.5 68.5t130.5 23.5q19 0 85 -22.5t67 -23.5t53.5 -32.5t140.5 -169.5
q0 -2 -1 -10t-1 -12q2 4 9 -2.5t13 -10.5q6 -12 16.5 -29.5l24 -40t29.5 -46.5q0 -1 -12 -31q26 -42 26 -58v-59q12 -12 13.5 -30.5t-11.5 -32.5l13 -37q3 -12 6.5 -48t5.5 -55.5t2 -29.5v-9q-1 -24 -15 -63t-14 -49v-33q0 -30 -22 -59q-6 -12 -25 -17q12 0 8 -10t-8.5 -25
t-20.5 -39q-44 -64 -75 -105t-57 -54l-41 -19q-6 -4 -4 2q-48 -48 -99 -65t-76 -17t-38 19h-33l-29 8q-98 17 -98 46.5t12 41.5l17 17q8 8 22 10t24 -6q-2 2 42 2t77 15t62 28.5t82 29.5q122 122 158 303q0 76 -15 168v58q0 4 -8 16t-8 37v13l-15 77q0 10 -1 13l-9 32
q-12 29 -18 66v1q-19 19 -19 42q-126 137 -188 155q-59 25 -88 29q-39 -30 -98 -98q-7 -12 -22 -46t-32.5 -71.5t-17.5 -44.5v-12q0 -2 9 -12t9 -31l-4 -19q-6 -23 -31 -26q10 -2 5.5 -12.5t-3.5 -11.5t-6 -1l17 -23q8 -16 5 -31.5t-18 -21.5l15 -43q43 3 90 11t65 -11
q14 0 43 6l33 9q21 0 82.5 -24t61.5 -48q-51 -82 -103 -82l-39 2h-32q-51 -16 -62 -16h-154v-2q0 -74 9.5 -102.5t9.5 -51.5q-16 -32 -16 -51t16 -49q0 -72 -16 -88q16 -64 16 -136t-16 -141q-10 -31 -46 -31q-67 0 -87.5 36.5t-20.5 101.5l2 77v19q0 56 -5 142.5t-7.5 137
t-9.5 76.5q-7 27 -7 51v11q-73 0 -134.5 3t-49.5 5q-4 2 -4 31t-23 4z" />
    <glyph glyph-name="Ntilde" unicode="&#xd1;" horiz-adv-x="1073" 
d="M489 1423l-38 26q0 1 -2 1q-20 10 -9 39q-25 8 -22 20q2 13 -4 19t-6 14l-15 21h-12l-4 -2l4 4q-25 -19 -41 -62t-16 -59t-23 -25v-6q0 -23 -16 -33t-37 -2l-45 21l-23 35q0 -12 -2 -7q-2 6 -8 21t-6 33t29 57q0 29 28 37q11 25 27 41l16 49q6 0 21 18l43 19q4 2 7 0
t5 -14q2 12 14 22t29 6l47 -6l-6 -14h4q34 -5 61 -49q6 2 15 0q18 -10 24 -28t28 -39q21 -22 27 -34q6 -13 15 -12l16 2v-7q0 -13 6 -6t11 29q-6 -4 -4 -1t7 11t19 17h-2q12 17 31 27q-20 0 -19 1l3 3q10 26 23 55t48 29t46 -16t14 -40q29 -8 29 -32t-12 -42
q-11 -18 -21 -34q-9 -16 -17 -26t-8 -15q0 -39 -37 -39q-12 -12 -29 -8q-40 -58 -58 -59q-17 -1 -28 10q8 -11 -10 -17q-20 -10 -36 -10t-21 5q-6 5 -10 9q-5 4 -7 6t-6 -6l11 -4q-6 0 -11 4q-55 29 -37 43zM23 979q-15 30 -15 55t14 39t26 34q14 20 30 35t55 15t57 -7
t29 -38q13 -4 23 -6t10 -37v-4q10 -15 17 -23t14 -18l32 -45q3 0 15 -14q12 -13 12 -25t-1 -16t-1 -9q2 4 9 -3t16 -13l16 -16q16 -39 45 -69t43 -62q37 -9 37 -43l2 -17q-2 0 -3 -1t-3 -1q24 -5 33 -25t37 -43q28 -24 38 -47l15 -30q8 -19 12 -23q29 -68 119 -166
q29 -6 41 -24q2 16 13 44t11 81l-2 45v18q4 10 7 20t8 13v-2q14 19 13 31t-1 16q-2 4 -2 14q-14 43 4 70v43q0 23 8 43t8 25v59q21 108 21 395q0 15 11 27t28 12q110 0 110 -201l-2 -36l-6 -21l-10 -16v-11l2 -71l-2 -74v-25q0 -29 -14 -79t-15 -72v-78l-14 -88v-57
q0 -25 -17 -39l2 -31l-47 -139v-12q0 -5 -37 -36q-37 -30 -55 -30q-53 0 -66 -3t-8 -9q-25 22 -28 30q-22 11 -58 58q-35 47 -47 73l4 -4q-11 20 -51 62q-39 42 -75 111t-92 127q-56 57 -86 90t-44 79q-8 10 -21 30t-28 34l-41 55q-2 0 -2 2v-180q0 -34 -33 -39h17l2 -51
v-21q-15 -75 -15 -141v-139q0 -19 3 -61q0 -34 -15 -23q6 -14 6 -25l-10 -73l-4 -84v-21q0 -39 -39 -39q-22 0 -82 60l-12 26l-2 37v25q0 44 8 83t8 66v94l15 154v22l4 25l-4 37v342z" />
    <glyph glyph-name="Ograve" unicode="&#xd2;" horiz-adv-x="1247" 
d="M135.5 428.5q12.5 -49.5 24.5 -61.5q13 -13 20 -40t17 -51q0 6 4 3l20 -33q75 -60 92 -60t27 -10t40 -16t50 -15l84 9q118 27 171 52.5t103 96.5q11 16 26 16t30 9l26 24q25 30 43 39q12 23 32 59.5t32 63.5v6q0 33 33 62q2 16 23.5 52t21.5 59q0 83 -23 136
q-25 25 -110 127q-38 14 -80 62h2l-47 45q-25 25 -74 46t-57 21t-17 -8q-8 -8 -22 -8h-21q2 -2 -8 -8l-12 -8q-40 0 -66 26h-10l-57 -18l-9 -16q-27 -41 -108 -80h-4q-2 -8 -15 -25q-3 -41 -59 -82l-31 -26q-7 -63 -49 -134v2q-8 -13 -24 -47q0 -16 -15.5 -89t-15.5 -102
t12.5 -78.5zM31 788v21q0 2 9 15.5t32.5 49t34.5 67.5q12 32 21 38t9 10q0 33 35 39q-10 0 -2 14q10 14 14 27.5t35 15.5q23 23 51 27q10 22 54 66l14 10l29 45q9 18 32 18q23 14 53 26q30 13 58.5 27.5t79 34t64.5 19.5q29 0 73 -11.5t67 -25.5t20 -36.5t-19 -33.5
q16 -2 26 -16t6 -31q2 -4 5 -4h16q16 0 27.5 -11t11.5 -28q10 -4 25 -17t30 -22l37 -26q40 -18 53 -31q16 12 35.5 -22.5t33 -63.5t29.5 -57l41 -80q7 -42 7 -64v-184l-25 -19q-8 -38 -43 -114l2 2l-12 -31l-68 -67q-8 -12 -15 -25.5t-21 -27.5t-29 -36t-19 -4
q-14 -41 -47 -72.5t-63 -60.5q-27 0 -35 4q9 -9 -4 -20l-27 -21q-25 -25 -192 -94q-28 -11 -45 10l-58 -14q-24 8 -31 14q-127 4 -191.5 33t-104.5 70l26 -10l-23 24q-24 25 -50.5 54.5t-50 55t-23.5 29.5l4 -4q-9 11 -21 62q-18 45 -18 67v13l2 84q-14 28 -14 92l2 28
l34 156l13 14l8 11q-8 -4 -8 -9zM412.5 1721q31.5 34 51.5 34q19 0 50 -39l76 -41q19 -19 28 -39l21 -28q0 6 -4 10h8q31 -23 106 -133t70 -119q-13 -23 -26 -23q-33 1 -52 5t-49 25.5t-42 35.5t-23 24.5t-25 21.5t-25.5 20.5t-17.5 13.5q-4 4 -15.5 16.5t-24.5 25.5
t-24.5 25.5t-17.5 18.5q-23 9 -59.5 39t-36.5 51q0 22 31.5 56z" />
    <glyph glyph-name="Oacute" unicode="&#xd3;" horiz-adv-x="1247" 
d="M135.5 428.5q12.5 -49.5 24.5 -61.5q13 -13 20 -40t17 -51q0 6 4 3l20 -33q75 -60 92 -60t27 -10t40 -16t50 -15l84 9q118 27 171 52.5t103 96.5q11 16 26 16t30 9l26 24q25 30 43 39q12 23 32 59.5t32 63.5v6q0 33 33 62q2 16 23.5 52t21.5 59q0 83 -23 136
q-25 25 -110 127q-38 14 -80 62h2l-47 45q-25 25 -74 46t-57 21t-17 -8q-8 -8 -22 -8h-21q2 -2 -8 -8l-12 -8q-40 0 -66 26h-10l-57 -18l-9 -16q-27 -41 -108 -80h-4q-2 -8 -15 -25q-3 -41 -59 -82l-31 -26q-7 -63 -49 -134v2q-8 -13 -24 -47q0 -16 -15.5 -89t-15.5 -102
t12.5 -78.5zM31 788v21q0 2 9 15.5t32.5 49t34.5 67.5q12 32 21 38t9 10q0 33 35 39q-10 0 -2 14q10 14 14 27.5t35 15.5q23 23 51 27q10 22 54 66l14 10l29 45q9 18 32 18q23 14 53 26q30 13 58.5 27.5t79 34t64.5 19.5q29 0 73 -11.5t67 -25.5t20 -36.5t-19 -33.5
q16 -2 26 -16t6 -31q2 -4 5 -4h16q16 0 27.5 -11t11.5 -28q10 -4 25 -17t30 -22l37 -26q40 -18 53 -31q16 12 35.5 -22.5t33 -63.5t29.5 -57l41 -80q7 -42 7 -64v-184l-25 -19q-8 -38 -43 -114l2 2l-12 -31l-68 -67q-8 -12 -15 -25.5t-21 -27.5t-29 -36t-19 -4
q-14 -41 -47 -72.5t-63 -60.5q-27 0 -35 4q9 -9 -4 -20l-27 -21q-25 -25 -192 -94q-28 -11 -45 10l-58 -14q-24 8 -31 14q-127 4 -191.5 33t-104.5 70l26 -10l-23 24q-24 25 -50.5 54.5t-50 55t-23.5 29.5l4 -4q-9 11 -21 62q-18 45 -18 67v13l2 84q-14 28 -14 92l2 28
l34 156l13 14l8 11q-8 -4 -8 -9zM709 1673q-3 35 -31 35q-6 0 -10 -2q76 57 119 57q42 0 42 -39q0 -27 -9 -46t-10 -22t-3 -7l-145 -146l-37 -26h2q-89 -66 -100 -80.5t-19 -32.5t-33 -18h-12l-27 2q-35 0 -43 -8t-36.5 -8.5t-28.5 57.5q0 32 17 40.5t29 15.5t15.5 8t3.5 -9
l10 -10l13 63q46 23 61 35l35 37q16 16 34.5 33.5t21.5 20.5t19.5 8t26.5 9l17 35q6 27 35 31q39 0 43 -33z" />
    <glyph glyph-name="Ocircumflex" unicode="&#xd4;" horiz-adv-x="1247" 
d="M135.5 428.5q12.5 -49.5 24.5 -61.5q13 -13 20 -40t17 -51q0 6 4 3l20 -33q75 -60 92 -60t27 -10t40 -16t50 -15l84 9q118 27 171 52.5t103 96.5q11 16 26 16t30 9l26 24q25 30 43 39q12 23 32 59.5t32 63.5v6q0 33 33 62q2 16 23.5 52t21.5 59q0 83 -23 136
q-25 25 -110 127q-38 14 -80 62h2l-47 45q-25 25 -74 46t-57 21t-17 -8q-8 -8 -22 -8h-21q2 -2 -8 -8l-12 -8q-40 0 -66 26h-10l-57 -18l-9 -16q-27 -41 -108 -80h-4q-2 -8 -15 -25q-3 -41 -59 -82l-31 -26q-7 -63 -49 -134v2q-8 -13 -24 -47q0 -16 -15.5 -89t-15.5 -102
t12.5 -78.5zM31 788v21q0 2 9 15.5t32.5 49t34.5 67.5q12 32 21 38t9 10q0 33 35 39q-10 0 -2 14q10 14 14 27.5t35 15.5q23 23 51 27q10 22 54 66l14 10l29 45q9 18 32 18q23 14 53 26q30 13 58.5 27.5t79 34t64.5 19.5q29 0 73 -11.5t67 -25.5t20 -36.5t-19 -33.5
q16 -2 26 -16t6 -31q2 -4 5 -4h16q16 0 27.5 -11t11.5 -28q10 -4 25 -17t30 -22l37 -26q40 -18 53 -31q16 12 35.5 -22.5t33 -63.5t29.5 -57l41 -80q7 -42 7 -64v-184l-25 -19q-8 -38 -43 -114l2 2l-12 -31l-68 -67q-8 -12 -15 -25.5t-21 -27.5t-29 -36t-19 -4
q-14 -41 -47 -72.5t-63 -60.5q-27 0 -35 4q9 -9 -4 -20l-27 -21q-25 -25 -192 -94q-28 -11 -45 10l-58 -14q-24 8 -31 14q-127 4 -191.5 33t-104.5 70l26 -10l-23 24q-24 25 -50.5 54.5t-50 55t-23.5 29.5l4 -4q-9 11 -21 62q-18 45 -18 67v13l2 84q-14 28 -14 92l2 28
l34 156l13 14l8 11q-8 -4 -8 -9zM335 1327q-42 -1 -42 45q0 34 41 82q10 14 22.5 29.5t24.5 38.5l33 20h-4l2 2h4q25 62 63 72h2q8 18 27 37q4 8 10 15t12 20t19 20q12 0 30 16t36 17q18 0 38.5 -8.5t42 -18.5t41 -19t25.5 -14l8 -28q4 -12 4 -15l6 -49q21 -21 37 -53
l33 -55l12 -13q33 -56 33 -82q0 -48 -40 -47q-69 0 -93.5 20.5t-39.5 59.5t-26 51l-34 54q-10 12 -16.5 23.5t-14.5 23.5q-15 -21 -41 -47l-29 -33q-12 -12 -26 -12h-9q9 -5 -9.5 -28.5t-29.5 -33.5q-44 -86 -88.5 -88t-63.5 -2z" />
    <glyph glyph-name="Otilde" unicode="&#xd5;" horiz-adv-x="1247" 
d="M584 1423l-39 26q0 1 -2 1q-20 10 -8 39q-25 8 -23 20q2 13 -4 19t-6 14l-6 12q-6 2 -9 9h-12l-4 -2l4 4q-22 -16 -22 -23q-35 -72 -35 -93q0 -20 -23 -30v-6q0 -23 -16 -33t-37 -2l-45 21l-23 35q0 -12 -2 -7q-2 6 -8 21t-6 33t29 57q0 29 28 37q11 25 27 41l16 49
q9 0 21 18l43 19q4 2 7 0t5 -14q2 12 14 22t29 6l47 -6l-6 -14h4q25 -4 38 -18t24 -31q6 2 19 -4t21 -26t28 -39q20 -20 25 -32t15 -12l17 2v-7q0 -15 6 -7t10 30q-6 -4 -4 -1t7 11t20 17h-3q12 17 31 27q-20 0 -19 1l3 3q10 26 23 55t49 29t46 -16q11 -16 13 -40
q29 -8 29 -32t-12 -42t-21 -34t-17 -26t-8 -15q0 -39 -37 -39q-12 -12 -28 -8q-40 -58 -59 -59t-27 10q9 -11 -11 -17q-20 -10 -35 -10q-18 0 -38 20q-2 2 -6 -6l10 -4q-6 0 -10 4q-55 29 -37 43zM123 514q0 -24 10 -78t25 -68q15 -13 24 -48q9 -34 15 -44q0 6 4 3l20 -33
q73 -58 91 -60q19 -2 29 -11q9 -9 39 -15t50 -15l84 9q119 27 170 52q52 25 104 97q11 16 26 16t30 9l26 24q25 30 43 39q12 23 32 60q19 37 32 63v6q0 33 33 62q2 16 8 26q37 62 37 85q0 87 -23 136q-25 25 -110 127q-35 13 -80 62h2l-47 45q-29 29 -76 48t-55 19t-17 -8
q-10 -8 -22 -8h-21q2 -2 -8 -8l-12 -8q-37 0 -66 26h-10l-57 -18q-19 -34 -41 -52t-76 -44h-4q-2 -8 -15 -25q-3 -41 -59 -82l-31 -26q-7 -63 -49 -134v2q-8 -13 -24 -47q0 -20 -16 -90t-15 -94zM31 788v21q0 2 31 47t44 81t22 42t9 10q0 33 35 39q-10 0 -1 14t13 28t35 15
q23 23 51 27q10 22 54 66l14 10l29 45q9 18 32 18q23 14 53 26q30 13 63 30t82 34t60 17q74 0 140 -39q20 -12 17 -35t-19 -33q16 -2 26 -16t6 -31q3 -4 11 -4h10q16 0 28 -11t11 -28q10 -4 20 -13t35 -26l37 -26q40 -18 53 -31q17 12 43 -36q11 -23 25 -51t30 -56l41 -80
q7 -42 7 -128v-120l-25 -19q-10 -48 -43 -114l2 2l-12 -31q-4 -6 -24 -25q-21 -19 -44 -42q-8 -11 -15 -25t-21 -28t-28 -37q-15 -22 -20 -3q-14 -40 -47 -72t-63 -61q-27 0 -35 4q9 -9 -4 -20l-27 -21q-11 -11 -41 -25l-65 -31q-89 -42 -106 -40t-25 12l-58 -14
q-24 8 -31 14q-128 4 -192 33t-104 70l26 -10l-23 24q-126 132 -124 139l4 -4q-9 11 -21 62q-18 45 -18 67v13l2 84q-14 28 -14 92l2 28l34 156l13 14l8 11q-8 -4 -8 -9z" />
    <glyph glyph-name="Odieresis" unicode="&#xd6;" horiz-adv-x="1247" 
d="M135.5 428.5q12.5 -49.5 24.5 -61.5q13 -13 20 -40t17 -51q0 6 4 3l20 -33q75 -60 92 -60t27 -10t40 -16t50 -15l84 9q118 27 171 52.5t103 96.5q11 16 26 16t30 9l26 24q25 30 43 39q12 23 32 59.5t32 63.5v6q0 33 33 62q2 16 23.5 52t21.5 59q0 83 -23 136
q-25 25 -110 127q-38 14 -80 62h2l-47 45q-25 25 -74 46t-57 21t-17 -8q-8 -8 -22 -8h-21q2 -2 -8 -8l-12 -8q-40 0 -66 26h-10l-57 -18l-9 -16q-27 -41 -108 -80h-4q-2 -8 -15 -25q-3 -41 -59 -82l-31 -26q-7 -63 -49 -134v2q-8 -13 -24 -47q0 -16 -15.5 -89t-15.5 -102
t12.5 -78.5zM31 788v21q0 2 9 15.5t32.5 49t34.5 67.5q12 32 21 38t9 10q0 33 35 39q-10 0 -2 14q10 14 14 27.5t35 15.5q23 23 51 27q10 22 54 66l14 10l29 45q9 18 32 18q23 14 53 26q30 13 58.5 27.5t79 34t64.5 19.5q29 0 73 -11.5t67 -25.5t20 -36.5t-19 -33.5
q16 -2 26 -16t6 -31q2 -4 5 -4h16q16 0 27.5 -11t11.5 -28q10 -4 25 -17t30 -22l37 -26q40 -18 53 -31q16 12 35.5 -22.5t33 -63.5t29.5 -57l41 -80q7 -42 7 -64v-184l-25 -19q-8 -38 -43 -114l2 2l-12 -31l-68 -67q-8 -12 -15 -25.5t-21 -27.5t-29 -36t-19 -4
q-14 -41 -47 -72.5t-63 -60.5q-27 0 -35 4q9 -9 -4 -20l-27 -21q-25 -25 -192 -94q-28 -11 -45 10l-58 -14q-24 8 -31 14q-127 4 -191.5 33t-104.5 70l26 -10l-23 24q-24 25 -50.5 54.5t-50 55t-23.5 29.5l4 -4q-9 11 -21 62q-18 45 -18 67v13l2 84q-14 28 -14 92l2 28
l34 156l13 14l8 11q-8 -4 -8 -9zM763 1587.5q40 -38.5 40 -47.5q0 -43 -18.5 -66.5t-61.5 -37.5h6q-54 -27 -82.5 17t-28.5 77q0 34 15 59q6 14 30.5 25.5t42.5 11.5q17 0 57 -38.5zM547 1535q1 -101 -63 -101q-30 0 -46 6h-8q-23 0 -35 18q-26 21 -26 57q0 37 23.5 75
t67.5 38t58 -7t21.5 -22.5t7.5 -63.5zM510 1501l4 6l-12 -2zM510 1501l-8 4l12 2z" />
    <glyph glyph-name="multiply" unicode="&#xd7;" horiz-adv-x="684" 
d="M70 205q-43 0 -43 39q0 31 8 71q-3 38 33 59q8 5 10 7l14 41q6 29 15.5 49.5t31.5 24.5q2 12 10.5 21t18.5 20v10q0 18 12 28t19 31q-2 -6 -8.5 -4t-10.5 8l-14 17q-4 2 -7 9t-5 11q0 -6 4 -8l-29 53q-17 30 -49 60l-27 28q-80 5 -80 54q0 29 16.5 56.5t37.5 27.5h90
q35 0 39 -35h2v-4q2 0 9 -5t19.5 -9.5t14.5 -30.5q10 -14 29.5 -39t48.5 -72q29 4 40 21t21 36l10 21q27 25 34 42t15 37t70 40q29 0 36 -4.5t21 -16.5h-2q34 -19 17 -53l-62 -123q-27 -27 -86 -111v2l-14 -18l10 -14q62 -30 68 -62q2 -10 8 -22q57 -57 74 -95
q100 -22 100 -188q0 -16 -10.5 -26.5t-30.5 -10.5t-29 4q-23 7 -28 27l-92 88q-11 11 -11 26.5t-47 26.5q-20 28 -29 36t-28 36l-29 45l-8 -16l-57 -58l-17 -31q-10 -18 -16 -35.5t-25 -33.5l-24 -17l-2 -2l-15 -10q-4 -4 -4 -10q-24 -49 -67 -49z" />
    <glyph glyph-name="Oslash" unicode="&#xd8;" horiz-adv-x="1247" 
d="M621 488q1 -4 -3 -11q-4 -6 -12 -33.5t-16 -44.5l-47 -176l-37 -69h31q102 28 153.5 56.5t97.5 94.5q9 14 31 14h8l21 13q34 27 42 41q7 14 28 22l59 119v6q0 34 31 60q5 8 16.5 38.5t19.5 45.5l9 8l2 22q0 81 -23 135l-18 17q-8 16 -24.5 33.5t-35.5 38.5v2
q-10 12 -12 14l-27 27q-12 8 -26.5 17t-18.5 13l-63 62q-8 -20 -8 -27l-17 -29q-34 -114 -74 -229t-58 -172t-20.5 -70.5t-5.5 -23.5t-3 -14zM227 856q-73 -152 -73 -154v-40q-22 -35 -31 -130v-47q26 -106 41 -123l31 -77q9 -22 32 -45l60 -29q22 -22 78 -41q8 16 14 30.5
t12 24.5q0 -2 2 -4v31l15 31v6q0 21 14 28v31q5 19 33 47l14 23q0 6 4 26t5.5 49.5t19.5 65.5v35q12 20 21 38t15 32q6 13 9 18l6 43v2q5 61 14 66.5t17 17.5t8 -2v41q2 6 5 16t7 17l51 110q6 15 6 38t9 34q-2 9 -2 27t12 36h-4q-2 0 -7 2t-15 -6q-10 -10 -23 -10h-15
q-28 -14 -32 -14l-5 -2q-29 0 -55 26q-2 0 -4 2l-8 -10l-59 -14q-20 -41 -84 -78l-31 -14h-2q-9 -23 -29 -35q-25 -58 -49 -82l-23 -12l-4 -11v-14zM839 1401q40 0 40 -56q0 -33 -7 -51l-5 -11q-5 -11 -9 -23t-4 -38t-2 -28q12 -7 34 -26q21 -19 60 -42l31 -28
q62 -20 95 -75q9 -15 22 -26l77 -155q7 -42 7 -64v-184l-25 -19q-8 -38 -43 -114l2 2l-12 -31l-68 -67l-12 -23l-14 -23l-45 -40q0 -13 -52.5 -68t-70.5 -72h-19l-57 -45q-6 -4 -16.5 -12t-34.5 -16l-131 -58q-27 -14 -48 10l-55 -14q-12 6 -15 7t-7 3v-34q0 -17 -21 -43
l-61 -117q-10 -16 -28.5 -20t-30.5 10t-20.5 24t-8.5 41l2 14v15l16 71v17l8 45l-29 6q-28 6 -34 8l-43 31q-29 12 -55 39l26 -10l-23 24q-24 25 -50.5 54.5t-50 55t-23.5 29.5l4 -4q-9 11 -21 62q-18 45 -18 67v13l2 84q-14 28 -14 92l2 28l34 156q0 6 13 19v18
q0 9 31.5 66t46.5 75l18 29q6 10 12 20.5t11 14.5v2l45 57q4 4 12 7t23 16t40 16q11 25 52 66v-2l16 12l10 18q10 16 21.5 30.5t40.5 25.5l47 16q16 10 39.5 25.5t44.5 19.5l96 35h55l45 -15q4 4 4 17l31 29q48 12 67 12z" />
    <glyph glyph-name="Ugrave" unicode="&#xd9;" horiz-adv-x="983" 
d="M862 90q8 -31 8 -82t-39 -51q-33 0 -68.5 13.5t-35.5 45.5v121q0 8 4 13l-4 6v22l-2 39l2 55v17q0 14 2 26.5t-10 8.5q0 -7 -12.5 -11t-16.5 -4h-8q6 -2 7 -9t-8 -14t-13 -19.5t-21 -30.5q-16 -33 -33.5 -46.5t-58.5 -25.5q-30 -30 -106 -62l-15 -4q-10 0 -14 2
q-18 -6 -34 -6t-26 6q-40 0 -63 6t-23 9q-29 0 -36 26l-7 17q-4 0 -6 2l4 -4l-43 26l-16 29l-12 14q-6 2 -6 8q-23 10 -42.5 25.5t-23.5 52.5q-20 27 2 45v2q-16 27 -16 39v21q0 27 28 31q-75 64 -75 96q0 4 6 14q-8 32 -13 121l-6 129v2q0 2 -1 3t-1 5q-2 -2 -2 -3l-1 1
q-1 2 -7 8l-8 33q-15 50 -15 85.5t19 66.5v2q-16 48 -16 51v14q0 2 -1.5 6t3.5 13q11 96 45 118.5t64 15.5t54 -38q19 -16 19 -35.5t-10 -42.5v4q-19 -57 -19 -78l12 -120l-12 -138v-14l15 -94q-4 -9 26 -88v-21q31 -78 31 -109q0 -32 -2 -34q18 0 27.5 -9.5t9.5 -50.5
l92 -92q10 -10 10 -25t33 -20q47 42 108 70l-2 -2q14 6 22.5 8t24.5 16v9q0 30 35 55l13 14l20 35q20 35 28 43t12.5 19.5t12.5 21.5q-8 14 4 35t17.5 42t13.5 33q17 24 29 63t12 67l12 39q0 2 2 2l7 151l8 17v2q4 20 4 40t-9 46q-9 25 -10 44t9 40q10 20 10 44t-10 45
t-9 33l-1 13l-1 80q0 16 10.5 27.5t38.5 11.5t66.5 -27.5t38.5 -67.5v-856q0 -14 -16 -30l2 -37q0 -42 -13 -74q27 -63 27 -89t-25 -58q10 -12 9.5 -31t-15.5 -29zM197.5 1721q31.5 34 48.5 34q16 0 55 -39l74 -41q16 -16 20 -23t11 -16l18 -28q0 6 -4 10h8
q31 -23 105.5 -132t70.5 -120q-4 -10 -15 -16.5t-27 -6.5q-16 1 -34 5t-50 25.5t-43 35.5t-22.5 24.5t-25.5 21.5t-25.5 20.5t-17.5 13.5q-4 4 -14.5 16.5t-15.5 16.5l-52 53q-53 27 -74.5 54.5t-21.5 42.5t31.5 49zM8 816q-2 -3 2 -3q-1 1 -2 3z" />
    <glyph glyph-name="Uacute" unicode="&#xda;" horiz-adv-x="983" 
d="M862 90q8 -31 8 -82t-39 -51q-33 0 -68.5 13.5t-35.5 45.5v121q0 8 4 13l-4 6v22l-2 39l2 55v17q0 14 2 26.5t-10 8.5q0 -7 -12.5 -11t-16.5 -4h-8q6 -2 7 -9t-8 -14t-13 -19.5t-21 -30.5q-16 -33 -33.5 -46.5t-58.5 -25.5q-30 -30 -106 -62l-15 -4q-10 0 -14 2
q-18 -6 -34 -6t-26 6q-40 0 -63 6t-23 9q-29 0 -36 26l-7 17q-4 0 -6 2l4 -4l-43 26l-16 29l-12 14q-6 2 -6 8q-23 10 -42.5 25.5t-23.5 52.5q-20 27 2 45v2q-16 27 -16 39v21q0 27 28 31q-75 64 -75 96q0 4 6 14q-8 32 -13 121l-6 129v2q0 2 -1 3t-1 5q-2 -2 -2 -3l-1 1
q-1 2 -7 8l-8 33q-15 50 -15 85.5t19 66.5v2q-16 48 -16 51v14q0 2 -1.5 6t3.5 13q11 96 45 118.5t64 15.5t54 -38q19 -16 19 -35.5t-10 -42.5v4q-19 -57 -19 -78l12 -120l-12 -138v-14l15 -94q-4 -9 26 -88v-21q31 -78 31 -109q0 -32 -2 -34q18 0 27.5 -9.5t9.5 -50.5
l92 -92q10 -10 10 -25t33 -20q47 42 108 70l-2 -2q14 6 22.5 8t24.5 16v9q0 30 35 55l13 14l20 35q20 35 28 43t12.5 19.5t12.5 21.5q-8 14 4 35t17.5 42t13.5 33q17 24 29 63t12 67l12 39q0 2 2 2l7 151l8 17v2q4 20 4 40t-9 46q-9 25 -10 44t9 40q10 20 10 44t-10 45
t-9 33l-1 13l-1 80q0 16 10.5 27.5t38.5 11.5t66.5 -27.5t38.5 -67.5v-856q0 -14 -16 -30l2 -37q0 -42 -13 -74q27 -63 27 -89t-25 -58q10 -12 9.5 -31t-15.5 -29zM217 1384q0 37 17.5 45.5t37.5 18.5q10 10 11 -4l10 -10l14 63q33 12 99 78l55 51q19 15 39 19l-2 -3
q16 6 21 32q5 27 36 32l-4 -4l6 4v1q0 1 2 1l-2 -2q14 0 27.5 -9t13.5 -26q0 29 -10 33t-21 4h-8l19 12q62 43 102 43q41 0 41 -39l-2 -14v-10q0 -4 -4 -14.5t-7 -11.5t-3 -3v-6q-22 -44 -95 -117l-18 -10l-12 -6q-39 -39 -70 -62l-66 -61q-27 -5 -42 -34q-14 -29 -37 -29
h-11l-26 2q-35 0 -41 -5q-18 -18 -45 -8q-25 12 -25 49zM8 816q-2 -3 2 -3q-1 1 -2 3z" />
    <glyph glyph-name="Ucircumflex" unicode="&#xdb;" horiz-adv-x="983" 
d="M862 90q8 -31 8 -82t-39 -51q-33 0 -68.5 13.5t-35.5 45.5v121q0 8 4 13l-4 6v22l-2 39l2 55v17q0 14 2 26.5t-10 8.5q0 -7 -12.5 -11t-16.5 -4h-8q6 -2 7 -9t-8 -14t-13 -19.5t-21 -30.5q-16 -33 -33.5 -46.5t-58.5 -25.5q-30 -30 -106 -62l-15 -4q-10 0 -14 2
q-18 -6 -34 -6t-26 6q-40 0 -63 6t-23 9q-29 0 -36 26l-7 17q-4 0 -6 2l4 -4l-43 26l-16 29l-12 14q-6 2 -6 8q-23 10 -42.5 25.5t-23.5 52.5q-20 27 2 45v2q-16 27 -16 39v21q0 27 28 31q-75 64 -75 96q0 4 6 14q-8 32 -13 121l-6 129v2q0 2 -1 3t-1 5q-2 -2 -2 -3l-1 1
q-1 2 -7 8l-8 33q-15 50 -15 85.5t19 66.5v2q-16 48 -16 51v14q0 2 -1.5 6t3.5 13q11 96 45 118.5t64 15.5t54 -38q19 -16 19 -35.5t-10 -42.5v4q-19 -57 -19 -78l12 -120l-12 -138v-14l15 -94q-4 -9 26 -88v-21q31 -78 31 -109q0 -32 -2 -34q18 0 27.5 -9.5t9.5 -50.5
l92 -92q10 -10 10 -25t33 -20q47 42 108 70l-2 -2q14 6 22.5 8t24.5 16v9q0 30 35 55l13 14l20 35q20 35 28 43t12.5 19.5t12.5 21.5q-8 14 4 35t17.5 42t13.5 33q17 24 29 63t12 67l12 39q0 2 2 2l7 151l8 17v2q4 20 4 40t-9 46q-9 25 -10 44t9 40q10 20 10 44t-10 45
t-9 33l-1 13l-1 80q0 16 10.5 27.5t38.5 11.5t66.5 -27.5t38.5 -67.5v-856q0 -14 -16 -30l2 -37q0 -42 -13 -74q27 -63 27 -89t-25 -58q10 -12 9.5 -31t-15.5 -29zM705 1386q0 -48 -39 -47q-66 0 -119 37l-10 39q-13 38 -29 45q-42 82 -68 113q-8 -14 -19 -25.5t-22 -23.5
l-28 -33q-12 -12 -29 -12h-6q8 -5 -10.5 -30.5t-28.5 -33.5q-43 -83 -88 -85.5t-68 -2.5q-39 0 -39 40t39 87q10 14 23.5 29.5t23.5 38.5l35 20h-6l2 2h6q25 62 62 72h4q16 31 29.5 46t18.5 28t19 17q13 3 30 18q18 16 46 16l21 -2q80 -26 100 -50.5t31 -72.5l6 -27
q8 -10 17 -26.5t18 -26.5l32 -55l13 -13q33 -56 33 -82zM8 816q-2 -3 2 -3q-1 1 -2 3z" />
    <glyph glyph-name="Udieresis" unicode="&#xdc;" horiz-adv-x="983" 
d="M862 90q8 -31 8 -82t-39 -51q-33 0 -68.5 13.5t-35.5 45.5v121q0 8 4 13l-4 6v22l-2 39l2 55v17q0 14 2 26.5t-10 8.5q0 -7 -12.5 -11t-16.5 -4h-8q6 -2 7 -9t-8 -14t-13 -19.5t-21 -30.5q-16 -33 -33.5 -46.5t-58.5 -25.5q-30 -30 -106 -62l-15 -4q-10 0 -14 2
q-18 -6 -34 -6t-26 6q-40 0 -63 6t-23 9q-29 0 -36 26l-7 17q-4 0 -6 2l4 -4l-43 26l-16 29l-12 14q-6 2 -6 8q-23 10 -42.5 25.5t-23.5 52.5q-20 27 2 45v2q-16 27 -16 39v21q0 27 28 31q-75 64 -75 96q0 4 6 14q-8 32 -13 121l-6 129v2q0 2 -1 3t-1 5q-2 -2 -2 -3l-1 1
q-1 2 -7 8l-8 33q-15 50 -15 85.5t19 66.5v2q-16 48 -16 51v14q0 2 -1.5 6t3.5 13q11 96 45 118.5t64 15.5t54 -38q19 -16 19 -35.5t-10 -42.5v4q-19 -57 -19 -78l12 -120l-12 -138v-14l15 -94q-4 -9 26 -88v-21q31 -78 31 -109q0 -32 -2 -34q18 0 27.5 -9.5t9.5 -50.5
l92 -92q10 -10 10 -25t33 -20q47 42 108 70l-2 -2q14 6 22.5 8t24.5 16v9q0 30 35 55l13 14l20 35q20 35 28 43t12.5 19.5t12.5 21.5q-8 14 4 35t17.5 42t13.5 33q17 24 29 63t12 67l12 39q0 2 2 2l7 151l8 17v2q4 20 4 40t-9 46q-9 25 -10 44t9 40q10 20 10 44t-10 45
t-9 33l-1 13l-1 80q0 16 10.5 27.5t38.5 11.5t66.5 -27.5t38.5 -67.5v-856q0 -14 -16 -30l2 -37q0 -42 -13 -74q27 -63 27 -89t-25 -58q10 -12 9.5 -31t-15.5 -29zM547 1626q43 0 104 -86q0 -43 -13 -60.5t-37 -32.5l-28 -11h5q-12 -8 -33 -8q-34 -1 -55 33t-21 76t16 58
q12 10 33 20.5t29 10.5zM308 1434l-32 6q-23 0 -34 18l-14 13q-13 13 -13 47t26 72t69 38q67 0 77 -23t10 -68q0 -46 -13 -74.5t-69 -28.5h-7zM8 816q-2 -3 2 -3q-1 1 -2 3z" />
    <glyph glyph-name="Yacute" unicode="&#xdd;" horiz-adv-x="901" 
d="M772 434q14 -36 14 -45v-76l-2 -77l-14 -76q4 -16 4 -18v-21l-2 -25l-4 -90q0 -21 -41 -125q-5 -35 -28 -88t-23 -67l-37 -62q-18 -23 -29 -57l-88 -51q-6 -17 -32 -17t-71 6q-46 6 -65 6l4 5q-2 0 -6 -5q-12 -4 -24 -4t-26 7q-13 7 -34 14q-8 -6 -28 -6t-30.5 12
t-25 22.5t-12.5 12.5q-20 3 -39 31l-31 43q-4 0 -34.5 7t-40.5 27q0 11 28.5 57t49.5 46t30.5 -9.5t19.5 -9.5t64 -41l4 -8q0 -2 10 -2q11 0 31 -13t30.5 -17.5t6.5 -6.5l70 -26h18q6 -2 14 -2l25 -2q12 -4 18 -5q14 12 34 21t24 4q13 47 55 82q2 8 6 15t8 18l-2 -2
q33 89 33 98v32q0 33 4 38.5t13 -7.5q-8 16 1 65.5t9 74.5q0 24 -10 55v145l-37 -79l-21 -29l-10 -19l-39 -36q-6 -3 -25 -35v2q-26 -50 -63 -53l-4 -9q-59 -36 -137 -36h-56q-55 0 -71.5 11t-26.5 19q-20 4 -70 58q0 8 -3.5 21.5t-0.5 27.5q-8 10 -15 19t-7 32v12
q-15 15 -15 33v57q0 3 -8 17t-8 29t12 28q-12 54 -12 66v335q-12 12 -12 21l-17 80v82q1 31 7 66t9 54q6 37 38 37h61q14 0 24.5 -10t12.5 -24l16 -105q0 -19 -18 -37q4 -14 18 -34v-27l-16 -43l-2 -66v-86q0 -86 5 -123.5t9 -70.5l4 -33l15 -70v-34l14 -74q0 -8 -2 -12
q18 -9 18 -25l31 -47q0 -4 -1 -9t-1 -12l-8 2q4 -4 6 -4h2v2l2 -2h-2v-4q0 2 2 4l21 -10q-8 12 24 6q14 -2 25.5 -2t15.5 -2q26 26 51 33l19 -2q24 0 47 39.5t29 64.5q6 24 22 31l7 7l26 26q2 2 7 17.5t9 27.5q31 125 58 119l6 24l30 66q4 11 16 31t11.5 38.5t2.5 35.5
t5 32.5t8 28.5l-12 96q0 22 21 41q0 2 8 10v223q0 6 2 11v2q-4 12 -4 34t9 32t19 22t27 12h43q19 -13 37 -42.5t18 -33.5v-217q0 -30 -14 -67l-8 -302q-3 -63 -31 -102l1 -25q1 -25 -3 -55zM219 184q2 2 4 0h-4zM204 1331.5q-28 -0.5 -28 57.5q0 32 17.5 40.5t28.5 15.5
t15.5 8t4.5 -5t8 -14l14 63q32 11 90 72v-2q36 42 70 65l37 10h2l16 33q4 26 33 31h2q82 62 118 54q35 -8 40 -24q11 -31 -4.5 -66t-100.5 -124l-30 -14q-8 -4 -16.5 -13.5t-16.5 -16.5t-19.5 -16t-20.5 -16.5t-15.5 -12.5t-17.5 -18t-40 -30q-10 -10 -18 -17.5t-18 -26.5
t-33 -19h-11l-26 2q-35 0 -44 -8t-37 -8.5zM555 1671q0 29 -11.5 33t-18.5 4t-11 -2q14 0 27.5 -9t13.5 -26z" />
    <glyph glyph-name="Thorn" unicode="&#xde;" horiz-adv-x="811" 
d="M582 702q73 65 73 113q0 49 -49 81q-79 52 -219 52h-10l-49 -33h-76q-17 0 -37 -12l-10 -45l12 -123v-215q12 4 14 4l64 21q24 0 84 35q47 23 119 51l22 12zM217 39q0 -59 -111 -59q-16 0 -27 10t-11 26v375h-5q-23 0 -31.5 12.5t-13.5 26.5l-8 10l-18 56q-2 2 -2 6v18
q0 23 4 31l31 33l7 2l34 2l-15 305l-14 22v39q6 25 10 31t6 15.5t-2 0.5l-4 228q0 12 6 28v11l2 -4q0 8 -10 18t-5 31.5t28 25.5q2 0 2 1t8 4t30.5 14.5t62.5 11.5t40 -57q0 -16 -10 -43q4 -8 4 -15v-10q2 -2 2 -8t1 -6t1 -6t-4 -15v-20l2 -66l-2 -69v-2l92 16l22 -4
q-15 0 9 9t32 9h119q25 0 35 -20q0 6 31 -6l22 -6q11 -4 60 -27l61 -45l45 -23l23 -45q20 -40 20 -61v-49l-20 -60l-33 -63l-14 -14l-31 -60l-19 -22l-26 -11h5q7 0 5 -2l-31 -18l-73 -53l-50 -23q-19 -26 -35 -26t-48 -19l-19 -10l-160 -39q-10 -40 -10 -57v-285z" />
    <glyph glyph-name="germandbls" unicode="&#xdf;" horiz-adv-x="729" 
d="M481 236v26q0 12 -16 24.5t-21.5 12.5t-39.5 -44q-35 -44 -75 6.5t-44 76.5l-11 -10q0 32 30 45q9 4 40 22t98 144q68 126 68 196l-2 49v47l16 72q-9 49 -22 98.5t-17 71.5l-22 35q-29 41 -39 46t-53 5t-70 -28.5t-65 -98.5h2q-10 -16 -19.5 -30.5t-20.5 -34.5t-19 -54
q-7 -34 -8 -46.5t-9 -28.5q4 -6 11 -15.5t7 -34.5t-20 -47q-2 -6 -4 -13t-5 -10t-4.5 -7t-6.5 -106.5t-5 -551.5q7 4 43 8t51 9l168 49q63 41 73.5 57t10.5 60zM520 401q94 -57 94 -141q0 -167 -67 -205.5t-84 -44.5q-16 -6 -25 -10t-35 -13t-68.5 -23.5t-58.5 -26.5
q-16 -13 -54 -13t-87 47v-110l-18 -88q-4 -13 -25 -27q-10 -4 -33.5 2t-35.5 25l-5 2q-12 12 -12 26v11q-14 80 -14 135t8 78v38q0 51 1 73t-6 64t-7 99t5 133t12 153t14.5 147.5t11.5 117.5t10 74q35 57 75 132t44 79q4 23 22.5 55.5t55.5 38.5q44 44 100 47q13 5 22 11
q8 5 29 5t74 -22l26 -13q69 -35 98 -75.5t40 -110.5q34 -105 32 -153t-2 -72v-45q0 -31 -16 -39l2 -47v-17l-2 -14q-39 -55 -47 -102q-17 -103 -66 -162z" />
    <glyph glyph-name="agrave" unicode="&#xe0;" horiz-adv-x="716" 
d="M143 374q0 -12 -20 -32h2q0 -29 16.5 -64.5t16.5 -76.5q0 -10 -15 -25l35 -26h17q31 0 32 1l17 19q6 10 11 21.5t21 27.5q6 15 29.5 44t42.5 71l8 10q0 20 2 25l30 59q27 54 22 80l18 39q2 4 5.5 54.5t15.5 84.5q0 23 12 43.5t12 36.5q-8 27 -41 27l-55 -19h-33l4 -4
q-22 -28 -37 -35l-2 -2q4 -12 4 -14q0 -20 -39 -35l-20 2q-74 -107 -74 -147l-10 -37q0 -20 -4 -21.5t-10 -5.5l2 -20q-16 -29 -15.5 -38t-5.5 -22q6 -9 6 -21zM539 230q0 30 -9.5 52.5t-13.5 59.5q-13 -32 -20 -39l-16 -16t-12.5 -14.5t-4.5 -4.5l-2 -39l-11 -33
q-11 -33 -26 -50q-36 -40 -106 -100t-89 -60q-37 0 -55 16q-12 -4 -22 -4q-20 0 -74.5 54t-54.5 100v4q-15 15 -15 30v27h-2q-6 0 -13 38t-11.5 58.5t-4.5 36.5t7 29q-8 11 -8 31t28 20l4 2v80q0 20 23 33h-4q0 43 17.5 60t29.5 17t13 12.5t-1 25t-3 20.5v1l32 66l22 23l6 4
q4 23 20.5 36t33.5 23q0 -4 2 -8v17q36 57 82 57q2 0 19 7t58 22.5t65 15.5q23 0 32 -18h20q19 0 77 -38t58 -73q0 -20 -16 -31v-4q0 -14 -12 -26q12 -25 12 -45h-12q12 -2 20 -13.5t8 -23.5l2 -90q4 -2 8.5 -11.5t4.5 -13.5v-47q14 -18 14 -39v-31q12 -16 13 -38t10 -75
q8 -53 16 -67t8 -39v-31q4 -37 15.5 -54t11.5 -47q0 -69 -70 -69q-43 0 -67.5 18t-24.5 36t8 30q-20 100 -20 130zM612 963q-8 -27 -40 -27q-73 0 -128 70q-33 23 -38 28l-62 62q-35 37 -65 65q-4 0 -7 2l2 -2q-12 5 -51 35t-39 49q0 18 30 54t34 36l37 -6q35 -35 81 -68
t68 -71q0 10 -2 12q13 -4 23 -14l71 -84q41 -47 68 -83t18 -58zM83 677l-1 -1q0 7 1 1z" />
    <glyph glyph-name="aacute" unicode="&#xe1;" horiz-adv-x="716" 
d="M143 374q0 -12 -20 -32h2q0 -29 16.5 -64.5t16.5 -76.5q0 -10 -15 -25l35 -26h17q31 0 32 1l17 19q6 10 11 21.5t21 27.5q6 15 29.5 44t42.5 71l8 10q0 20 2 25l30 59q27 54 22 80l18 39q2 4 5.5 54.5t15.5 84.5q0 23 12 43.5t12 36.5q-8 27 -41 27l-55 -19h-33l4 -4
q-22 -28 -37 -35l-2 -2q4 -12 4 -14q0 -20 -39 -35l-20 2q-74 -107 -74 -147l-10 -37q0 -20 -4 -21.5t-10 -5.5l2 -20q-16 -29 -15.5 -38t-5.5 -22q6 -9 6 -21zM539 230q0 30 -9.5 52.5t-13.5 59.5q-13 -32 -20 -39l-16 -16t-12.5 -14.5t-4.5 -4.5l-2 -39l-11 -33
q-11 -33 -26 -50q-36 -40 -106 -100t-89 -60q-37 0 -55 16q-12 -4 -22 -4q-20 0 -74.5 54t-54.5 100v4q-15 15 -15 30v27h-2q-6 0 -13 38t-11.5 58.5t-4.5 36.5t7 29q-8 11 -8 31t28 20l4 2v80q0 20 23 33h-4q0 43 17.5 60t29.5 17t13 12.5t-1 25t-3 20.5v1l32 66l22 23l6 4
q4 23 20.5 36t33.5 23q0 -4 2 -8v17q36 57 82 57q2 0 19 7t58 22.5t65 15.5q23 0 32 -18h20q19 0 77 -38t58 -73q0 -20 -16 -31v-4q0 -14 -12 -26q12 -25 12 -45h-12q12 -2 20 -13.5t8 -23.5l2 -90q4 -2 8.5 -11.5t4.5 -13.5v-47q14 -18 14 -39v-31q12 -16 13 -38t10 -75
q8 -53 16 -67t8 -39v-31q4 -37 15.5 -54t11.5 -47q0 -69 -70 -69q-43 0 -67.5 18t-24.5 36t8 30q-20 100 -20 130zM83 677l-1 -1q0 7 1 1zM502 1253q0 29 -11.5 33t-19.5 4t-12 -2q16 2 29.5 -8t13.5 -27zM161 926q-28 0 -28 53q0 29 18.5 42t38.5 21q6 0 7 -8l2 -2l20 53
l60 33q17 17 44 49t42 39q16 19 31 22q16 3 21 6q7 6 11 30t31 24l33 21q44 34 75 34q54 1 54 -35q1 -53 -109 -164q-64 -64 -115 -97q-29 -29 -43 -43.5t-26 -23.5t-22 -25q-11 -17 -32 -17h-10l-26 2q-35 0 -42 -7t-35 -7z" />
    <glyph glyph-name="acircumflex" unicode="&#xe2;" horiz-adv-x="716" 
d="M143 374q0 -12 -20 -32h2q0 -29 16.5 -64.5t16.5 -76.5q0 -10 -15 -25l35 -26h17q31 0 32 1l17 19q6 10 11 21.5t21 27.5q6 15 29.5 44t42.5 71l8 10q0 20 2 25l30 59q27 54 22 80l18 39q2 4 5.5 54.5t15.5 84.5q0 23 12 43.5t12 36.5q-8 27 -41 27l-55 -19h-33l4 -4
q-22 -28 -37 -35l-2 -2q4 -12 4 -14q0 -20 -39 -35l-20 2q-74 -107 -74 -147l-10 -37q0 -20 -4 -21.5t-10 -5.5l2 -20q-16 -29 -15.5 -38t-5.5 -22q6 -9 6 -21zM539 230q0 30 -9.5 52.5t-13.5 59.5q-13 -32 -20 -39l-16 -16t-12.5 -14.5t-4.5 -4.5l-2 -39l-11 -33
q-11 -33 -26 -50q-36 -40 -106 -100t-89 -60q-37 0 -55 16q-12 -4 -22 -4q-20 0 -74.5 54t-54.5 100v4q-15 15 -15 30v27h-2q-6 0 -13 38t-11.5 58.5t-4.5 36.5t7 29q-8 11 -8 31t28 20l4 2v80q0 20 23 33h-4q0 43 17.5 60t29.5 17t13 12.5t-1 25t-3 20.5v1l32 66l22 23l6 4
q4 23 20.5 36t33.5 23q0 -4 2 -8v17q36 57 82 57q2 0 19 7t58 22.5t65 15.5q23 0 32 -18h20q19 0 77 -38t58 -73q0 -20 -16 -31v-4q0 -14 -12 -26q12 -25 12 -45h-12q12 -2 20 -13.5t8 -23.5l2 -90q4 -2 8.5 -11.5t4.5 -13.5v-47q14 -18 14 -39v-31q12 -16 13 -38t10 -75
q8 -53 16 -67t8 -39v-31q4 -37 15.5 -54t11.5 -47q0 -69 -70 -69q-43 0 -67.5 18t-24.5 36t8 30q-20 100 -20 130zM121 922q-39 0 -39 44q0 24 13.5 42t29.5 41q18 20 41 61l33 20h-6l2 3h6q24 55 59 69h4q0 8 21.5 34t57 55.5t52.5 29.5q26 0 79 -26t63 -29q2 -16 6 -28.5
t6 -24t4 -21.5q29 -58 45 -82l27 -41v2q41 -62 41 -101q0 -38 -38 -38q-68 0 -92 19t-35 52t-21 47q-11 13 -23.5 33.5t-26.5 42.5l-22 33q-17 -28 -46 -59t-47 -31h-10q4 -2 -4 -16v-2q-10 -23 -29 -41q-45 -88 -62 -88h-89zM83 677l-1 -1q0 7 1 1z" />
    <glyph glyph-name="atilde" unicode="&#xe3;" horiz-adv-x="645" 
d="M358 1014q-32 26 -41 26q-20 10 -8 39q-25 8 -22 21q2 12 -4 18q-5 6 -7 12t-4 9q-2 2 -2 6q-6 2 -8 8h-12l-4 -2l4 4q-23 -17 -23 -22q-34 -70 -34 -92t-23 -31v-6q0 -23 -16 -33t-37 -2l-45 20l-23 35q0 -12 -2 -6t-8 20t-6 33t28 57q0 29 29 37q11 25 27 41l16 49
q5 0 21 19l43 18q4 2 7 0t5 -14q2 12 14 22t29 7l47 -7l-6 -14h4q36 -6 61 -49q6 2 15 0q18 -10 23 -25t28 -39q22 -25 28 -37t15 -12l16 2v-7q1 -13 7 -6t10 30q-6 -4 -4 -1t7 11t19 16h-2q14 21 31 27q-20 0 -20 1q1 1 4 3q10 26 23 55t48 29t46 -16t14 -39q28 -9 28 -33
t-11 -42t-21 -34t-18 -26t-7 -20q0 -10 -10 -22q-10 -11 -27 -12q-12 -12 -29 -8q-41 -59 -61 -59q-12 0 -25 10q8 -10 -10 -16q-41 -21 -57 -5q-6 5 -10 9l-6 6t-7 -6l11 -4q-6 0 -11 4q-55 29 -37 43zM432 793l-55 -19h-33l4 -4q-21 -26 -37 -35l-2 -2q4 -12 4 -14
q0 -20 -39 -35l-20 2q-74 -107 -74 -147l-10 -37q0 -20 -4 -22q-4 -1 -10 -5l2 -20q-16 -29 -16 -38t-5 -22q6 -9 6 -21t-20 -32h2q1 -28 17 -64t16 -77q0 -10 -15 -25l35 -26h17q31 0 35 4l14 16q6 10 11 21t21 28q6 15 30 44q23 29 42 71l8 10q0 20 18 55q41 81 36 109
l18 39q2 4 3 18q6 87 18 121q0 23 12 43t12 37q-8 27 -41 27zM539 230q0 30 -10 53q-9 23 -13 59q-12 -30 -27 -46q-16 -18 -21 -24t-5 -4l-2 -39l-11 -33q-11 -33 -26 -50q-78 -87 -132 -123q-53 -37 -63 -37q-37 0 -55 16q-12 -4 -22 -4t-46 26q-35 26 -59 64
q-24 39 -24 64v4q-15 15 -15 30v27h-2q-6 0 -13 38t-14 71t5 53q-8 11 -8 31t28 20l4 2v80q0 20 23 33h-4q0 43 17 60t36 17q12 0 8 24t-5 34v1l32 66l22 23l6 4q5 23 21 36t33 23q0 -4 2 -8v17q36 57 82 57q2 1 57 23t81 22q27 0 36 -18h20q20 0 59 -26q76 -49 76 -85
q0 -20 -16 -31v-4q0 -14 -12 -26q12 -25 12 -45h-12q12 -1 20 -13t8 -24l2 -90q4 -2 8 -12t5 -13v-47q14 -18 14 -39v-31q12 -16 13 -38t10 -75q8 -53 16 -67t8 -39v-31q4 -37 15 -54t11 -47q1 -67 -69 -69q-43 0 -68 18q-41 29 -16 66q-20 100 -20 130zM83 677l-1 -1
q0 7 1 1z" />
    <glyph glyph-name="adieresis" unicode="&#xe4;" horiz-adv-x="716" 
d="M143 374q0 -12 -20 -32h2q0 -29 16.5 -64.5t16.5 -76.5q0 -10 -15 -25l35 -26h17q31 0 32 1l17 19q6 10 11 21.5t21 27.5q6 15 29.5 44t42.5 71l8 10q0 20 2 25l30 59q27 54 22 80l18 39q2 4 5.5 54.5t15.5 84.5q0 23 12 43.5t12 36.5q-8 27 -41 27l-55 -19h-33l4 -4
q-22 -28 -37 -35l-2 -2q4 -12 4 -14q0 -20 -39 -35l-20 2q-74 -107 -74 -147l-10 -37q0 -20 -4 -21.5t-10 -5.5l2 -20q-16 -29 -15.5 -38t-5.5 -22q6 -9 6 -21zM539 230q0 30 -9.5 52.5t-13.5 59.5q-13 -32 -20 -39l-16 -16t-12.5 -14.5t-4.5 -4.5l-2 -39l-11 -33
q-11 -33 -26 -50q-36 -40 -106 -100t-89 -60q-37 0 -55 16q-12 -4 -22 -4q-20 0 -74.5 54t-54.5 100v4q-15 15 -15 30v27h-2q-6 0 -13 38t-11.5 58.5t-4.5 36.5t7 29q-8 11 -8 31t28 20l4 2v80q0 20 23 33h-4q0 43 17.5 60t29.5 17t13 12.5t-1 25t-3 20.5v1l32 66l22 23l6 4
q4 23 20.5 36t33.5 23q0 -4 2 -8v17q36 57 82 57q2 0 19 7t58 22.5t65 15.5q23 0 32 -18h20q19 0 77 -38t58 -73q0 -20 -16 -31v-4q0 -14 -12 -26q12 -25 12 -45h-12q12 -2 20 -13.5t8 -23.5l2 -90q4 -2 8.5 -11.5t4.5 -13.5v-47q14 -18 14 -39v-31q12 -16 13 -38t10 -75
q8 -53 16 -67t8 -39v-31q4 -37 15.5 -54t11.5 -47q0 -69 -70 -69q-43 0 -67.5 18t-24.5 36t8 30q-20 100 -20 130zM395 1148q1 24 7 36t15 21t28.5 17.5t29.5 8.5q16 0 57 -37.5t41 -48.5q0 -55 -36 -76h2l-11 -8q-17 -23 -47 -23q-29 0 -44 12.5t-24.5 28t-13.5 30.5t-4 39
zM83 677l-1 -1q0 7 1 1zM326 1141q0 -96 -78 -97q-18 0 -29 5h-6q-27 0 -37 20q-24 14 -24 52t24.5 75t75.5 37t62.5 -22.5t11.5 -69.5zM176 1069q0 2 -1 4q0 -3 1 -4z" />
    <glyph glyph-name="aring" unicode="&#xe5;" horiz-adv-x="716" 
d="M143 374q0 -12 -20 -32h2q0 -29 16.5 -64.5t16.5 -76.5q0 -10 -15 -25l35 -26h17q31 0 32 1l17 19q6 10 11 21.5t21 27.5q6 15 29.5 44t42.5 71l8 10q0 20 2 25l30 59q27 54 22 80l18 39q2 4 5.5 54.5t15.5 84.5q0 23 12 43.5t12 36.5q-8 27 -41 27l-55 -19h-33l4 -4
q-22 -28 -37 -35l-2 -2q4 -12 4 -14q0 -20 -39 -35l-20 2q-74 -107 -74 -147l-10 -37q0 -20 -4 -21.5t-10 -5.5l2 -20q-16 -29 -15.5 -38t-5.5 -22q6 -9 6 -21zM539 230q0 30 -9.5 52.5t-13.5 59.5q-13 -32 -20 -39l-16 -16t-12.5 -14.5t-4.5 -4.5l-2 -39l-11 -33
q-11 -33 -26 -50q-36 -40 -106 -100t-89 -60q-37 0 -55 16q-12 -4 -22 -4q-20 0 -74.5 54t-54.5 100v4q-15 15 -15 30v27h-2q-6 0 -13 38t-11.5 58.5t-4.5 36.5t7 29q-8 11 -8 31t28 20l4 2v80q0 20 23 33h-4q0 43 17.5 60t29.5 17t13 12.5t-1 25t-3 20.5v1l32 66l22 23l6 4
q4 23 20.5 36t33.5 23q0 -4 2 -8v17q36 57 82 57q2 0 19 7t58 22.5t65 15.5q23 0 32 -18h20q19 0 77 -38t58 -73q0 -20 -16 -31v-4q0 -14 -12 -26q12 -25 12 -45h-12q12 -2 20 -13.5t8 -23.5l2 -90q4 -2 8.5 -11.5t4.5 -13.5v-47q14 -18 14 -39v-31q12 -16 13 -38t10 -75
q8 -53 16 -67t8 -39v-31q4 -37 15.5 -54t11.5 -47q0 -69 -70 -69q-43 0 -67.5 18t-24.5 36t8 30q-20 100 -20 130zM307 1191.5q0 -31.5 -8 -44.5l6 -21q9 -38 35 -55l82 47l12 25l4 12h-2q-14 16 -31.5 36.5t-17.5 50.5t16 42l-6 -2q-10 -16 -13 -15l-56 15q-13 -13 -29 -27
q8 -32 8 -63.5zM180 1067q0 6 4 14q-27 25 -26 54l-6 -13q0 16 6 27q-6 11 -6 33t8 53t12 51t6 27.5t2 16.5t10.5 16.5t32.5 9t31 -24.5q0 33 22.5 45.5t45.5 12.5h6q37 0 69.5 -6.5t38.5 -45.5q0 -27 -26 -49q20 14 55 14t48 -11t24 -29q16 -4 24 -16t29.5 -27.5
t-17.5 -49.5l7 -18q-4 -62 -50 -117q-4 -4 -24 -14l6 -2h2q0 -20 -12.5 -30.5t-28.5 -8.5q-38 -23 -125 -23h-26l-27 2q-35 0 -39 31q0 -10 -28.5 12.5t-32.5 45.5q-15 14 -15 20zM83 677l-1 -1q0 7 1 1z" />
    <glyph glyph-name="ae" unicode="&#xe6;" horiz-adv-x="1363" 
d="M700 434q5 0 25 -10l2 1q0 -1 15 6t114 32l2 -4q5 5 16 8.5t15 9.5l20 23q4 23 19.5 29t29.5 10h3l67 73v76q-10 8 -16.5 20.5t-11.5 17.5t-5 11l-10 11q-20 8 -50 8t-40 -8l-49 -25q-8 -20 -31 -25q-23 -4 -29 -7q-9 -5 -32.5 -52.5t-30.5 -69.5v-14q0 -18 -14 -29v-22
q0 -10 -15 -31v-39h6zM190 207q0 -10 -4 -19l19 -24l12 -14h53q-2 0 22 37t39 64t36 32q-16 6 22 59q0 33 6 45l43 119q8 16 13.5 27.5t15.5 19.5v27q-1 29 13 46t14 19t2 6q0 4 2 6v2q-2 12 -2 17v72q0 22 10 22q-12 23 -39 23l-57 -19h-31q5 -5 -19 -24l-16 -17
q9 -33 -37 -49l-16 2v2h-2q-2 0 -4 -2l-68 -133q-4 -4 -4 -14l-8 -37q0 -23 -5 -24t-12 -5q2 -4 2 -12l-14 -43v-15l-4 -12q13 -22 -12 -47v-4l2 -16v-5q9 -22 14 -51v-16q14 -35 14 -45zM1079 858q13 0 31 -21.5t20 -33.5q10 -16 17.5 -33.5t11.5 -24.5l-4 15l35 -60v-53
q0 -23 -16 -35q2 -4 -2 -23t-17 -40q-2 -18 -9 -24.5t-22 -10.5v2q0 2 1 2t1 4l-4 -8h2l-2 -2q-4 -10 -10 -14l-22 -21l-39 -47q-12 -12 -23 -14l-8 -17l-35 -20h2q-47 -27 -57 -39t-27 -12h-12q-30 -12 -53 -35q-29 -20 -52 2q-25 -10 -32 -10l-23 10h-4q-4 -4 -5 -4l-9 -4
q-4 0 -4 10v-98q0 -4 11 -8.5t27 -15.5t28 -16q12 -4 20 -14l6 2q10 0 22 -8q20 8 35 8h29q52 15 39 15l51 26q10 4 23.5 9.5t21.5 7.5l22 10l54 53q22 11 26 11l9 10q10 20 28.5 32.5t28.5 12.5l14 -2l27 -10q35 -12 35 -58q0 -47 -15.5 -63.5t-38.5 -28.5l-20 -14l-2 -4
q2 2 0 -2q-11 -28 -55 -48l-97 -41q-25 -19 -86 -40l-37 -13l-22 -20l-39 -19h-29l-61 19l-25 10h-10q-7 0 -19 10t-16 21q-22 6 -26 20q0 -2 -11 -2h-4q4 -12 4 -16v-8q0 -74 -65 -74q-29 0 -63.5 24.5t-34.5 53.5l2 4q0 14 12 24q-4 16 -4 19v149l2 8q-1 1 -8 15l4 24
l-6 -6v-37q-4 -18 -12 -33t-14.5 -29.5t-17.5 -26.5q-32 -33 -99.5 -93.5t-97.5 -60.5t-44 14q-8 -2 -30 -2t-34 20q-44 22 -67 71.5t-23 62.5v2q-16 12 -16 32v29q-2 -2 -3 2t-5 10t-4 19v26q0 4 -2 8.5t-2.5 7.5t-6.5 14t-6 38l4 37q-10 16 -5 32.5t28 16.5l2 2
q2 23 5 49.5t3 44.5l10 17v2q6 35 25 59l4 10l16 27l15 47l31 61l26 27q14 28 55 57q0 -4 2 -8v17q8 16 29 35.5t25 21.5h28l2 4q20 10 33 10t39 13l51 16h13l6 2q20 0 30 -18h21q37 0 57.5 -22t30.5 -38t16.5 -23.5t1.5 -4.5q12 -14 9 -31q6 -12 6 -21v-24l2 -2q0 -2 4 -5
t8 -18l6 21l27 30q34 45 57 45h2l19 13l-17 -4l101 59l16 16l29 7q9 0 22 -17l56 15q2 0 11 -5.5t25 -14t33 -19.5l8 -11l17 -6l16 -4h6z" />
    <glyph glyph-name="ccedilla" unicode="&#xe7;" horiz-adv-x="669" 
d="M495 -41q111 0 111 -88q0 -43 -25.5 -86t-66.5 -72q-29 -35 -37 -35q-45 -34 -100 -60t-64 -26h-2q-9 -35 -45 -25q-37 9 -51 42t-14 59l39 39q41 0 61 4h4q-6 0 13.5 18.5t29.5 24.5q10 16 24.5 17.5t26.5 5.5v2l2 -2q10 13 33 28v-2q8 8 16.5 14.5t14.5 16.5l-31 -6
q-12 -4 -26 -4h-11q-4 -23 -30.5 -27t-38.5 19q0 -2 -10 4t-22 12q-13 6 -13 27l-11 47l-2 10v2q-20 16 -30 47q0 25 3 28t5 7t4 10t2 26.5t-14 23.5t-40 3t-32 25q-29 4 -51.5 27.5t-52.5 59.5t-48 53t-8 42q-6 3 -6 29v33q0 69 16 130t17 73v40q0 25 20 35l15 8h6
q20 35 39 54q42 63 72 91t38 28l17 -3h6q29 17 100 43h8l9 3q64 -18 78 -38t15 -39.5t1 -45.5v-33q0 -25 -17.5 -35t-39.5 3q-22 14 -32 34t-8 22q-27 -2 -51 -15t-32 -29t-25 -17q-23 0 -43.5 -43.5t-20.5 -66.5q0 -24 -28 -35q-2 0 2 -8t4 -15v-6q0 -6 -6 -17.5t-10 -21.5
l-13 -12q-5 -15 -10 -25l16 15q9 -20 9 -35q0 -14 -13 -27l4 -6l9 -35q9 -9 20.5 -38t28.5 -29q4 0 19 -8t73 -9l59 2h8q32 0 82 33h-2q117 81 149 55t32 -82l-7 -24q-9 -19 -18 -23l-197 -102q-2 -2 -2 -6v-54q0 -32 -20 -57q4 -4 4 -6h12q46 4 100 4z" />
    <glyph glyph-name="egrave" unicode="&#xe8;" horiz-adv-x="765" 
d="M145 504q0 -21 -16 -37v-33h6q10 0 25 -10l135 39l4 -2q6 4 12 6t11 6q16 33 30 42t28 14q13 5 19 12l17 14q19 19 43 53q0 38 4 82q-14 12 -23 33q-20 25 -36 29t-40 4t-26 -6q-10 -6 -23.5 -15.5t-35.5 -17.5q-15 -18 -50 -23h-4q-4 -4 -19 -30t-20 -41l-26 -60
l-15 -28v-31zM289 10q-59 0 -119 -10h-4q-2 0 -4 2q-25 6 -31 27q-24 5 -31 22q0 -2 -12 -2t-22.5 10.5t-10.5 26.5v2q-30 36 -44.5 65t-14.5 31l4 13q-10 18 4 36l-22 58v18l-2 23q0 12 10 22q-8 16 -8 22t3 23t9 40.5t13 51t16 52.5q-23 10 -23 48t29 48q8 16 29 51t30 64
l35 39l18 22q11 10 23 15q12 6 22 14t37 20q26 12 53 34t38 22t36 -19q44 26 50 23l69 -45q8 -13 16 -15t21.5 -6t3.5 0h6q27 0 36 -2t11 -37q20 -51 62 -114q3 -66 -15 -87l2 -22l-10 -25q-4 -12 -10 -24q-10 -25 -33 -31q-4 -10 -12 -18l-23 -21l-39 -47q-12 -12 -20 -14
v-2q-38 -48 -137 -86l-58 -35q-24 -16 -45 0q-20 -8 -26 -8l-19 4l-14 10l-14 -8q-6 0 -7 10v-102q0 -5 25 -17t37 -19t16 -9l4 -11q9 4 15 4t18 -8q20 8 35 8h22q16 8 27.5 11.5t62.5 19.5t70 35q6 4 9 7l49 48q11 11 24 11h10q-10 0 4 14q26 41 58 41l26 -10
q33 -14 39 -22.5t6 -45.5t-16 -52.5t-39 -31.5l-18 -14q-4 -4 -8 -16t-37 -30q-81 -44 -189 -83l-33 -15q-4 0 -9 -4t-13 -8l2 2q6 6 -53 6zM102 1249q0 16 31.5 51t50.5 35t26 -13.5t53 -38.5t56 -42l21 -37q2 -6 6 -13t6 -11q0 14 -4 22q6 -2 11.5 -5t9.5 -5
q96 -103 128.5 -167.5t25.5 -76.5q-7 -13 -35 -12q-71 0 -128 72q-93 73 -167 153q-91 55 -91 88zM348 1202l-2 2q2 0 2 -2z" />
    <glyph glyph-name="eacute" unicode="&#xe9;" horiz-adv-x="765" 
d="M86 922q-42 0 -41 56q0 30 23 46t38 16l13 -16l14 63q25 9 47 29t43 43v-2q49 58 109 76l14 33q8 36 43 32q58 54 119 56q16 0 28 -12t11 -40q0 -29 -48 -90q-48 -60 -93 -90q-39 -39 -70 -61l-64 -60q-33 -17 -46 -41t-36 -24h-10l-26 2q-35 0 -41 -4q-11 -12 -27 -12z
M145 504q0 -21 -16 -37v-33h6q8 0 25 -10q24 4 135 39l4 -2q6 4 12 6t11 6q16 33 30 42t28 14q13 5 19 12l17 14q22 22 43 53q0 36 4 82q-11 9 -23 33q-20 25 -36 29t-40 4t-26 -6q-10 -6 -24 -16t-35 -17q-15 -18 -50 -23h-4q-4 -4 -19 -30t-20 -41l-26 -60l-15 -28v-31z
M289 10q-59 0 -119 -10h-4q-2 0 -4 2q-25 6 -31 27q-22 4 -31 22q0 -2 -8 -2q-35 0 -37 37v2q-10 12 -20 28q-39 60 -39 68l4 13q-10 18 4 36l-22 58v18l-2 23q0 12 10 22q-8 16 -8 22t9 55q9 48 32 112q-23 10 -23 47t29 49q8 16 29 51t30 64l35 39l18 22q11 10 23 15
q12 6 22 14t36 20q25 12 45 27q20 16 34 26t49 -16q45 26 68 11l51 -33q8 -13 16 -15t22 -6q13 -4 3 0h6q27 0 36 -2t11 -37q22 -54 62 -114q3 -69 -15 -87l2 -22l-10 -25q-4 -12 -10 -24q-10 -25 -33 -31q-4 -10 -12 -18l-23 -21l-39 -47q-12 -12 -20 -14v-2
q-38 -48 -137 -86l-58 -35q-22 -15 -45 0q-20 -8 -26 -8l-19 4l-14 10l-14 -8q-6 0 -7 10v-102q1 -4 25 -17q24 -12 36 -19t17 -9l4 -11q9 4 15 4t18 -8q20 8 35 8h22q16 8 79 27t81 39q13 8 35 33l23 22q7 7 24 11h10q-10 0 4 14q26 41 58 41l26 -10q33 -14 39 -22t6 -46
q0 -37 -16 -52t-39 -32l-18 -14q-4 -4 -8 -16t-37 -30q-34 -18 -52 -26t-37 -16t-43 -18t-57 -23l-33 -15q-4 0 -9 -4t-13 -8l2 2q6 6 -53 6z" />
    <glyph glyph-name="ecircumflex" unicode="&#xea;" horiz-adv-x="765" 
d="M145 504q0 -21 -16 -37v-33h6q10 0 25 -10l135 39l4 -2q6 4 12 6t11 6q16 33 30 42t28 14q13 5 19 12l17 14q19 19 43 53q0 38 4 82q-14 12 -23 33q-20 25 -36 29t-40 4t-26 -6q-10 -6 -23.5 -15.5t-35.5 -17.5q-15 -18 -50 -23h-4q-4 -4 -19 -30t-20 -41l-26 -60
l-15 -28v-31zM289 10q-59 0 -119 -10h-4q-2 0 -4 2q-25 6 -31 27q-24 5 -31 22q0 -2 -12 -2t-22.5 10.5t-10.5 26.5v2q-30 36 -44.5 65t-14.5 31l4 13q-10 18 4 36l-22 58v18l-2 23q0 12 10 22q-8 16 -8 22t3 23t9 40.5t13 51t16 52.5q-23 10 -23 48t29 48q8 16 29 51t30 64
l35 39l18 22q11 10 23 15q12 6 22 14t37 20q26 12 53 34t38 22t36 -19q44 26 50 23l69 -45q8 -13 16 -15t21.5 -6t3.5 0h6q27 0 36 -2t11 -37q20 -51 62 -114q3 -66 -15 -87l2 -22l-10 -25q-4 -12 -10 -24q-10 -25 -33 -31q-4 -10 -12 -18l-23 -21l-39 -47q-12 -12 -20 -14
v-2q-38 -48 -137 -86l-58 -35q-24 -16 -45 0q-20 -8 -26 -8l-19 4l-14 10l-14 -8q-6 0 -7 10v-102q0 -5 25 -17t37 -19t16 -9l4 -11q9 4 15 4t18 -8q20 8 35 8h22q16 8 27.5 11.5t62.5 19.5t70 35q6 4 9 7l49 48q11 11 24 11h10q-10 0 4 14q26 41 58 41l26 -10
q33 -14 39 -22.5t6 -45.5t-16 -52.5t-39 -31.5l-18 -14q-4 -4 -8 -16t-37 -30q-81 -44 -189 -83l-33 -15q-4 0 -9 -4t-13 -8l2 2q6 6 -53 6zM20 960q0 26 12.5 46t28.5 43q23 23 41 61l35 20l2 3q19 58 64 69l6 12q0 2 12 19.5t47 52.5t72 35l22 -2q77 -25 97.5 -48.5
t24.5 -44.5q3 -22 4 -30t6 -12l-19 -6q21 -7 51 -50q25 -50 35 -55q12 -27 19 -33q22 -40 22 -63q0 -45 -37 -45l-84 8q-39 50 -47 78t-20 37l-64 106q-8 -16 -11 -19l-30 -30l-28 -33q-10 -10 -27 -10h-6q9 -5 -2 -16q-18 -29 -37 -43q-6 -37 -37 -58.5t-64.5 -29t-60.5 2
t-27 35.5z" />
    <glyph glyph-name="edieresis" unicode="&#xeb;" horiz-adv-x="765" 
d="M145 504q0 -21 -16 -37v-33h6q10 0 25 -10l135 39l4 -2q6 4 12 6t11 6q16 33 30 42t28 14q13 5 19 12l17 14q19 19 43 53q0 38 4 82q-14 12 -23 33q-20 25 -36 29t-40 4t-26 -6q-10 -6 -23.5 -15.5t-35.5 -17.5q-15 -18 -50 -23h-4q-4 -4 -19 -30t-20 -41l-26 -60
l-15 -28v-31zM289 10q-59 0 -119 -10h-4q-2 0 -4 2q-25 6 -31 27q-24 5 -31 22q0 -2 -12 -2t-22.5 10.5t-10.5 26.5v2q-30 36 -44.5 65t-14.5 31l4 13q-10 18 4 36l-22 58v18l-2 23q0 12 10 22q-8 16 -8 22t3 23t9 40.5t13 51t16 52.5q-23 10 -23 48t29 48q8 16 29 51t30 64
l35 39l18 22q11 10 23 15q12 6 22 14t37 20q26 12 53 34t38 22t36 -19q44 26 50 23l69 -45q8 -13 16 -15t21.5 -6t3.5 0h6q27 0 36 -2t11 -37q20 -51 62 -114q3 -66 -15 -87l2 -22l-10 -25q-4 -12 -10 -24q-10 -25 -33 -31q-4 -10 -12 -18l-23 -21l-39 -47q-12 -12 -20 -14
v-2q-38 -48 -137 -86l-58 -35q-24 -16 -45 0q-20 -8 -26 -8l-19 4l-14 10l-14 -8q-6 0 -7 10v-102q0 -5 25 -17t37 -19t16 -9l4 -11q9 4 15 4t18 -8q20 8 35 8h22q16 8 27.5 11.5t62.5 19.5t70 35q6 4 9 7l49 48q11 11 24 11h10q-10 0 4 14q26 41 58 41l26 -10
q33 -14 39 -22.5t6 -45.5t-16 -52.5t-39 -31.5l-18 -14q-4 -4 -8 -16t-37 -30q-81 -44 -189 -83l-33 -15q-4 0 -9 -4t-13 -8l2 2q6 6 -53 6zM398 1210q27 22 45 21q24 0 65 -38.5t41 -47.5q0 -56 -35 -74q-8 -4 -13 -13q-5 -8 -22 -14t-32 -6q-16 0 -32 11.5t-30 35.5
t-14 64q0 39 27 61zM127 1121q0 38 24.5 75t65.5 37q62 0 73 -22.5t11 -69.5t-14.5 -72t-65.5 -25h-9q-9 0 -17 5h-7q-26 0 -36 20q-25 14 -25 52z" />
    <glyph glyph-name="igrave" unicode="&#xec;" horiz-adv-x="382" 
d="M309 526q0 -2 -2 -2h2v2zM164 629q-24 -8 -58 -8h-12l-6 4h-4q-23 -18 -53 -19t-39 31l-15 84q0 24 63.5 36.5t65.5 12.5h54q0 2 -1 4q-4 10 36 10l10 2h33l28 -2h17q16 0 26 -10t10 -24t-8 -33v-33q0 -4 -4 -12q6 -16 0 -33q4 -8 4 -12v-9l13 -65q0 -18 -13 -33
q15 -30 15 -68t-17 -61q6 -6 11.5 -17.5t3.5 -15.5l-13 -84v-18q15 -22 15 -56t-7 -59q25 -25 25 -88q0 -16 -10 -27.5t-46.5 -11.5t-74 14t-37.5 74v39q0 2 -8 11t-8 27t9 44t9 41v4q-18 10 -18 39v43q0 28 18 35q-7 30 -18 43v23q0 14 9 23t9 32q0 -2 2 -2h4q-2 0 -6 4
q-18 10 -18 31zM139 1180q2 -10 2 -21.5t4 -19.5q2 0 1 3t4 1q6 -2 15 -4t17 -6.5t19 -8.5l-11 9q17 -7 70 -66h-2l27 -27q22 -17 59 -36q23 -8 27 -29t-15 -37l-57 -45q-14 -10 -29.5 -8t-20.5 12t-10.5 11t-9.5 5l-16 9l-45 45l-49 37l-10 6l-27 26l-31 17l-57 71
q-10 10 -10 24.5t10 25.5l41 45q17 17 45 6l18 -17q32 9 41 -28z" />
    <glyph glyph-name="iacute" unicode="&#xed;" horiz-adv-x="389" 
d="M258 1206h-6l24 19q27 14 46 -8l38 -41q10 -10 10.5 -25.5t-8.5 -26.5l-59 -71l-29 -15l-28 -28l-58 -43l-45 -45l-16 -8q-16 -9 -21 -13q-22 -36 -55 -10l-55 49q-16 16 -12 36t19 26q15 7 67 38l26 27h-2q50 56 64 61q7 7 41 13l16 39q4 24 35 24l2 -1q-2 3 6 3z
M104 625q-24 -19 -55 -19t-35 31l-16 84q0 24 63.5 36.5t65.5 12.5h55q-3 9 7 11.5t26 2.5l12 2h31l25 -2h20q16 0 27.5 -10t11.5 -24t-8 -33v-10l-2 -23q0 -4 -4 -12q10 -16 0 -33q4 -8 4 -12v-9q12 -42 12 -64t-12 -34q14 -19 14 -65q0 -47 -16 -64q2 -2 4 -2
q4 -4 8 -15.5t2 -15.5l-12 -84v-18q14 -14 14 -52t-4 -63l2 -8l12 -12q9 -22 9 -53q0 -54 -37 -54q-59 0 -95 14t-36 74v39l-15 33q0 25 8 52t9 38v4q-16 12 -17 39v43q0 25 15 33q-1 5 -15 47v33q8 16 17 43l2 -2q0 2 -1 2t-1 2q-16 12 -17 31l4 90q-32 -8 -59 -8h-12l-6 4
h-5z" />
    <glyph glyph-name="icircumflex" unicode="&#xee;" horiz-adv-x="407" 
d="M104 987h-10q2 -4 -3 -13t-9 -18l-25 -26q-16 -16 -32.5 -13t-24.5 19h2l-6 10q0 -4 4 -8q-8 4 -6 10l2 -2q0 2 -2 4v-2l-14 21q0 82 27 113t48 38l19 23q6 6 10 14l12 27q5 16 23 22l18 11q18 22 40 22q31 0 86.5 -26t64.5 -35q4 -10 8 -32t8 -38l-2 2l4 -16l8 -2
l43 -86q12 -28 -12 -50l-41 -26q-12 -10 -29.5 -5t-27.5 19l-13 21l-6 4l-67 106l-4 -10l-66 -66q-12 -12 -27 -12zM166 629q-32 -8 -57 -8h-15l-6 4h-2q-24 -19 -53 -19q-30 0 -39 31l-14 84q0 24 63 36.5t66 12.5h51q2 0 2 -2q2 2 -1.5 9t36.5 7l10 2h33l26 -2h19
q16 0 26.5 -10t10.5 -22t-9 -35v-10l-2 -23q0 -4 -4 -12q10 -16 0 -33q4 -8 4 -12v-9q15 -52 15 -68q0 -15 -15 -30q17 -23 17 -66q0 -44 -19 -63q2 -2 4 -2q4 -4 9.5 -15.5t3.5 -15.5l-15 -84v-18q17 -18 17 -54t-6 -61q4 -4 4 -8q20 -23 20 -71t-47.5 -48t-85 14t-37.5 74
v39l-14 33l16 90v4q-16 12 -16 39v43q0 27 16 35q-8 33 -16 43v23q0 14 8 23t8 32l2 -2q0 2 -1 2t-1 2q-16 12 -16 31z" />
    <glyph glyph-name="idieresis" unicode="&#xef;" horiz-adv-x="358" 
d="M162 1084q0 22 8 40q10 22 34 33.5t36 11.5q23 0 61.5 -37.5t38.5 -46.5q0 -41 -2 -44l-49 -46q-4 -4 -12.5 -6t-12.5 -4h4q-12 -8 -30 -8t-34 12t-25 27.5t-13 30.5t-4 37zM144.5 1150q11.5 -21 11.5 -66q0 -46 -13.5 -73.5t-66.5 -27.5q-16 0 -27 4h-10q-25 0 -31 21
q-28 17 -28 53q0 37 24.5 73.5t76.5 36.5t63.5 -21zM164 629q-24 -8 -58 -8h-12l-6 4h-4q-23 -18 -53 -19t-39 31l-15 84q0 24 63.5 36.5t65.5 12.5h56l-1 2q-6 12 34 12l10 2h33l28 -2h17q16 0 26 -10t10 -24t-8 -33v-33q0 -4 -4 -12q6 -16 0 -33q4 -8 4 -12v-9l13 -65
q0 -18 -13 -33q15 -30 15 -68t-17 -61q6 -6 11.5 -17.5t3.5 -15.5l-13 -84v-18q15 -22 15 -56t-7 -59q25 -25 25 -88q0 -16 -10 -27.5t-46.5 -11.5t-74 14t-37.5 74v39q0 2 -8 11t-8 27t9 44t9 41v4q-18 10 -18 39v43q0 28 18 35q-7 30 -18 43v23q0 14 9 23t9 32q0 -2 2 -2
h4q-2 0 -6 4q-18 10 -18 31z" />
    <glyph glyph-name="eth" unicode="&#xf0;" horiz-adv-x="714" 
d="M147 325q0 -17 -22 -36q12 -8 17 -22.5t-3 -26.5v4l-2 -4v-4q45 -66 72.5 -81.5t79.5 -15.5l33 11q54 27 43 16q75 34 81 55t9.5 40.5t9.5 35.5l10 27q-14 20 -14 55t-25 84q-10 39 -20 75.5t-38 36.5t-74 -27.5t-93 -74.5q-13 -9 -31 -45.5t-25.5 -61t-7.5 -41.5z
M569 504l2 -12q39 -39 39 -113q0 -144 -32 -205l4 6q-25 -68 -53.5 -90t-65.5 -39l-23 -12l-6 -4h2l-24 -12l14 4q-75 -36 -110 -37.5t-66 -1.5q-14 8 -43 12t-48.5 8t-27.5 21q-93 93 -112 124.5t-19 86.5q0 54 6 96t6 65t17 43q8 6 14 11.5t6 1.5q11 17 21 43t18 43.5
t14 31.5q6 -10 33 13.5t74 52.5q10 10 20.5 23.5t20.5 19.5t12 8t10 6q14 21 35 21h21l-4 10q-16 16 -27 43l-10 23q-12 -6 -27 -7t-61 -49q-68 -59 -90 -59q-21 0 -32 2t-34.5 6t-28.5 6q-23 10 -24.5 35t20.5 35v2q0 4 18 22.5t32 22.5t24 3t14 -1q-5 2 8 25l54 30
q18 10 32.5 18.5t18.5 20.5q-10 10 -10 29q-11 18 -33 49v-2q-40 50 -43 78l-10 10h-2q-34 11 -52 27q-16 16 -22 32t-2 17q-35 0 -35 37q0 7 30 35t42 28q21 0 80 -49t70 -74t59 -69v2l21 -21q20 -20 32 -39q18 13 32 22q15 9 28.5 21.5t30.5 25.5t34.5 26.5t32.5 19.5
q114 95 139.5 76t25.5 -41v-53q0 -34 -34 -39q2 -2 4 -2q-10 -16 -19.5 -27.5t-29.5 -11.5h-15q6 -6 -15.5 -23.5t-37.5 -21.5q-37 -37 -94 -68q14 4 2 -3t-21 -13l31 -39l-4 2q8 -10 24 -46t33 -54t17 -26q0 -7 2 -9l18 -58l23 -45q28 -54 28 -78t-2 -28zM436 35q1 0 1 1z
" />
    <glyph glyph-name="ntilde" unicode="&#xf1;" 
d="M736 673q-1 -13 -1 -31t4 -52q29 0 33 -26t-12 -44h-2q22 -51 22 -78t-8 -41q18 -29 18 -57t-12 -74q13 -44 13 -69t-21 -58q4 -4 4 -8t1 -10t11 -24q10 -19 0 -36t-32 -18l-15 -2h-14q-29 0 -61 14t-33 54v419l-17 43q0 70 -19 99t-42 45q-40 -7 -135 -109v2
q-12 -14 -30 -38t-36 -44l-39 -51l6 6q-100 -132 -141 -255q-12 -36 -12 -56v-76q0 -47 -40 -69q-14 -7 -24 -9t-12 -4t-4 -2t-19 3q-16 3 -16 6q-20 13 -20 38q1 25 -15 49t-16 44t25 39v518q0 16 11 27t27 12h27q11 0 27 -13l45 -45q12 -12 12 -28l-8 -132l27 48
q8 12 38 22l7 25q104 129 202 194h27l16 -2q43 19 55 19q13 0 31 -9l37 -10q68 -34 117 -109q14 -24 13 -37zM426 973l-39 25q0 1 -2 1q-20 10 -8 39q-25 8 -23 20t-4 19q-6 6 -6 15l-6 12q-6 2 -8 8h-13l-4 -2l4 4q-22 -16 -22 -22q-35 -72 -35 -93q0 -20 -22 -30v-6
q0 -23 -16 -33t-38 -2l-45 20l-22 35q0 -12 -2 -6q-3 6 -9 21t-6 25q0 9 11 31q10 22 18 33q0 29 29 37q12 27 26 41l17 49q7 0 20 19l43 18q4 2 7 0t5 -14q2 13 14 23t29 6l48 -6l-7 -15h5q25 -4 37 -18t24 -31q6 2 19 -4t17 -18t13 -23q7 -11 23 -27t21 -28q5 -13 16 -13
l16 2v-7q0 -14 6 -6t10 30q-6 -4 -4 -1t7 11t20 16h-2q14 20 30 27q-20 0 -19 1l3 3q10 26 24 55t48 29q35 0 46 -16t13 -39q29 -8 29 -32t-11 -42t-21 -34t-18 -27q-7 -11 -7 -21q-1 -10 -11 -21t-26 -12q-12 -12 -29 -8q-41 -59 -61 -59q-15 0 -25 10q8 -10 -10 -16
q-40 -20 -58 -5q-6 5 -12 11t-10 -2l10 -4q-6 0 -10 4q-55 29 -37 43z" />
    <glyph glyph-name="ograve" unicode="&#xf2;" horiz-adv-x="739" 
d="M55 510h2l13 45h-4q0 19 26 52t25 38l10 6q20 43 30 56q9 13 23 13h14q0 -1 11 -1l14 8q29 27 53 34t58 7q14 29 35 39q16 0 30 -6q15 -6 19 -6q30 0 33 -36t-25 -40h35q125 0 139 -21q4 -16 2 -24q18 -20 40 -42t21 -32v-18l11 -23q18 -33 18 -65t-2 -37v-8
q0 -116 -63 -242l-15 -14q-16 -16 -36 -38t-42 -22h-6l-18 -14q-43 -27 -98 -43q-45 0 -54 4q-39 -20 -55 -20q-16 -1 -45 16h-2q-37 -6 -59 16q-77 14 -162 123v21l2 14q-20 2 -29 18q-8 16 0 33q-6 10 -2 23q-18 22 -18 30q8 25 16 33v19q18 66 49 104l8 4q-2 -2 -2 -4z
M510 553q0 4 -20 18t-50 15q-29 1 -49 10q-16 16 -18 28q-5 33 -13 38q-2 -2 -2 -4t-2 -3l-163 -157q-17 0 -17 14v-12l2 -25q0 -29 -5 -31t-9 -10l-2 -2l2 -12q0 -12 -12 -28t-19 -56h2q37 -12 44 -44q3 -13 7 -26v-2q23 -28 53 -30q30 -1 35 -25h91q10 10 22 14t16 6t5 -2
q0 19 19 27t36 2l78 156q2 28 -3 52t-10 23q-18 9 -18 33v8q0 6 2 11q0 -6 6 -11q-8 8 -8 25zM110 1209q45 65 66 65t45 -27q4 -2 6 -5t17 -11q14 -7 30 -17l33 -20q15 -15 33 -45q15 -10 20 -10l74 -74l23 -35l14 -16l47 -66h-2q4 -4 12 -22t-3 -33q-11 -16 -23 -16h-31
q-17 0 -64 26q-46 26 -59 47v6l-69 58l-86 86q-90 54 -93 92q0 4 10 17z" />
    <glyph glyph-name="oacute" unicode="&#xf3;" horiz-adv-x="739" 
d="M55 510h2l13 45h-4q0 19 26 52t25 38l10 6q20 43 30 56q9 13 23 13h14q0 -1 11 -1l14 8q29 27 53 34t58 7q14 29 35 39q16 0 30 -6q15 -6 19 -6q30 0 33 -36t-25 -40h35q125 0 139 -21q4 -16 2 -24q18 -20 40 -42t21 -32v-18l11 -23q18 -33 18 -65t-2 -37v-8
q0 -116 -63 -242l-15 -14q-16 -16 -36 -38t-42 -22h-6l-18 -14q-43 -27 -98 -43q-45 0 -54 4q-39 -20 -55 -20q-16 -1 -45 16h-2q-37 -6 -59 16q-77 14 -162 123v21l2 14q-20 2 -29 18q-8 16 0 33q-6 10 -2 23q-18 22 -18 30q8 25 16 33v19q18 66 49 104l8 4q-2 -2 -2 -4z
M510 553q0 4 -20 18t-50 15q-29 1 -49 10q-16 16 -18 28q-5 33 -13 38q-2 -2 -2 -4t-2 -3l-163 -157q-17 0 -17 14v-12l2 -25q0 -29 -5 -31t-9 -10l-2 -2l2 -12q0 -12 -12 -28t-19 -56h2q37 -12 44 -44q3 -13 7 -26v-2q23 -28 53 -30q30 -1 35 -25h91q10 10 22 14t16 6t5 -2
q0 19 19 27t36 2l78 156q2 28 -3 52t-10 23q-18 9 -18 33v8q0 6 2 11q0 -6 6 -11q-8 8 -8 25zM166 877h-25q-18 0 -30 16q-18 26 8 57l61 80q7 4 23 35l69 74l27 12q-6 0 8 14l17 25l38 24q14 6 24 14t15 11q4 2 9 6t20 17q14 12 27 12t44 -36t31 -47t-14 -31t-40 -39
q-27 -19 -36 -23l-84 -82l-71 -62q-4 -8 -44 -38t-63 -37l13 2q-9 -4 -27 -4z" />
    <glyph glyph-name="ocircumflex" unicode="&#xf4;" horiz-adv-x="739" 
d="M55 510h2l13 45h-4q0 19 26 52t25 38l10 6q20 43 30 56q9 13 23 13h14q0 -1 11 -1l14 8q29 27 53 34t58 7q14 29 35 39q16 0 30 -6q15 -6 19 -6q30 0 33 -36t-25 -40h35q125 0 139 -21q4 -16 2 -24q18 -20 40 -42t21 -32v-18l11 -23q18 -33 18 -65t-2 -37v-8
q0 -116 -63 -242l-15 -14q-16 -16 -36 -38t-42 -22h-6l-18 -14q-43 -27 -98 -43q-45 0 -54 4q-39 -20 -55 -20q-16 -1 -45 16h-2q-37 -6 -59 16q-77 14 -162 123v21l2 14q-20 2 -29 18q-8 16 0 33q-6 10 -2 23q-18 22 -18 30q8 25 16 33v19q18 66 49 104l8 4q-2 -2 -2 -4z
M510 553q0 4 -20 18t-50 15q-29 1 -49 10q-16 16 -18 28q-5 33 -13 38q-2 -2 -2 -4t-2 -3l-163 -157q-17 0 -17 14v-12l2 -25q0 -29 -5 -31t-9 -10l-2 -2l2 -12q0 -12 -12 -28t-19 -56h2q37 -12 44 -44q3 -13 7 -26v-2q23 -28 53 -30q30 -1 35 -25h91q10 10 22 14t16 6t5 -2
q0 19 19 27t36 2l78 156q2 28 -3 52t-10 23q-18 9 -18 33v8q0 6 2 11q0 -6 6 -11q-8 8 -8 25zM78 922q-37 0 -37 36q0 28 12 48t29 43q23 23 41 61l35 20l2 3q19 58 63 69l6 12q0 11 46 59t85 48l23 -2q81 -26 99 -49q18 -22 28 -68v-2l20 -40t20 -38q10 -16 19 -30
q8 -14 13 -19q10 -23 25 -46t15 -48q1 -47 -37 -47q-97 0 -113 46q-5 13 -7 30l2 -2q-4 20 -24 39t-54 81l-18 33q-18 -26 -50 -58t-47 -32h-6q9 -5 -2 -16q-18 -29 -37 -43q-43 -79 -111 -86q-19 -2 -40 -2z" />
    <glyph glyph-name="otilde" unicode="&#xf5;" horiz-adv-x="739" 
d="M55 510h2l13 45h-4q0 19 26 52t25 38l10 6q20 43 30 56q9 13 23 13h14q0 -1 11 -1l14 8q29 27 53 34t58 7q14 29 35 39q16 0 30 -6q15 -6 19 -6q30 0 33 -36t-25 -40h35q125 0 139 -21q4 -16 2 -24q18 -20 40 -42t21 -32v-18l11 -23q18 -33 18 -65t-2 -37v-8
q0 -116 -63 -242l-15 -14q-16 -16 -36 -38t-42 -22h-6l-18 -14q-43 -27 -98 -43q-45 0 -54 4q-39 -20 -55 -20q-16 -1 -45 16h-2q-37 -6 -59 16q-77 14 -162 123v21l2 14q-20 2 -29 18q-8 16 0 33q-6 10 -2 23q-18 22 -18 30q8 25 16 33v19q18 66 49 104l8 4q-2 -2 -2 -4z
M510 553q0 4 -20 18t-50 15q-29 1 -49 10q-16 16 -18 28q-5 33 -13 38q-2 -2 -2 -4t-2 -3l-163 -157q-17 0 -17 14v-12l2 -25q0 -29 -5 -31t-9 -10l-2 -2l2 -12q0 -12 -12 -28t-19 -56h2q37 -12 44 -44q3 -13 7 -26v-2q23 -28 53 -30q30 -1 35 -25h91q10 10 22 14t16 6t5 -2
q0 19 19 27t36 2l78 156q2 28 -3 52t-10 23q-18 9 -18 33v8q0 6 2 11q0 -6 6 -11q-8 8 -8 25zM362 993l-38 26q0 1 -2 1q-20 10 -9 39q-25 8 -22 20q2 13 -4 19t-6 14l-15 21h-12l-4 -3l4 5q-25 -19 -41 -62t-16 -59t-23 -25v-6q0 -23 -16 -33t-37 -2l-45 21l-23 35
q0 -12 -2 -7q-2 6 -8 21t-6 33t29 57q0 27 28 37q11 25 27 41l16 49q9 0 21 18l43 19q4 2 7 0t5 -15q2 13 14 23t29 6l47 -6l-6 -14h4q34 -5 61 -49q6 2 15 0q18 -10 24 -28t28 -39q21 -22 27 -34t15 -12l16 2v-7q1 -13 7 -6t10 29q-6 -4 -4 -1t7 11t19 17h-2q12 17 31 27
q-20 0 -19 1l3 3q10 26 23 55t48 29t46 -16t14 -40q28 -8 28 -32t-11 -42t-21 -34t-18 -26t-7 -15q0 -39 -37 -39q-12 -12 -29 -8q-40 -58 -58 -59q-17 -1 -28 10q8 -11 -10 -17q-19 -10 -35 -10q-18 0 -38 20q-2 2 -7 -6l11 -4q-6 0 -11 4q-55 29 -37 43z" />
    <glyph glyph-name="odieresis" unicode="&#xf6;" horiz-adv-x="739" 
d="M55 510h2l13 45h-4q0 19 26 52t25 38l10 6q20 43 30 56q9 13 23 13h14q0 -1 11 -1l14 8q29 27 53 34t58 7q14 29 35 39q16 0 30 -6q15 -6 19 -6q30 0 33 -36t-25 -40h35q125 0 139 -21q4 -16 2 -24q18 -20 40 -42t21 -32v-18l11 -23q18 -33 18 -65t-2 -37v-8
q0 -116 -63 -242l-15 -14q-16 -16 -36 -38t-42 -22h-6l-18 -14q-43 -27 -98 -43q-45 0 -54 4q-39 -20 -55 -20q-16 -1 -45 16h-2q-37 -6 -59 16q-77 14 -162 123v21l2 14q-20 2 -29 18q-8 16 0 33q-6 10 -2 23q-18 22 -18 30q8 25 16 33v19q18 66 49 104l8 4q-2 -2 -2 -4z
M510 553q0 4 -20 18t-50 15q-29 1 -49 10q-16 16 -18 28q-5 33 -13 38q-2 -2 -2 -4t-2 -3l-163 -157q-17 0 -17 14v-12l2 -25q0 -29 -5 -31t-9 -10l-2 -2l2 -12q0 -12 -12 -28t-19 -56h2q37 -12 44 -44q3 -13 7 -26v-2q23 -28 53 -30q30 -1 35 -25h91q10 10 22 14t16 6t5 -2
q0 19 19 27t36 2l78 156q2 28 -3 52t-10 23q-18 9 -18 33v8q0 6 2 11q0 -6 6 -11q-8 8 -8 25zM392 1037q-17 28 -17 61t14 61q13 11 33 21t30 10q30 0 90 -69q11 -13 11 -17q0 -39 -11 -53t-28 -23h2q-29 -29 -63 -30q-34 -2 -61 39zM305 1099q0 -95 -64 -95q-32 0 -40 4
h-11q-16 16 -38 25t-21 47t23 75t65 37t57 -8t22 -24q8 -15 7 -61z" />
    <glyph glyph-name="divide" unicode="&#xf7;" horiz-adv-x="876" 
d="M545 559q2 0 2 2zM477 322v-7q0 -84 -19 -103t-44 -19q-111 42 -111 94q4 23 39 46t72 25l24 2q16 0 27.5 -11t11.5 -27zM285 957q0 15 10 26.5t35 11.5t69.5 -34.5t44.5 -59.5q0 -24 -20 -39l2 -59q0 -16 -10 -27.5t-31 -11.5q-44 0 -83 35.5t-46 72.5q0 29 33 58
q-4 12 -4 27zM541 713h30q23 0 33 -21q14 14 49 19q20 20 41 20h4q29 0 45 -29l11 5v-2q24 6 36 6t22.5 -11.5t10.5 -39.5t-57 -60q-16 -11 -16 -4q-9 -35 -39 -35h-84q-8 -8 -25 -8h-2q-12 -12 -29.5 -12t-27.5 16q-14 -12 -39 -8q-2 -2 -4 -2h-13q-64 -8 -72 -8t-38 12
q-18 -6 -31 -6l-29 2h-28q-25 -10 -74 -10q-50 0 -80 18q-10 -8 -20 -8t-13.5 -1t-7.5 1l-80 6q-37 5 -37 41q0 37 28 53.5t58 32.5q20 0 21 -2q4 35 39 35l211 -15q30 12 63 2q8 6 25 7l24 -3q25 -2 31 -2l41 7q6 1 11 3t12 1z" />
    <glyph glyph-name="oslash" unicode="&#xf8;" horiz-adv-x="739" 
d="M510 520v8v4l-18 39l-13 2q-8 2 -1 -1l-3 1l-55 -176l-12 -51q-12 -69 -29 -92l-14 -45h6q12 12 26 12l6 4l-14 -2l14 6q30 49 62 31l76 152v8l-17 69q-14 14 -14 31zM291 444q0 18 22 54l23 45q-4 -4 -1 8t9 51t25 49q-6 8 -9 8l-167 -161q-4 0 -10.5 4t-6.5 10v-12
l2 -25q0 -29 -5 -31t-9 -10l-2 -2l2 -20l-19 -33l-12 -41v-2h2q37 -12 42 -34.5t9 -35.5v-2q14 -18 43 -28l29 30l4 6l12 103q0 12 6.5 21.5t10.5 17.5v30zM0 387v19q18 64 27.5 73.5t15.5 16.5q18 59 24.5 82.5t16.5 13.5l33 53l10 6q21 45 30 57.5t33 12.5l15 -2l16 8
q27 27 51.5 34t57.5 7q14 29 35 39q16 0 30 -6q15 -6 19 -6t4 -2l20 43h-2q10 10 10 34t7 31q-2 7 -2 19t-2 18l4 10q8 23 32 27h74q16 0 27.5 -10.5t11.5 -24.5t-8 -42t-10 -32l-13 -28q-10 -16 -14 -32l-16 -52q12 -6 33.5 -29t25.5 -27q6 -16 0 -30q63 -32 63 -68v-18
l7 -21q22 -16 22 -57q0 -42 -2 -47v-25q0 -4 -2 -15t-6 -38.5t-6 -34.5v-16l-17 -58l-32 -63l-15 -14q-16 -16 -36.5 -38t-41.5 -22h-6l-41 -18q-6 -10 -10 -13.5t-6 -5.5l-64 -20h-49l-37 -15q-19 -28 -24 -51v-20l-23 -45l4 4l-26 -76q-6 -16 -20.5 -22.5t-30.5 2.5
l-62 28q-10 4 -18 16.5t1 50.5t15 44q2 8 7 16t10.5 18.5t13.5 23.5l22 36v6q-69 23 -155 123v21l2 14q-20 2 -29.5 18.5t0.5 32.5q-6 10 -2 23q-18 22 -18 30q7 24 12 31q4 0 4 2z" />
    <glyph glyph-name="ugrave" unicode="&#xf9;" horiz-adv-x="778" 
d="M733 88q15 -43 15 -87t-37 -44q-24 0 -52 10l-30 10q-32 32 -46 117.5t-16 110.5q-20 41 -24 74q-6 -6 -6 -5l2 -24q-9 -18 -36.5 -43t-35.5 -29h2q-4 -8 -1 -12t-9 -16q-76 -102 -183 -127q-25 -19 -51 -19t-63 14q-27 2 -38 19.5t-22 36.5q-20 4 -28 22l2 -9
q-2 5 -12.5 30.5t-14.5 42.5l2 -2q-24 55 -24 69v17q-16 10 -17 28v119q-12 16 -12 29v100q0 10 10 25q-2 0 -6 8t-4 19t-1 30l-2 38t-2 35.5t-1 27.5t11 21.5t27 10.5q29 0 70 -34.5t45 -61.5l5 -16l12 -50q0 -24 -17 -38q17 -21 17 -62t-6 -55t-6 -17q15 -10 10 -34v-43
q0 -38 14 -66l12 -31l7 -22q4 -23 26 -47q6 4 20 5t31 21l25 11q2 0 2 3t2 7l18 24l31 15q10 4 21.5 10t21.5 10v2q0 6 2 10v3q2 8 4 19t9 28q6 33 30 75q12 36 24 61t19 48v59q-1 19 9 41t10 53t37 31q72 0 100 -37q6 -18 4 -34q9 -22 -6 -41l8 -43l-2 -35q0 -12 -4 -17
q23 -27 35 -75v-25v-11v-65q0 -2 4 -2q16 -8 22 -22.5t-2 -28.5q4 -8 4 -20v-11q10 -10 11 -26q0 -6 -15 -6q75 -17 39 -58q6 -10 6 -23t-6 -26zM503 856h-24q-24 0 -35 4l13 -2q-8 2 -24.5 11.5t-47.5 27t-35 33.5v6l-74 61l-88 88q-4 4 -6 4.5t-16 8.5q-64 35 -64 73
q0 10 30 46t47 36q18 0 32 -14l10 -10q10 -10 14 -12q3 -3 11 -7t14 -8t14 -8l31 -18q4 -6 11 -14t28 -36q8 -4 11 -6t7 -2l76 -74q17 -34 21 -34l61 -82h-2q26 -26 12 -49t-27 -23z" />
    <glyph glyph-name="uacute" unicode="&#xfa;" horiz-adv-x="778" 
d="M733 88q15 -43 15 -87t-37 -44q-24 0 -52 10l-30 10q-32 32 -46 117.5t-16 110.5q-20 41 -24 74q-6 -6 -6 -5l2 -24q-9 -18 -36.5 -43t-35.5 -29h2q-4 -8 -1 -12t-9 -16q-76 -102 -183 -127q-25 -19 -51 -19t-63 14q-27 2 -38 19.5t-22 36.5q-20 4 -28 22l2 -9
q-2 5 -12.5 30.5t-14.5 42.5l2 -2q-24 55 -24 69v17q-16 10 -17 28v119q-12 16 -12 29v100q0 10 10 25q-2 0 -6 8t-4 19t-1 30l-2 38t-2 35.5t-1 27.5t11 21.5t27 10.5q29 0 70 -34.5t45 -61.5l5 -16l12 -50q0 -24 -17 -38q17 -21 17 -62t-6 -55t-6 -17q15 -10 10 -34v-43
q0 -38 14 -66l12 -31l7 -22q4 -23 26 -47q6 4 20 5t31 21l25 11q2 0 2 3t2 7l18 24l31 15q10 4 21.5 10t21.5 10v2q0 6 2 10v3q2 8 4 19t9 28q6 33 30 75q12 36 24 61t19 48v59q-1 19 9 41t10 53t37 31q72 0 100 -37q6 -18 4 -34q9 -22 -6 -41l8 -43l-2 -35q0 -12 -4 -17
q23 -27 35 -75v-25v-11v-65q0 -2 4 -2q16 -8 22 -22.5t-2 -28.5q4 -8 4 -20v-11q10 -10 11 -26q0 -6 -15 -6q75 -17 39 -58q6 -10 6 -23t-6 -26zM200 856h-38q-23 0 -37 20t16 54h-2l56 76q10 10 24 38l76 74l24 10q24 43 43 52l23 14q28 12 38.5 22.5t12.5 10.5
q10 10 14.5 18t19.5 8q23 0 54 -33t31 -55q0 -21 -23.5 -38t-41.5 -27t-19 -15l-90 -88l-74 -61v-2q-12 -23 -56 -48.5t-50 -27.5l12 2q-8 -4 -13 -4z" />
    <glyph glyph-name="ucircumflex" unicode="&#xfb;" horiz-adv-x="778" 
d="M733 88q15 -43 15 -87t-37 -44q-24 0 -52 10l-30 10q-32 32 -46 117.5t-16 110.5q-20 41 -24 74q-6 -6 -6 -5l2 -24q-9 -18 -36.5 -43t-35.5 -29h2q-4 -8 -1 -12t-9 -16q-76 -102 -183 -127q-25 -19 -51 -19t-63 14q-27 2 -38 19.5t-22 36.5q-20 4 -28 22l2 -9
q-2 5 -12.5 30.5t-14.5 42.5l2 -2q-24 55 -24 69v17q-16 10 -17 28v119q-12 16 -12 29v100q0 10 10 25q-2 0 -6 8t-4 19t-1 30l-2 38t-2 35.5t-1 27.5t11 21.5t27 10.5q29 0 70 -34.5t45 -61.5l5 -16l12 -50q0 -24 -17 -38q17 -21 17 -62t-6 -55t-6 -17q15 -10 10 -34v-43
q0 -38 14 -66l12 -31l7 -22q4 -23 26 -47q6 4 20 5t31 21l25 11q2 0 2 3t2 7l18 24l31 15q10 4 21.5 10t21.5 10v2q0 6 2 10v3q2 8 4 19t9 28q6 33 30 75q12 36 24 61t19 48v59q-1 19 9 41t10 53t37 31q72 0 100 -37q6 -18 4 -34q9 -22 -6 -41l8 -43l-2 -35q0 -12 -4 -17
q23 -27 35 -75v-25v-11v-65q0 -2 4 -2q16 -8 22 -22.5t-2 -28.5q4 -8 4 -20v-11q10 -10 11 -26q0 -6 -15 -6q75 -17 39 -58q6 -10 6 -23t-6 -26zM256 1069h-8q7 -2 -6 -24q-12 -21 -33 -35q-43 -79 -86 -83.5t-61 -4.5q-38 0 -39 36q0 29 12 48.5t28 42.5q21 21 41 61l35 20
h-2l2 3q24 59 66 69l4 12q2 2 14.5 19.5t46.5 52.5t72 35l23 -2q76 -25 96.5 -48.5t23.5 -52.5q2 -29 9 -34l-17 -6q22 -9 51 -50q25 -50 35 -55l17 -33q24 -36 24 -62q0 -46 -37 -46l-84 8q-39 50 -47 75t-20 40l-64 106q-17 -27 -41 -49l-28 -33q-10 -10 -27 -10z" />
    <glyph glyph-name="udieresis" unicode="&#xfc;" horiz-adv-x="778" 
d="M733 88q15 -43 15 -87t-37 -44q-24 0 -52 10l-30 10q-32 32 -46 117.5t-16 110.5q-20 41 -24 74q-6 -6 -6 -5l2 -24q-9 -18 -36.5 -43t-35.5 -29h2q-4 -8 -1 -12t-9 -16q-76 -102 -183 -127q-25 -19 -51 -19t-63 14q-27 2 -38 19.5t-22 36.5q-20 4 -28 22l2 -9
q-2 5 -12.5 30.5t-14.5 42.5l2 -2q-24 55 -24 69v17q-16 10 -17 28v119q-12 16 -12 29v100q0 10 10 25q-2 0 -6 8t-4 19t-1 30l-2 38t-2 35.5t-1 27.5t11 21.5t27 10.5q29 0 70 -34.5t45 -61.5l5 -16l12 -50q0 -24 -17 -38q17 -21 17 -62t-6 -55t-6 -17q15 -10 10 -34v-43
q0 -38 14 -66l12 -31l7 -22q4 -23 26 -47q6 4 20 5t31 21l25 11q2 0 2 3t2 7l18 24l31 15q10 4 21.5 10t21.5 10v2q0 6 2 10v3q2 8 4 19t9 28q6 33 30 75q12 36 24 61t19 48v59q-1 19 9 41t10 53t37 31q72 0 100 -37q6 -18 4 -34q9 -22 -6 -41l8 -43l-2 -35q0 -12 -4 -17
q23 -27 35 -75v-25v-11v-65q0 -2 4 -2q16 -8 22 -22.5t-2 -28.5q4 -8 4 -20v-11q10 -10 11 -26q0 -6 -15 -6q75 -17 39 -58q6 -10 6 -23t-6 -26zM356 1108q0 27 6 38t7.5 11t1.5 2t6 7t26.5 14.5t31.5 9.5q20 0 58.5 -37t38.5 -49q0 -39 -13 -53.5t-25 -22.5h2
q-29 -29 -56 -30t-42 11.5t-24 28t-13.5 29.5t-4.5 41zM201 1192q43 0 57 -8t21.5 -23.5t7.5 -61.5t-16.5 -70.5t-61.5 -24.5h-11q-10 0 -16 4h-10l-37 34q2 -2 3 -9t-3 -3q-22 16 -22 52t22.5 73t65.5 37z" />
    <glyph glyph-name="yacute" unicode="&#xfd;" horiz-adv-x="659" 
d="M106 920q-40 0 -40 56q0 30 16 41t30 16t15 5q2 0 2 -6l10 -10l15 63q24 9 46 29t44 43v-2q30 35 53 50q22 15 55 26l15 33q8 36 43 32q58 54 118 56q16 0 28 -12t11 -30q0 -20 -22 -62t-62 -80q-41 -38 -57 -48q-39 -39 -70 -61l-63 -60q-21 -10 -29 -16q-8 -5 -18 -27
t-35 -22h-10l-27 2q-35 0 -41 -4q-11 -12 -27 -12zM193 29q-37 1 -37 37q0 16 6 18t-2 7t-10 8t-12 11t-35 31q-24 23 -23 64v2q-12 8 -25 20q-12 12 -20 41v37q-14 27 -15 43v29q-16 11 -16 43q0 33 14 66t3 39q-29 18 -29 55q0 8 1 26t4 82t17 121q28 28 58 28
q69 1 69 -73q-16 -32 -16 -53l2 -2q0 -2 7 -15t7 -63t-8 -76t-8 -41q0 6 14 -22q9 -52 31 -116t27 -110q2 4 5 -4t21 -28t19 -48v-4l18 -10q8 10 18 18t21 17l16 8q2 4 11 16q8 12 18 29l23 37q33 33 44 65t11 41v125q0 43 7 79t7 55l-2 26v10q0 34 47 47q21 7 33 7t42 -12
t42 -33q0 -67 -12 -82q0 -5 2 -9t3 -14t7 -20q0 -6 -16 -27v-172l-15 -29v-155l17 -35q-4 -24 -4 -56v-151q0 -56 12 -95t-14 -57q-10 -5 -17 -28q-8 -23 -22 -42t-40 -19t-37 12t-8 32t-3 111l-2 55q0 26 -13 58l-2 47q0 44 6 71t7 45t4 35l-23 -45q-34 -47 -85 -83
t-69 -34q-8 -4 -22 -4t-31 17q-12 -4 -28 -4z" />
    <glyph glyph-name="thorn" unicode="&#xfe;" 
d="M637 453q0 28 18 43v4l-2 22v17q0 -2 -2 1l-26 46q-37 67 -52 96q-107 122 -186 126.5t-139 4.5t-60 -12l2 -35v-27q0 -6 -2 -8q16 -12 17 -29v-102q0 -12 -15 -27q27 -54 27 -75v-262q16 -23 16 -35v-78q-1 -31 19 -31t55 11.5t106.5 45.5t141.5 101t70 141q0 20 12 29
v33zM86 33v174q0 9 -7 44q-9 45 -9 55v93q-15 24 -15 107l2 47v29l4 12q-5 5 -7.5 30t-7.5 61t-5 56v15q-45 22 -45 61l2 12q-10 14 -10 33q0 44 39 51v152l14 63q-1 18 -13 57t-12 56q0 16 11.5 26.5t27.5 10.5l62 -4q16 0 26.5 -10.5t10.5 -26.5q0 -100 36 -174
q0 -41 -14 -55q14 -14 14 -70l50 6q41 0 59 -18h2q2 0 2 1t4 1l51 2h21q63 -12 108 -37t97 -57h-2l55 -35q11 -30 40 -58q30 -27 46 -51v2q4 -6 11 -28.5t16 -44.5l8 -33q0 -4 14 -33t14 -45l-12 -123q0 -17 -18 -29q-13 -5 -13 -34q-50 -106 -74 -142.5t-73 -85.5l-61 -20
q8 0 2 -8q-85 -74 -146 -95q-36 0 -47 11q-10 -8 -20.5 -16.5t-33.5 -8.5t-57 4v-33l3 -225q0 -39 10 -61q33 -51 -43 -76q-6 -23 -22.5 -25t-49 25t-43.5 108l12 244q-14 54 -14 113z" />
    <glyph glyph-name="ydieresis" unicode="&#xff;" horiz-adv-x="659" 
d="M252 16q-14 0 -31 17q-12 -4 -28 -4t-26.5 10t-10.5 26.5t6 18.5t-2 7t-10.5 8t-12.5 11t-33.5 31t-23.5 64v2q-34 23 -45 61v37q-15 30 -15 43v29q-16 11 -16 43q0 33 7 50t9.5 25.5t2 18.5t-6.5 14q-24 15 -24 52q0 8 1 26.5t3.5 82t17.5 120.5q29 29 59 29
q68 0 68 -74q-16 -32 -16 -53l2 -2q0 -2 7 -15t7 -63t-8 -76t-8 -41q0 6 14 -22q8 -47 32 -117t26 -109q2 4 5.5 -4t21.5 -29t18 -47v-4l18 -10q8 11 39 35l16 8q2 4 10.5 16.5t18.5 28.5l23 37q33 33 44 64.5t11 41.5v125q0 43 7 79t7 55l-2 26v10q0 33 34 43.5t46 10.5
t42 -11.5t42 -33.5q0 -67 -12 -82q0 -5 2 -9t3.5 -14t6.5 -20q0 -6 -16 -27v-172l-15 -29v-155l17 -35q-4 -25 -4 -32v-120q0 -111 12 -150t-14 -57q-10 -5 -17 -28q-8 -23 -22.5 -42.5t-40.5 -19.5t-36.5 12.5t-7.5 32.5t-3 111l-2 55q0 26 -13 58l-2 47q0 44 6 71
t7.5 45.5t3.5 34.5l-23 -45q-18 -25 -73.5 -74.5t-80.5 -42.5q-8 -4 -22 -4zM371 1011q-21 34 -21 60q0 25 12 64q6 12 31 23t36 11q20 0 59.5 -37t39.5 -47q0 -41 -11 -54t-28 -23q-18 -17 -25 -19t-13 -4h6q-12 -8 -39 -8q-26 0 -47 34zM205 983q-11 0 -31 4h-8
q-18 0 -33 21q-27 16 -27 53t23 73.5t66 36.5q63 0 74.5 -21t11.5 -69q0 -49 -16.5 -73.5t-59.5 -24.5zM252 1071v2l-2 2q0 -4 2 -4zM252 1071q-2 0 -2 4l2 -2v-2zM244 1049l4 4h-12zM244 1049l-8 4h12z" />
    <glyph glyph-name="Amacron" unicode="&#x100;" 
d="M322 911v-41q0 -30 -19 -49l2 -41q-14 -22 -16 -56t-13 -56q0 -38 -10 -88q44 19 59 22.5t23 11t38 7.5t87 22t117 29q-22 122 -33 188q0 51 -14 86l-27 109q-8 23 -13 36t-5 29q-24 70 -39 86q-51 -32 -65 -52q-13 -21 -34 -26q36 -4 22 -24q-13 -20 -18 -40t-11.5 -36
t-14.5 -45q11 -14 -12 -51q-4 -10 -4 -21zM186 51q-34 -98 -34 -233q0 -60 -39 -60q-20 0 -57.5 42t-37.5 48v314l39 39q-16 0 -24 -15v21q0 11 6 20t8 9v122q0 34 37 39q-4 4 -4 19h-6l-11 20q0 27 7 41t22 98v3q0 45 42 212t50 189q4 66 24 104q21 38 21 80v43q0 43 -4 62
q16 25 43 43t41 18t33 -18q8 2 24.5 4l33 4t30.5 4t32 2t37 -3t33.5 -9t25.5 -17.5t26 -25.5h-2l12 -15q18 -16 22.5 -33.5t12.5 -37.5l-2 2q4 -10 8 -17.5t-21 -23.5q18 8 35 -2t17 -29t-11 -41q11 -22 11 -27t4 -18.5t9 -34.5t11 -43t6 -39v-8l-2 -24q2 -8 7.5 -24.5
t9.5 -35l8 -37t6 -30.5l-2 4l18 -172v-9q4 -20 9.5 -37.5t5.5 -37.5v-94l16 -48q0 -66 8 -139t8 -133q0 -59 -30 -59q-23 0 -62 6q-33 20 -54 78.5t-21 71.5t7 63t31 59q-24 -10 -26 -10l-4 -2q-8 23 -8 45v49q-5 0 -7 8t-6 16.5t-4 24.5t7 27q7 12 9.5 19t2.5 32t-9 49
q-36 -25 -162 -65t-155 -76q-8 -12 -21.5 -15.5t-23.5 3.5q-7 -11 -25 -62l2 2q-43 -244 -43 -299zM244 1591h6l22 -6q4 -2 11 -3.5t18 -6.5q8 0 31 8t49 8h88l160 15v2l30 12q78 0 78 -133q0 -16 -11 -27.5t-33 -11.5t-38 16q-17 -12 -35 -12t-24 8t-10 15q0 -2 -2 -3.5
t2 -1.5q-39 -2 -72 -3t-80 -7t-133 -6q8 0 -25 -12q-33 -18 -49 -19h-135q-25 0 -37 19.5t4 40.5l9 28q9 38 42 51t54 13h33q10 10 18 10t4 -4q10 10 25 10z" />
    <glyph glyph-name="amacron" unicode="&#x101;" horiz-adv-x="716" 
d="M143 374q0 -12 -20 -32h2q0 -29 16.5 -64.5t16.5 -76.5q0 -10 -15 -25l35 -26h17q31 0 32 1l17 19q6 10 11 21.5t21 27.5q6 15 29.5 44t42.5 71l8 10q0 20 2 25l30 59q27 54 22 80l18 39q2 4 5.5 54.5t15.5 84.5q0 23 12 43.5t12 36.5q-8 27 -41 27l-55 -19h-33l4 -4
q-22 -28 -37 -35l-2 -2q4 -12 4 -14q0 -20 -39 -35l-20 2q-74 -107 -74 -147l-10 -37q0 -20 -4 -21.5t-10 -5.5l2 -20q-16 -29 -15.5 -38t-5.5 -22q6 -9 6 -21zM539 230q0 30 -9.5 52.5t-13.5 59.5q-13 -32 -20 -39l-16 -16t-12.5 -14.5t-4.5 -4.5l-2 -39l-11 -33
q-11 -33 -26 -50q-36 -40 -106 -100t-89 -60q-37 0 -55 16q-12 -4 -22 -4q-20 0 -74.5 54t-54.5 100v4q-15 15 -15 30v27h-2q-6 0 -13 38t-11.5 58.5t-4.5 36.5t7 29q-8 11 -8 31t28 20l4 2v80q0 20 23 33h-4q0 43 17.5 60t29.5 17t13 12.5t-1 25t-3 20.5v1l32 66l22 23l6 4
q4 23 20.5 36t33.5 23q0 -4 2 -8v17q36 57 82 57q2 0 19 7t58 22.5t65 15.5q23 0 32 -18h20q19 0 77 -38t58 -73q0 -20 -16 -31v-4q0 -14 -12 -26q12 -25 12 -45h-12q12 -2 20 -13.5t8 -23.5l2 -90q4 -2 8.5 -11.5t4.5 -13.5v-47q14 -18 14 -39v-31q12 -16 13 -38t10 -75
q8 -53 16 -67t8 -39v-31q4 -37 15.5 -54t11.5 -47q0 -69 -70 -69q-43 0 -67.5 18t-24.5 36t8 30q-20 100 -20 130zM219 1217h6l23 -7q9 -6 31 -6q39 13 53 13t45 -21l53 8q18 2 35.5 4t28.5 2h36q11 9 29 17q53 7 66.5 -25.5t13.5 -76.5q0 -45 -10.5 -55.5t-26.5 -10.5
t-43 16q-23 -12 -37 -12t-28 12h-2l-9 4q-9 -2 -50.5 -6t-60 -6t-33.5 -2t-60 20l-25 -12l2 2q-35 -20 -51 -20h-131q-46 0 -30 66q9 38 35.5 60.5t63.5 22.5h37q3 0 13 4q4 0 0 -4q13 13 26 13zM83 677l-1 -1q0 7 1 1z" />
    <glyph glyph-name="Abreve" unicode="&#x102;" 
d="M322 911v-41q0 -30 -19 -49l2 -41q-14 -22 -16 -56t-13 -56q0 -38 -10 -88q44 19 59 22.5t23 11t38 7.5t87 22t117 29q-22 122 -33 188q0 51 -14 86l-27 109q-8 23 -13 36t-5 29q-24 70 -39 86q-51 -32 -65 -52q-13 -21 -34 -26q36 -4 22 -24q-13 -20 -18 -40t-11.5 -36
t-14.5 -45q11 -14 -12 -51q-4 -10 -4 -21zM186 51q-34 -98 -34 -233q0 -60 -39 -60q-20 0 -57.5 42t-37.5 48v314l39 39q-16 0 -24 -15v21q0 11 6 20t8 9v122q0 34 37 39q-4 4 -4 19h-6l-11 20q0 27 7 41t22 98v3q0 45 42 212t50 189q4 66 24 104q21 38 21 80v43q0 43 -4 62
q16 25 43 43t41 18t33 -18q8 2 24.5 4l33 4t30.5 4t32 2t37 -3t33.5 -9t25.5 -17.5t26 -25.5h-2l12 -15q18 -16 22.5 -33.5t12.5 -37.5l-2 2q4 -10 8 -17.5t-21 -23.5q18 8 35 -2t17 -29t-11 -41q11 -22 11 -27t4 -18.5t9 -34.5t11 -43t6 -39v-8l-2 -24q2 -8 7.5 -24.5
t9.5 -35l8 -37t6 -30.5l-2 4l18 -172v-9q4 -20 9.5 -37.5t5.5 -37.5v-94l16 -48q0 -66 8 -139t8 -133q0 -59 -30 -59q-23 0 -62 6q-33 20 -54 78.5t-21 71.5t7 63t31 59q-24 -10 -26 -10l-4 -2q-8 23 -8 45v49q-5 0 -7 8t-6 16.5t-4 24.5t7 27q7 12 9.5 19t2.5 32t-9 49
q-36 -25 -162 -65t-155 -76q-8 -12 -21.5 -15.5t-23.5 3.5q-7 -11 -25 -62l2 2q-43 -244 -43 -299zM299 1352q-14 0 -25.5 9t-13.5 23q-10 4 -19.5 14.5t-9.5 20.5q-6 4 -13 7.5t-15 13.5l-29 28l-16 31l-26 25q-25 26 -9 53l-19 35q-6 12 -6 26v7q0 49 34 68.5t61 19.5
l12 -2h12q29 0 37 -24t-4 -36t-12 -24l12 -9l14 -49q10 -10 28.5 -29.5t31.5 -29.5l47 -17v-4q38 19 53 2q20 8 31 9q4 4 22 10q-5 0 15 16.5t36 18.5l15 18l39 66l12 28q8 10 26.5 23.5t24.5 13.5h39q21 -7 39 -30t22 -27v-47l-20 -41l-31 -41q-23 -29 -47 -56.5t-49 -27.5
q-6 -4 -10 -10t-28 -30t-50 -24h-8q-21 -16 -29 -16h-12q-12 -12 -27 -12h-14l-12 -11q-25 0 -58 11h-51z" />
    <glyph glyph-name="abreve" unicode="&#x103;" horiz-adv-x="716" 
d="M143 374q0 -12 -20 -32h2q0 -29 16.5 -64.5t16.5 -76.5q0 -10 -15 -25l35 -26h17q31 0 32 1l17 19q6 10 11 21.5t21 27.5q6 15 29.5 44t42.5 71l8 10q0 20 2 25l30 59q27 54 22 80l18 39q2 4 5.5 54.5t15.5 84.5q0 23 12 43.5t12 36.5q-8 27 -41 27l-55 -19h-33l4 -4
q-22 -28 -37 -35l-2 -2q4 -12 4 -14q0 -20 -39 -35l-20 2q-74 -107 -74 -147l-10 -37q0 -20 -4 -21.5t-10 -5.5l2 -20q-16 -29 -15.5 -38t-5.5 -22q6 -9 6 -21zM539 230q0 30 -9.5 52.5t-13.5 59.5q-13 -32 -20 -39l-16 -16t-12.5 -14.5t-4.5 -4.5l-2 -39l-11 -33
q-11 -33 -26 -50q-36 -40 -106 -100t-89 -60q-37 0 -55 16q-12 -4 -22 -4q-20 0 -74.5 54t-54.5 100v4q-15 15 -15 30v27h-2q-6 0 -13 38t-11.5 58.5t-4.5 36.5t7 29q-8 11 -8 31t28 20l4 2v80q0 20 23 33h-4q0 43 17.5 60t29.5 17t13 12.5t-1 25t-3 20.5v1l32 66l22 23l6 4
q4 23 20.5 36t33.5 23q0 -4 2 -8v17q36 57 82 57q2 0 19 7t58 22.5t65 15.5q23 0 32 -18h20q19 0 77 -38t58 -73q0 -20 -16 -31v-4q0 -14 -12 -26q12 -25 12 -45h-12q12 -2 20 -13.5t8 -23.5l2 -90q4 -2 8.5 -11.5t4.5 -13.5v-47q14 -18 14 -39v-31q12 -16 13 -38t10 -75
q8 -53 16 -67t8 -39v-31q4 -37 15.5 -54t11.5 -47q0 -69 -70 -69q-43 0 -67.5 18t-24.5 36t8 30q-20 100 -20 130zM162 1313h22q23 0 34 -19.5t0 -37.5t-11 -27l8 -8l18 -50q11 -14 54 -53q10 -2 25.5 -8t23.5 -8l2 -4q16 10 28 10t23 -8q10 4 17.5 5t15.5 7t18 6l16 16
q15 15 36 17q12 24 22 45t27 39l10 22q4 8 24.5 23.5t26.5 15.5h39q8 -4 29.5 -25.5t25.5 -29.5v-49l-16 -37l-35 -43h2q-23 -27 -44 -52.5t-44 -29.5q-63 -57 -88 -57h-4q-20 -16 -35 -17h-8q-16 -12 -27 -12h-131q-33 0 -37 33q-29 6 -28 35q-4 -4 -4 0l-25 18l-27 27
l-18 28q-6 8 -28 30t-5 48l-20 49l-2 17q0 63 40 73.5t50 10.5zM83 677l-1 -1q0 7 1 1z" />
    <glyph glyph-name="Aogonek" unicode="&#x104;" 
d="M559 883q0 41 -12 59l-33 133q0 -8 -1 -8t-8 13t-7 30v10l-11 37q-8 12 -10 19l-22 28q-8 -8 -17 -8l-45 -47q-14 -21 -35 -21q-6 -69 -6 -72v-46l-18 -47v-7l-10 -43l-2 -4v-39q0 -30 -19 -49l2 -33l-14 -43v-32l-15 -41v-35l-12 -57q6 4 11.5 5t7.5 3l51 20l10 2
q11 11 27 11h10q78 26 86 30h27q36 14 98 19l-33 190v23zM479 -174q0 53 17 70v2l2 -2l6 6q15 89 43 118l-2 -4q6 6 12 15q10 12 23 22h6l32 70l7 10q-4 20 -4 29l12 106v17q-12 24 -12 53v49q-5 0 -7 8t-6 16.5t-4 24.5t10 31q10 16 9 44q0 27 -9 50q-20 -12 -68 -24
t-81 -35l-80 -31l-55 -27q-4 -4 -17.5 -11t-18.5 -14t-18.5 -11.5t-23.5 2.5q-11 -18 -23 -58l-30 -176v-31l-13 -45v-51l-18 -63q-10 -42 -16 -162v-27q0 -16 -11.5 -27.5t-22.5 -11.5q-15 0 -57.5 39.5t-42.5 50.5v314q0 16 15 31v14q0 11 6 20t8 9v122q0 34 37 39
q-4 4 -4 19h-6l-11 20v27q0 16 11.5 27.5t27.5 11.5q-20 4 -17 18t4 28.5t5 29.5v22l17 51l-2 -2l36 172q2 14 7.5 36t11 56.5t20.5 65.5q4 16 10.5 48t12.5 42l-4 -4l24 55q2 10 2 14v60q0 55 -2 74q16 25 42.5 43t40.5 18t32 -18l107 14h45q53 0 65 -49l23 -10
q14 -7 22 -23l43 -100l4 -4h2q13 -13 13 -24t-4 -27q-4 -15 -7 -15q11 -11 11 -21t4 -24t9 -35t11 -43t6 -39v-8l-2 -33l31 -114q0 -14 2 -30t3 -31t3 -37t4 -45t4 -29v-9q4 -20 9.5 -37.5t5.5 -37.5v-94l16 -48v-75l14 -115v-10q23 -23 5 -76v-16q0 -16 -11.5 -27.5
t-27.5 -11.5h-19q16 0 1.5 -14t-27.5 -38q-5 -16 -31 -34q-27 -18 -27 -29l13 -47q0 -16 -11 -27l-14 -16q-6 -4 -6 -27v-10q0 -23 6 -29l14 -14q48 -18 107 -18q39 0 39 -39v-66q0 -39 -39 -39l-78 4l-12 4q-8 -4 -15 -4l-18 4l-39 15q-33 14 -59.5 37.5t-26.5 33.5v25
q-16 16 -16 35v16q-15 23 -15 76z" />
    <glyph glyph-name="aogonek" unicode="&#x105;" horiz-adv-x="716" 
d="M158 204q0 -7 -4 -16l26 -38h56q2 0 18 28t27.5 47t20.5 36t32 22q-10 4 -3 18t13 27l12 14q0 33 6 45l44 119q12 33 26 47v27q0 47 10.5 95t20.5 66v7q0 22 10 22q-12 23 -41 23q-4 1 -22 -9t-33 -10h-33q8 -4 4 -4q-18 -22 -37 -35l-2 -2q14 -32 -35 -49l-18 2v2h-2
l-2 -2l-68 -133q-4 -4 -4 -14l-10 -37q0 -18 -4 -20.5t-10 -6.5q2 -6 2 -14l-15 -43v-15l-4 -12q14 -23 -8 -41l-6 -6v-4l2 -16v-5q12 -31 16 -51v-12q15 -45 15 -52zM572 -422q-3 0 -3 2q-8 -4 -12 -4h-16q-20 0 -31 16q-94 39 -94 72v21q-12 18 -13 36v21q-6 -10 -8 -8
q-10 18 -10 74t21 71l-3 4q0 50 40 99t55 63q8 14 16 35.5t14 32.5l25 10q-8 29 -10 53l-6 33v22q0 31 36 31q-44 50 -57 80q-13 -32 -20 -39l-16 -16t-12.5 -14.5t-4.5 -4.5l-2 -39l-11 -33q-11 -33 -26 -50q-36 -40 -106 -100t-97 -60t-47 14q-8 -2 -29 -2t-30 22
q-25 13 -58.5 57.5t-33.5 74.5v4q-15 15 -15 30l-1 27q-1 0 -7 10t-6 23v26q-4 8 -4 13.5t-6 20.5t-7 34l5 37q-10 16 -5 32.5t27 16.5l4 2v80q0 20 17 29v6q6 34 17 48q11 13 14 19t-1 0l15 27l16 47l31 61l26 27q10 28 54 57q0 -4 2 -8v17q6 10 26.5 31.5t28.5 25.5h27
q-12 0 18 6l109 37h6l12 2q20 0 29 -18h20q23 0 60.5 -26t66.5 -60q25 -35 -8 -56v-4q0 -14 -12 -26q12 -30 12 -39v-13q16 -12 16 -30v-88q15 -15 15 -27v-47q14 -23 14 -39v-31q4 -8 8 -14t4 -19l-6 15q23 -92 23 -99v-61q18 -14 18 -41v-31l12 -57q15 -15 15 -31v-22
l-31 -45q-14 -14 -20 -15q-13 -11 -16 -12.5t-6 -3.5t-5 -2l2 8q0 2 2 6l-16 -30q-6 -10 -10.5 -18.5t-8.5 -12.5q-6 -17 -26 -29t-27 -22q2 0 3 -9t6 -19t5 -25t-10 -25l-16 -15q-4 -12 -4 -31t4 -32l12 -12q42 -21 82 -21t50.5 -10t10.5 -27v-65q0 -16 -10 -26.5
t-27 -10.5l-82 4q0 2 -3 2z" />
    <glyph glyph-name="Cacute" unicode="&#x106;" horiz-adv-x="823" 
d="M-6 549q0 53 16 141l15 125q0 34 13 76.5t21 56.5q6 23 37 33v8q0 35 33 39q-10 70 19.5 93.5t43 28.5t13.5 9t6 14.5t15.5 21.5t18.5 21.5t15 14.5l23 -2h4q10 49 53 49h16q17 0 23 -2q19 33 71 33t62 -35q6 0 27 11q22 11 38.5 2t20.5 -30v-8l2 -12v-10q32 -13 41 -56
q26 -16 35 -41h2q41 -10 41 -49v-14q14 -28 14 -68q0 -71 -76 -71q-33 0 -42 15t-19 35t-17.5 36t-23.5 39q-35 35 -35 57v8q0 4 1 6t1 6q0 -5 -47 11l-35 -2h-9q-9 0 -15 2q-47 -49 -99 -68l-12 -22q-6 -16 -9 -21.5t-6 -4.5t-7.5 3t-10.5 -1q-18 -9 -18 -34q0 -26 -23 -51
q-14 -20 -33.5 -49t-19.5 -51q-47 -132 -47 -248q0 -115 29 -166q6 -20 11 -36.5t8 -28.5t2 -13.5t3 -11.5q16 -8 18.5 -22.5t4.5 -24.5t0 -10l2 -2q25 -16 40 -41t23 -39q108 -66 154 -66h29q71 0 102.5 7.5t108.5 52.5l22 16q40 35 64 35q45 0 45 -39q0 -105 -40 -133.5
t-67 -28.5h-22l-47 -27l-19 -2l-2 -4q-12 -12 -27 -12h-233q-18 9 -29 20q-67 25 -73 31l-27 27l-23 10l-49 27l-18 41q-26 52 -45 71l-37 70q0 30 -19 100l3 -2q-29 103 -29 156zM161 1331.5q-28 -0.5 -28 56.5q0 33 17.5 41.5t28.5 15.5t15.5 8t4.5 -9l10 -10l12 63
q47 24 60 35l34 37q45 41 52 49q8 8 25.5 13t27.5 9l16 35q4 26 33 31l-4 -4q2 0 6 4q41 0 41 -35q0 29 -11.5 33t-21.5 4h-4l25 16q50 39 81 39q54 0 54 -37t-37 -83t-81 -90t-68.5 -62.5t-88.5 -79.5q-12 -4 -30 -22l-25 -31q-12 -12 -29 -12h-8l-26 2q-35 0 -44 -8
t-37 -8.5zM471 1706l4 2q0 -2 -4 -2z" />
    <glyph glyph-name="cacute" unicode="&#x107;" horiz-adv-x="671" 
d="M109 922q-41 0 -41 56q0 30 16 41t30 16t15 5q2 0 2 -6l10 -10l15 63q24 9 46 29t44 43v-2q30 35 53 50q22 15 55 26l15 33q8 36 43 32q58 54 118 56q16 0 28 -12t11 -30q0 -20 -22 -62t-62 -80q-41 -38 -57 -48q-39 -39 -70 -61l-63 -60q-21 -10 -29 -16q-8 -5 -18 -27
t-35 -22h-10l-27 2q-35 0 -41 -4q-10 -12 -26 -12zM492 854q19 0 52 -22t50 -40q18 -16 20 -38t2 -47v-7q0 -16 -14 -28t-38 -13q-23 0 -40 21q-34 6 -59 43q-6 4 -10 9q-7 9 -27 10t-52 5q-32 3 -36 3h-4q-20 -20 -47 -29l-19 -10v-4q0 -5 -14 -27q-50 -48 -74 -104
t-37 -152q-4 -8 -4 -14q-12 -18 -12 -49t9 -48t9 -33q0 -17 -4 -30q31 -75 90 -93q48 -16 199 -16h62q65 45 90 45q36 0 59 -61q4 -117 -94 -117q-10 0 -23 6q-4 -4 -8 -4q-16 -16 -29 -16h-178q-2 0 -14 4q-53 -27 -104 27q-90 10 -123 56q-14 17 -15 40q0 2 1 1t1 3
l-14 18l6 -18q-24 35 -24 68q-16 16 -11 38q-2 -2 -2 -4v-2h-2q-28 34 -28 62v10l12 70v2q-28 23 -4 49q-10 20 -10 72t40 81l5 2q2 0 2 2l-2 25l2 18q41 109 80 155q78 91 184 112q8 2 20 -4q10 14 29 14l117 -12q13 -3 26 -29h9z" />
    <glyph glyph-name="Ccircumflex" unicode="&#x108;" horiz-adv-x="823" 
d="M-6 549q0 53 16 141l15 125q0 34 13 76.5t21 56.5q6 23 37 33v8q0 35 33 39q-10 70 19.5 93.5t43 28.5t13.5 9t6 14.5t15.5 21.5t18.5 21.5t15 14.5l23 -2h4q10 49 53 49h16q17 0 23 -2q19 33 71 33t62 -35q6 0 27 11q22 11 38.5 2t20.5 -30v-8l2 -12v-10q32 -13 41 -56
q26 -16 35 -41h2q41 -10 41 -49v-14q14 -28 14 -68q0 -71 -76 -71q-33 0 -42 15t-19 35t-17.5 36t-23.5 39q-35 35 -35 57v8q0 4 1 6t1 6q0 -5 -47 11l-35 -2h-9q-9 0 -15 2q-47 -49 -99 -68l-12 -22q-6 -16 -9 -21.5t-6 -4.5t-7.5 3t-10.5 -1q-18 -9 -18 -34q0 -26 -23 -51
q-14 -20 -33.5 -49t-19.5 -51q-47 -132 -47 -248q0 -115 29 -166q6 -20 11 -36.5t8 -28.5t2 -13.5t3 -11.5q16 -8 18.5 -22.5t4.5 -24.5t0 -10l2 -2q25 -16 40 -41t23 -39q108 -66 154 -66h29q71 0 102.5 7.5t108.5 52.5l22 16q40 35 64 35q45 0 45 -39q0 -105 -40 -133.5
t-67 -28.5h-22l-47 -27l-19 -2l-2 -4q-12 -12 -27 -12h-233q-18 9 -29 20q-67 25 -73 31l-27 27l-23 10l-49 27l-18 41q-26 52 -45 71l-37 70q0 30 -19 100l3 -2q-29 103 -29 156zM121 1327q-41 -1 -41 45q0 35 36 78t50 72l35 20h-6l2 2h6q25 62 61 72h2q14 25 27 39t21 31
t21 21q13 3 30 19q17 15 35 15t38.5 -8.5t42 -18.5t41 -19t25.5 -14l8 -28q4 -12 7.5 -32t9.5 -29l38 -70l29 -43l2 -2q39 -58 39 -88q0 -50 -39 -50q-78 0 -101.5 27t-32.5 57t-26 47l-67 101q-62 -92 -95 -92h-8q2 -2 -2 -17q-16 -24 -35 -45q-44 -81 -89.5 -85.5
t-63.5 -4.5z" />
    <glyph glyph-name="ccircumflex" unicode="&#x109;" horiz-adv-x="671" 
d="M492 854q16 0 51 -22.5t54 -41.5t19 -83v-7q0 -16 -14.5 -28.5t-37.5 -12.5t-40 21q-32 6 -59 43q-6 4 -9.5 9t-7.5 7t-19 3t-41 4.5t-48 3.5h-4q-20 -20 -47 -29l-19 -10v-4q0 -5 -14 -27q-50 -48 -74 -104t-37 -152q-4 -8 -4 -14q-12 -18 -12 -49t9 -48t9 -33
q0 -17 -4 -30q30 -72 82 -90.5t207 -18.5h62q65 45 90 45q36 0 59 -61q4 -117 -94 -117q-10 0 -23 6q-4 -4 -8 -4q-16 -16 -29 -16h-178q-2 0 -14 4q-53 -27 -104 27q-85 9 -111.5 41t-26.5 55q0 2 1 1t1 3l-14 18l6 -18q-24 35 -24 68q-16 16 -11 38q-2 -2 -2 -4v-2h-2
q-28 34 -28 62v10l12 70v2q-12 10 -13 24.5t9 24.5q-10 20 -10 72t40 81l5 2q2 0 2 2l-2 25l2 18q39 105 96 174.5t168 92.5q8 2 20 -4q10 14 29 14l117 -12q13 -3 26 -29h9zM637 982q0 -50 -38 -50q-68 0 -90.5 18t-32.5 44q-9 26 -17 46q-33 42 -60 88l-16 29
q-10 -14 -13 -17l-28 -28l-29 -33q-10 -10 -26 -10h-8q11 -5 -5 -18q-10 -14 -14 -27.5t-20 -19.5q-19 -65 -77.5 -77t-84 -2.5t-25.5 35.5q0 33 36 77t48 73l35 20h-6l2 3h6q26 60 66 71q2 4 11.5 14.5t16.5 24.5l6 6q2 4 4.5 6.5t10.5 14.5q33 52 86 51l8 -2h12
q108 -35 116.5 -66.5t10.5 -50.5l6 -26q8 -10 17.5 -26t18.5 -30t18.5 -30t31.5 -48t23 -60z" />
    </font>
</defs>
</svg>
